<?xml version="1.0" standalone="no"?>
<!DOCTYPE svg PUBLIC "-//W3C//DTD SVG 1.1//EN" "http://www.w3.org/Graphics/SVG/1.1/DTD/svg11.dtd" >
<svg xmlns="http://www.w3.org/2000/svg" xmlns:xlink="http://www.w3.org/1999/xlink" version="1.1">
<metadata>
Created by FontForge 20170731 at Fri Feb 12 22:58:20 2016
 By Aleksey,,,
</metadata>
<defs>
<font id="unscii-16" horiz-adv-x="32" >
  <font-face 
    font-family="unscii"
    font-weight="0"
    font-stretch="normal"
    units-per-em="64"
    panose-1="2 0 2 3 0 0 0 0 0 0"
    ascent="51"
    descent="-13"
    x-height="27"
    cap-height="43"
    bbox="0 -13 64 51"
    underline-thickness="0"
    underline-position="0"
    unicode-range="U+0020-1F860"
  />
<missing-glyph 
d="M2 0v42h16v-42h-16zM4 2h12v38h-12v-38z" />
    <glyph glyph-name="uniFE81" unicode="&#x622;" arabic-form="isolated" 
d="M12 43h4v-32h-4v32zM4 51h24v-4h-24v-4h-4v4h4v4z" />
    <glyph glyph-name="uniFE82" unicode="&#x622;" arabic-form="final" 
d="M12 43h4v-24h16v-8h-16v4h-4v28zM8 51h16v-4h-16v-4h-4v4h4v4z" />
    <glyph glyph-name="uniFE84" unicode="&#x623;" arabic-form="final" 
d="M12 35h4v-16h16v-8h-16v4h-4v20zM8 51h8v-4h-8v-4h-4v4h4v4zM8 39v-4h-4v4h4zM8 39v4h12v-4h-12z" />
    <glyph glyph-name="uniFE87" unicode="&#x625;" arabic-form="isolated" 
d="M16 7h8v-4h-8v-4h-4v4h4v4zM16 51h4v-40h-4v40zM16 -5v-4h-4v4h4zM16 -5v4h12v-4h-12z" />
    <glyph glyph-name="uniFE88" unicode="&#x625;" arabic-form="final" 
d="M8 15h8v-4h-8v-4h-4v4h4v4zM16 51h4v-32h-4v32zM8 3v-4h-4v4h4zM8 3v4h12v-4h-12zM24 15h-4v4h12v-4v-4h-8v4z" />
    <glyph glyph-name="uniFE8E" unicode="&#x627;" arabic-form="final" 
d="M16 51h4v-32h12v-8h-12v4h-4v36z" />
    <glyph glyph-name="uniFE8F" unicode="&#x628;" arabic-form="isolated" 
d="M12 7h8v-4h-8v4zM28 31h4v-12v-4h-4v-4h-24v4h-4v16h4v-12h24v12z" />
    <glyph glyph-name="uniFE90" unicode="&#x628;" arabic-form="final" 
d="M12 7h8v-4h-8v4zM28 31h4v-12v-4h-4v-4h-24v4h-4v16h4v-12h24v12z" />
    <glyph glyph-name="uniFE91" unicode="&#x628;" arabic-form="initial" 
d="M20 7h8v-4h-8v4zM28 35h4v-16h-4v-4h-4v-4h-24v4v4h24v12h4v4z" />
    <glyph glyph-name="uniFE92" unicode="&#x628;" arabic-form="medial" 
d="M12 7h8v-4h-8v4zM16 31h4v-12h12v-4v-4h-12v4h-4v-4h-16v4v4h16v12z" />
    <glyph glyph-name="uniFE93" unicode="&#x629;" arabic-form="isolated" 
d="M16 35h12v-4h4v-4v-8v-4h-4v-4h-12v4h-4v12v4h4v4zM24 43h8v-4h-8v4zM8 43h8v-4h-8v4zM28 19v8h-12v-8h12z" />
    <glyph glyph-name="uniFE94" unicode="&#x629;" arabic-form="final" 
d="M16 43h4v-12v-4v-4v-4h12v-8h-12v4h-4v8h-4v-4h-8v4h-4v8v4h4v4h12v4zM20 51h8v-4h-8v4zM8 51h8v-4h-8v4zM16 27v4h-12v-4h12z" />
    <glyph glyph-name="uniFE95" unicode="&#x62a;" arabic-form="isolated" 
d="M28 31h4v-12v-4h-4v-4h-24v4h-4v16h4v-12h24v12zM20 39h8v-4h-8v4zM8 39h8v-4h-8v4z" />
    <glyph glyph-name="uniFE96" unicode="&#x62a;" arabic-form="final" 
d="M28 31h4v-12v-4h-4v-4h-24v4h-4v16h4v-12h24v12zM20 39h8v-4h-8v4zM8 39h8v-4h-8v4z" />
    <glyph glyph-name="uniFE97" unicode="&#x62a;" arabic-form="initial" 
d="M20 35h4v-16h-4v-4h-4v-4h-16v4v4h16v12h4v4zM24 43h8v-4h-8v4zM8 43h8v-4h-8v4z" />
    <glyph glyph-name="uniFE98" unicode="&#x62a;" arabic-form="medial" 
d="M16 31h4v-12h12v-4v-4h-12v4h-4v-4h-16v4v4h16v12zM20 39h8v-4h-8v4zM8 39h8v-4h-8v4z" />
    <glyph glyph-name="uniFE99" unicode="&#x62b;" arabic-form="isolated" 
d="M28 31h4v-12v-4h-4v-4h-24v4h-4v16h4v-12h24v12zM20 39h8v-4h-8v4zM4 39h8v-4h-8v4zM12 47h8v-4h-8v4z" />
    <glyph glyph-name="uniFE9A" unicode="&#x62b;" arabic-form="final" 
d="M28 31h4v-12v-4h-4v-4h-24v4h-4v16h4v-12h24v12zM20 39h8v-4h-8v4zM4 39h8v-4h-8v4zM12 47h8v-4h-8v4z" />
    <glyph glyph-name="uniFE9B" unicode="&#x62b;" arabic-form="initial" 
d="M20 35h4v-16h-4v-4h-4v-4h-16v4v4h16v12h4v4zM24 43h8v-4h-8v4zM8 43h8v-4h-8v4zM16 51h8v-4h-8v4z" />
    <glyph glyph-name="uniFE9C" unicode="&#x62b;" arabic-form="medial" 
d="M16 31h4v-12h12v-4v-4h-12v4h-4v-4h-16v4v4h16v12zM20 39h8v-4h-8v4zM4 39h8v-4h-8v4zM12 47h8v-4h-8v4z" />
    <glyph glyph-name="uniFE9E" unicode="&#x62c;" arabic-form="final" 
d="M12 15h8v-4h-8v4zM4 39h16v-4h4v-4h4v-4h4v-4h-4v-4h4v-4v-4h-4v4h-4v4h-16v-4h-4v-4h4v-4h20v-4h-4v-4h-16v4h-4v4h-4v8v4h4v4h4v4h12v4h-4v4h-12v4z" />
    <glyph glyph-name="uniFE9F" unicode="&#x62c;" arabic-form="initial" 
d="M12 7h8v-4h-8v4zM8 31h16v-4h4v-4h4v-8h-4v-4h-28v4v4h24v4h-4v4h-8v-4h-8v4h4v4z" />
    <glyph glyph-name="uniFEA0" unicode="&#x62c;" arabic-form="medial" 
d="M12 7h8v-4h-8v4zM8 31h16v-4h4v-4h4v-8h-4v-4h-28v4v4h24v4h-4v4h-8v-4h-8v4h4v4z" />
    <glyph glyph-name="uniFEA1" unicode="&#x62d;" arabic-form="isolated" 
d="M4 39h16v-4h4v-4h4v-4h4v-4h-4v-4h-20v-4h-4v-4h4v-4h20v-4h-4v-4h-16v4h-4v4h-4v8v4h4v4h4v4h12v4h-4v4h-12v4z" />
    <glyph glyph-name="uniFEA2" unicode="&#x62d;" arabic-form="final" 
d="M4 39h16v-4h4v-4h4v-4h4v-4h-4v-4h4v-4v-4h-4v4h-4v4h-16v-4h-4v-4h4v-4h20v-4h-4v-4h-16v4h-4v4h-4v8v4h4v4h4v4h12v4h-4v4h-12v4z" />
    <glyph glyph-name="uniFEA3" unicode="&#x62d;" arabic-form="initial" 
d="M8 31h16v-4h4v-4h4v-8h-4v-4h-28v4v4h24v4h-4v4h-8v-4h-8v4h4v4z" />
    <glyph glyph-name="uniFEA4" unicode="&#x62d;" arabic-form="medial" 
d="M8 31h16v-4h4v-4h4v-8h-4v-4h-28v4v4h24v4h-4v4h-8v-4h-8v4h4v4z" />
    <glyph glyph-name="uniFEA9" unicode="&#x62f;" arabic-form="isolated" 
d="M12 39h12v-4h4v-4h4v-12h-4v-4h-4v-4h-16v4h-4v4h20v4h4v4h-4v4h-12v8z" />
    <glyph glyph-name="uniFEAA" unicode="&#x62f;" arabic-form="final" 
d="M8 35h8v-4h4v-4h4v-4h4v-4h4v-4v-4h-8v4h-4v-4h-20v4v4h20v4h-4v4h-8v8z" />
    <glyph glyph-name="uniFEAB" unicode="&#x630;" arabic-form="isolated" 
d="M12 39h12v-4h4v-4h4v-12h-4v-4h-4v-4h-16v4h-4v4h20v4h4v4h-4v4h-12v8zM16 47h8v-4h-8v4z" />
    <glyph glyph-name="uniFEAC" unicode="&#x630;" arabic-form="final" 
d="M8 35h8v-4h4v-4h4v-4h4v-4h4v-4v-4h-8v4h-4v-4h-20v4v4h20v4h-4v4h-8v8zM8 43h8v-4h-8v4z" />
    <glyph glyph-name="uniFEAD" unicode="&#x631;" arabic-form="isolated" 
d="M24 31h4v-4h4v-16h-4v-4h-4v-4h-4v-4h-12v4h-4v4h20v4h4v8h-4v4h-4v4h4v4z" />
    <glyph glyph-name="uniFEAE" unicode="&#x631;" arabic-form="final" 
d="M12 31h4v-8h4v-4h12v-4v-4h-12v4h-4v-4h-4v-8h-4v-4h-8v4v4h8v4v4h4v16z" />
    <glyph glyph-name="uniFEAF" unicode="&#x632;" arabic-form="isolated" 
d="M24 31h4v-4h4v-16h-4v-4h-4v-4h-4v-4h-12v4h-4v4h20v4h4v8h-4v4h-4v4h4v4zM20 39h8v-4h-8v4z" />
    <glyph glyph-name="uniFEB0" unicode="&#x632;" arabic-form="final" 
d="M12 31h4v-8h4v-4h12v-4v-4h-12v4h-4v-4h-4v-8h-4v-4h-8v4v4h8v4v4h4v16zM12 39h8v-4h-8v4z" />
    <glyph glyph-name="uniFEB1" unicode="&#x633;" arabic-form="isolated" 
d="M0 31h4v-12h16v4h-4v4h-4v4v8h4v-8h4v4h4v-4h4v4v4h4v-4v-4v-4h-4v-4h-4v4h-4v-4h4v-4v-4h-4v-4h-16v4h-4v16z" />
    <glyph glyph-name="uniFEB2" unicode="&#x633;" arabic-form="final" 
d="M0 31h4v-12h16v4h-4v4h-4v4v8h4v-8h4v4h4v-4h4v4v4h4v-4v-4v-4h-4v-4h-4v4h-4v-4h4v-4v-4h-4v-4h-16v4h-4v16z" />
    <glyph glyph-name="uniFEB3" unicode="&#x633;" arabic-form="initial" 
d="M20 27h4v-8h4v8v4h4v-4v-8v-4h-4v-4h-4v4h-4v-4h-4v4h-4v-4h-12v4v4h12v12h4v-12h4v8z" />
    <glyph glyph-name="uniFEB4" unicode="&#x633;" arabic-form="medial" 
d="M20 27h4v-8h4v8v4h4v-4v-8v-4h-4v-4h-4v4h-4v-4h-4v4h-4v-4h-12v4v4h12v12h4v-12h4v8z" />
    <glyph glyph-name="uniFEB5" unicode="&#x634;" arabic-form="isolated" 
d="M0 27h4v-8h16v4h-8v4v8h4v-8h4v4h4v-4h4v4v4h4v-4v-4v-4h-8v-4v-4h-4v-4h-16v4h-4v12zM24 43h8v-4h-8v4zM8 43h8v-4h-8v4zM16 51h8v-4h-8v4z" />
    <glyph glyph-name="uniFEB6" unicode="&#x634;" arabic-form="final" 
d="M0 27h4v-8h16v4h-8v4v8h4v-8h4v4h4v-4h4v4v4h4v-4v-4v-4h-8v-4v-4h-4v-4h-16v4h-4v12zM24 43h8v-4h-8v4zM8 43h8v-4h-8v4zM16 51h8v-4h-8v4z" />
    <glyph glyph-name="uniFEB7" unicode="&#x634;" arabic-form="initial" 
d="M20 27h4v-8h4v8v4h4v-4v-8v-4h-4v-4h-4v4h-4v-4h-4v4h-4v-4h-12v4v4h12v12h4v-12h4v8zM24 39h8v-4h-8v4zM8 39h8v-4h-8v4zM16 47h8v-4h-8v4z" />
    <glyph glyph-name="uniFEB9" unicode="&#x635;" arabic-form="isolated" 
d="M0 31h4v-12h16v4h-4v4h-4v4v4h-4v4h4v4h16v-4h4v-4v-4h-4v-4h-8v-4h4v-4v-4h-4v-4h-16v4h-4v16zM28 35v4h-12v-4h12z" />
    <glyph glyph-name="uniFEBA" unicode="&#x635;" arabic-form="final" 
d="M0 31h4v-12h16v4h-4v4h-4v4v4h-4v4h4v4h16v-4h4v-4v-4h-4v-4h-8v-4h4v-4v-4h-4v-4h-16v4h-4v16zM28 35v4h-12v-4h12z" />
    <glyph glyph-name="uniFEBB" unicode="&#x635;" arabic-form="initial" 
d="M8 27h4v-4h4v4h4v-4h-4v-4h12v8h-8v4h4v4h4v-4h4v-4v-8h-4v-4h-4v-4h-12v4h-4v-4h-8v4v4h8v8z" />
    <glyph glyph-name="uniFEBC" unicode="&#x635;" arabic-form="medial" 
d="M8 27h4v-4h4v4h4v-4h-4v-4h12v8h-8v4h4v4h4v-4h4v-4v-8h-4v-4h-4v-4h-12v4h-4v-4h-8v4v4h8v8z" />
    <glyph glyph-name="uniFEC1" unicode="&#x637;" arabic-form="isolated" 
d="M20 35h8v-4h4v-8v-4v-4h-4v-4h-28v4v4h8v4v28h4v-24h4v4h4v4zM28 19v4v4h-8v-4h-4v-4h12z" />
    <glyph glyph-name="uniFEC2" unicode="&#x637;" arabic-form="final" 
d="M20 35h8v-4h4v-8v-4v-4h-4v-4h-28v4v4h8v4v28h4v-24h4v4h4v4zM28 19v4v4h-8v-4h-4v-4h12z" />
    <glyph glyph-name="uniFEC3" unicode="&#x637;" arabic-form="initial" 
d="M20 35h8v-4h4v-8v-4v-4h-4v-4h-28v4v4h8v4v28h4v-24h4v4h4v4zM28 19v4v4h-8v-4h-4v-4h12z" />
    <glyph glyph-name="uniFEC4" unicode="&#x637;" arabic-form="medial" 
d="M20 35h8v-4h4v-8v-4v-4h-4v-4h-28v4v4h8v4v28h4v-24h4v4h4v4zM20 47h8v-4h-8v4zM28 19v4v4h-8v-4h-4v-4h12z" />
    <glyph glyph-name="uniFEC5" unicode="&#x638;" arabic-form="isolated" 
d="M20 35h8v-4h4v-8v-4v-4h-4v-4h-28v4v4h8v4v28h4v-24h4v4h4v4zM20 47h8v-4h-8v4zM28 19v4v4h-8v-4h-4v-4h12z" />
    <glyph glyph-name="uniFEC6" unicode="&#x638;" arabic-form="final" 
d="M20 35h8v-4h4v-8v-4v-4h-4v-4h-28v4v4h8v4v28h4v-24h4v4h4v4zM20 47h8v-4h-8v4zM28 19v4v4h-8v-4h-4v-4h12z" />
    <glyph glyph-name="uniFEC9" unicode="&#x639;" arabic-form="isolated" 
d="M28 15h4v-8h-4v-4h-4v-4h-16v4h-4v12v4h4v4h-4v8v4h4v4h12v-4h4v-4h-16v-4h16v-4h-4v-4h-8v-4h-4v-4h4v-4h12v4h4v4z" />
    <glyph glyph-name="uniFECA" unicode="&#x639;" arabic-form="final" 
d="M8 39h12v-4h4v-4v-4v-4h4v-4h4v-4v-4h-4v-4v-4h-4v-4h-16v4h-4v12v4h4v4h-4v8v4h4v4zM28 11v4h-4v4h-12v-4h-4v-4h4v-4h12v4h4zM20 27v4h-12v-4h12z" />
    <glyph glyph-name="uniFECB" unicode="&#x639;" arabic-form="initial" 
d="M16 35h12v-4h4v-4h-16v-8h16v-4h-4v-4h-12v4h-4v-4h-12v4v4h12v8v4h4v4z" />
    <glyph glyph-name="uniFECC" unicode="&#x639;" arabic-form="medial" 
d="M8 35h20v-8v-4h-4v-4h8v-4v-4h-12v4h-4v-4h-16v4v4h12v4h-4v4v8zM24 23v4h-12v-4h4v-4h4v4h4z" />
    <glyph glyph-name="uniFECD" unicode="&#x63a;" arabic-form="isolated" 
d="M28 15h4v-8h-4v-4h-4v-4h-16v4h-4v12v4h4v4h-4v8v4h4v4h12v-4h4v-4h-16v-4h16v-4h-4v-4h-8v-4h-4v-4h4v-4h12v4h4v4zM8 47h8v-4h-8v4z" />
    <glyph glyph-name="uniFECE" unicode="&#x63a;" arabic-form="final" 
d="M8 39h12v-4h4v-4v-4v-4h4v-4h4v-4v-4h-4v-4v-4h-4v-4h-16v4h-4v12v4h4v4h-4v8v4h4v4zM8 47h8v-4h-8v4zM28 11v4h-4v4h-12v-4h-4v-4h4v-4h12v4h4zM20 27v4h-12v-4h12z" />
    <glyph glyph-name="uniFECF" unicode="&#x63a;" arabic-form="initial" 
d="M16 35h12v-4h4v-4h-16v-8h16v-4h-4v-4h-12v4h-4v-4h-12v4v4h12v8v4h4v4zM16 43h8v-4h-8v4z" />
    <glyph glyph-name="uniFED0" unicode="&#x63a;" arabic-form="medial" 
d="M8 35h20v-8v-4h-4v-4h8v-4v-4h-12v4h-4v-4h-16v4v4h12v4h-4v4v8zM16 43h8v-4h-8v4zM24 23v4h-12v-4h4v-4h4v4h4z" />
    <glyph glyph-name="uniFED1" unicode="&#x641;" arabic-form="isolated" 
d="M0 23h4v-8h24v4h-16v4v4v4h4v4h12v-4h4v-4v-4v-8v-4h-4v-4h-24v4h-4v12zM16 43h8v-4h-8v4zM28 23v4h-12v-4h12z" />
    <glyph glyph-name="uniFED2" unicode="&#x641;" arabic-form="final" 
d="M0 23h4v-8h12v4h-4v4v4v4h4v4h12v-4h4v-4v-4v-4h-4v-4h4v-4v-4h-4v4h-12v-4h-12v4h-4v12zM16 43h8v-4h-8v4zM24 19v4h4v4h-12v-4h4v-4h4z" />
    <glyph glyph-name="uniFED3" unicode="&#x641;" arabic-form="initial" 
d="M16 39h8v-4h4v-4h4v-4v-12h-4v-4h-28v4v4h28v4h-16v8v4h4v4zM16 47h8v-4h-8v4zM24 27v4h-8v-4h8z" />
    <glyph glyph-name="uniFED4" unicode="&#x641;" arabic-form="medial" 
d="M12 39h12v-4h4v-4v-8h-4v-4h8v-4v-4h-8v4h-12v-4h-12v4v4h12v4h-4v8v4h4v4zM12 47h8v-4h-8v4zM20 23v4h4v4h-12v-4h4v-4h4z" />
    <glyph glyph-name="uniFED5" unicode="&#x642;" arabic-form="isolated" 
d="M0 23h4v-8h24v4h-16v4v4v4h4v4h12v-4h4v-4v-4v-8v-4h-4v-4h-24v4h-4v12zM24 43h8v-4h-8v4zM12 43h8v-4h-8v4zM28 23v4h-12v-4h12z" />
    <glyph glyph-name="uniFED6" unicode="&#x642;" arabic-form="final" 
d="M0 27h4v-8h12v4h-4v4v4v4h4v4h12v-4h4v-4v-4v-4h-4v-4h4v-4v-4h-4v4h-12v-4h-12v4h-4v12zM24 47h8v-4h-8v4zM12 47h8v-4h-8v4zM24 23v4h4v4h-12v-4h4v-4h4z" />
    <glyph glyph-name="uniFED7" unicode="&#x642;" arabic-form="initial" 
d="M16 39h8v-4h4v-4h4v-4v-12h-4v-4h-28v4v4h28v4h-16v8v4h4v4zM20 47h8v-4h-8v4zM8 47h8v-4h-8v4zM24 27v4h-8v-4h8z" />
    <glyph glyph-name="uniFED8" unicode="&#x642;" arabic-form="medial" 
d="M12 39h12v-4h4v-4v-8h-4v-4h8v-4v-4h-8v4h-12v-4h-12v4v4h12v4h-4v8v4h4v4zM20 47h8v-4h-8v4zM8 47h8v-4h-8v4zM20 23v4h4v4h-12v-4h4v-4h4z" />
    <glyph glyph-name="uniFED9" unicode="&#x643;" arabic-form="isolated" 
d="M0 27h4v-8h24v8v8v8v4v4h4v-4v-4v-8v-8v-8v-4h-4v-4h-24v4h-4v12zM12 47h8v-4h-8v-4h-4v4h4v4zM12 35v-4h-4v4h4zM12 35v4h8v-4h-8z" />
    <glyph glyph-name="uniFEDA" unicode="&#x643;" arabic-form="final" 
d="M0 27h4v-8h20v8v8v8v4v4h4v-4v-4v-8v-8v-8h4v-8h-28v4h-4v12zM12 47h8v-4h-8v-4h-4v4h4v4zM12 35v-4h-4v4h4zM12 35v4h8v-4h-8z" />
    <glyph glyph-name="uniFEDB" unicode="&#x643;" arabic-form="initial" 
d="M28 51h4v-8h-4v-4h-4v-4h-4v-4h-4v-4h12v-4h4v-8h-4v-4h-28v4v4h24v4h-12v4h-4v4h4v4h4v4h4v4h4v4h4v4z" />
    <glyph glyph-name="uniFEDC" unicode="&#x643;" arabic-form="medial" 
d="M24 51h4v-8h-4v-4h-4v-4h-4v-8h8v-4h4v-4h4v-4v-4h-4v4h-4v-4h-24v4v4h20v4h-8v4h-4v8h4v4h4v4h4v4h4v4z" />
    <glyph glyph-name="uniFEDD" unicode="&#x644;" arabic-form="isolated" 
d="M0 23h4v-12h4v-4h12v4h4v12v28h4v-28v-16h-4v-4h-4v-4h-12v4h-4v4h-4v16z" />
    <glyph glyph-name="uniFEDE" unicode="&#x644;" arabic-form="final" 
d="M0 23h4v-12h4v-4h12v4h4v12v28h4v-28v-8h4v-8h-4v-4h-8v-4h-12v4h-4v4h-4v16z" />
    <glyph glyph-name="uniFEDF" unicode="&#x644;" arabic-form="initial" 
d="M24 51h4v-36h-4v-4h-24v4v4h24v32z" />
    <glyph glyph-name="uniFEE0" unicode="&#x644;" arabic-form="medial" 
d="M12 51h4v-32h16v-4v-4h-16v4h-4v-4h-12v4v4h12v32z" />
    <glyph glyph-name="uniFEE1" unicode="&#x645;" arabic-form="isolated" 
d="M8 31h12v-4h4v-4h4v-12h-20v-12h-4v12v4h8v4h8v4h-12v-4h-4v4v4h4v4z" />
    <glyph glyph-name="uniFEE2" unicode="&#x645;" arabic-form="final" 
d="M8 31h12v-4h4v-4v-4h8v-4v-4h-8v4h-4v-4h-8v-12h-4v12v4h4v4h4v4h-8v-4h-4v4v4h4v4z" />
    <glyph glyph-name="uniFEE3" unicode="&#x645;" arabic-form="initial" 
d="M12 31h8v-4h4v-4h4v-4h4v-4v-4h-12v4h-4v-4h-16v4v4h8v4v4h4v4zM20 19v4h-8v-4h8z" />
    <glyph glyph-name="uniFEE5" unicode="&#x646;" arabic-form="isolated" 
d="M28 31h4v-12v-4h-4v-4h-24v4h-4v16h4v-12h24v12zM12 39h8v-4h-8v4z" />
    <glyph glyph-name="uniFEE6" unicode="&#x646;" arabic-form="final" 
d="M28 31h4v-12v-4h-4v-4h-24v4h-4v16h4v-12h24v12zM12 39h8v-4h-8v4z" />
    <glyph glyph-name="uniFEE7" unicode="&#x646;" arabic-form="initial" 
d="M24 35h4v-16h-4v-4h-4v-4h-20v4v4h20v12h4v4zM20 43h8v-4h-8v4z" />
    <glyph glyph-name="uniFEE8" unicode="&#x646;" arabic-form="medial" 
d="M16 31h4v-12h12v-4v-4h-12v4h-4v-4h-16v4v4h16v12zM16 39h8v-4h-8v4z" />
    <glyph glyph-name="uniFEE9" unicode="&#x647;" arabic-form="isolated" 
d="M20 31h8v-4h4v-4v-8v-4h-4v-4h-12v4h-4v12h4v-8h12v8h-12v4h4v4z" />
    <glyph glyph-name="uniFEEA" unicode="&#x647;" arabic-form="final" 
d="M20 43h4v-12v-4v-4v-4h8v-8h-8v4h-4v8h-4v-4h-8v4h-4v8v4h4v4h12v4zM20 27v4h-12v-4h12z" />
    <glyph glyph-name="uniFEEB" unicode="&#x647;" arabic-form="initial" 
d="M8 39h8v-4h12v-4h4v-4v-8v-4h-4v-4h-12v4h-4v-4h-12v4v4h8v8v4h4v4h-4v4zM24 19h4v8h-4v-8zM20 19v8h-8v-8h8z" />
    <glyph glyph-name="uniFEEC" unicode="&#x647;" arabic-form="medial" 
d="M12 35h8v-4h4v-4v-4h-4v-4h12v-4v-4h-8v-4v-4h-4v-4h-8v4h-4v8h-4v-4h-4v4v4h4v4h4v8v4h4v4zM20 7v4h-4v4h-4v-4v-4h8zM20 23v4h-8v-8h4v4h4z" />
    <glyph glyph-name="uniFEED" unicode="&#x648;" arabic-form="isolated" 
d="M16 31h8v-4h4v-4h4v-4v-8h-4v-4h-4v-4h-4v-4h-12v4h-4v4h20v4h-8v4h-4v8v4h4v4zM28 19v4h-12v-4h12z" />
    <glyph glyph-name="uniFEEE" unicode="&#x648;" arabic-form="final" 
d="M8 35h12v-4h4v-4v-4h4v-4h4v-8h-12v-4h-4v-4h-8v4v4h8v4h-8v4h-4v8v4h4v4zM20 23v4h-12v-4h12z" />
    <glyph glyph-name="uniFEEF" unicode="&#x649;" arabic-form="isolated" 
d="M0 23h4v-8h24v4h-12v4h-4v8v4h4v4h16v-8h-16v-4h12v-4h4v-8v-4h-4v-4h-24v4h-4v12z" />
    <glyph glyph-name="uniFEF0" unicode="&#x649;" arabic-form="final" 
d="M0 19h4v-8h12v4h-4v4v4v4h4v4h8v-4h4v-4h4v-4v-8h-4v8h-4v4h-8v-4h4v-4h4v-4v-4h-4v-4h-16v4h-4v12z" />
    <glyph glyph-name="uniFEF1" unicode="&#x64a;" arabic-form="isolated" 
d="M20 3h8v-4h-8v4zM8 3h8v-4h-8v4zM0 23h4v-8h24v4h-12v4h-4v8v4h4v4h16v-8h-16v-4h12v-4h4v-8v-4h-4v-4h-24v4h-4v12z" />
    <glyph glyph-name="uniFEF2" unicode="&#x64a;" arabic-form="final" 
d="M16 3h8v-4h-8v4zM4 3h8v-4h-8v4zM0 23h4v-8h12v4h-4v4v4v4h4v4h8v-4h4v-4h4v-4v-8h-4v8h-4v4h-8v-4h4v-4h4v-4v-4h-4v-4h-16v4h-4v12z" />
    <glyph glyph-name="uniFEF3" unicode="&#x64a;" arabic-form="initial" 
d="M20 7h8v-4h-8v4zM8 7h8v-4h-8v4zM28 31h4v-16h-4v-4h-28v4v4h28v12z" />
    <glyph glyph-name="uniFEF4" unicode="&#x64a;" arabic-form="medial" 
d="M20 7h8v-4h-8v4zM8 7h8v-4h-8v4zM16 27h4v-8h12v-4v-4h-12v4h-4v-4h-16v4v4h16v8z" />
    <glyph glyph-name=".notdef" 
d="M2 0v42h16v-42h-16zM4 2h12v38h-12v-38z" />
    <glyph glyph-name=".null" horiz-adv-x="0" 
 />
    <glyph glyph-name="nonmarkingreturn" 
 />
    <glyph glyph-name="space" unicode=" " 
d="M0 51z" />
    <glyph glyph-name="exclam" unicode="!" 
d="M12 7h8v-8h-8v8zM12 47h8v-32h-8v32z" />
    <glyph glyph-name="quotedbl" unicode="&#x22;" 
d="M20 47h8v-12h-8v12zM4 47h8v-12h-8v12z" />
    <glyph glyph-name="numbersign" unicode="#" 
d="M16 43h8v-12h4v-4h-4v-12h4v-4h-4v-12h-8v12h-4v-12h-8v12h-4v4h4v12h-4v4h4v12h8v-12h4v12zM16 15v12h-4v-12h4z" />
    <glyph glyph-name="dollar" unicode="$" 
d="M4 11h8v-4h8v4v4h-4v4h-4v4h-4v4h-4v8h4v4h4v8h8v-8h4v-4h4v-4h-8v4h-8v-8h4v-4h4v-4h4v-4h4v-4v-4h-4v-4h-4v-8h-8v8h-4v4h-4v4z" />
    <glyph glyph-name="percent" unicode="%" 
d="M20 11h8v-8v-4h-8v4v8zM0 39h8v-12h-8v12zM20 43h8v-4v-4h-4v-8h-4v-8h-4v-8h-4v-8h-4v-8h-8v8h4v8h4v8h4v8h4v8h4v4v4z" />
    <glyph glyph-name="ampersand" unicode="&#x26;" 
d="M24 23h4v-4v-4h-4v-12h4v-4h-8v4h-4v12h-4v4h-4v-16h8v-4h-12v4h-4v16h4v4h4v4v4h-4v8h4v4h12v-4h4v-8h-4v-4h-4v-4h4v-4h4v4zM16 31v8h-4v-8h4z" />
    <glyph glyph-name="quotesingle" unicode="'" 
d="M12 47h8v-12h-4v-4h-8v4h4v12z" />
    <glyph glyph-name="parenleft" unicode="(" 
d="M16 47h8v-4h-4v-8h-4v-28h4v-8h4v-4h-8v4h-4v8h-4v28h4v8h4v4z" />
    <glyph glyph-name="parenright" unicode=")" 
d="M8 47h8v-4h4v-8h4v-28h-4v-8h-4v-4h-8v4h4v8h4v28h-4v8h-4v4z" />
    <glyph glyph-name="asterisk" unicode="*" 
d="M20 35h8v-8h-4v-4h8v-4h-8v-4h4v-8h-8v8h-8v-8h-8v8h4v4h-8v4h8v4h-4v8h8v-8h8v8z" />
    <glyph glyph-name="plus" unicode="+" 
d="M12 35h8v-12h8v-4h-8v-12h-8v12h-8v4h8v12z" />
    <glyph glyph-name="comma" unicode="," 
d="M8 11h12v-12h-4v-4h-4v-4h-8v4h4v4h4v8h-4v4z" />
    <glyph glyph-name="hyphen" unicode="-" 
d="M4 23h24v-4h-24v4z" />
    <glyph glyph-name="period" unicode="." 
d="M12 11h8v-12h-8v12z" />
    <glyph glyph-name="slash" unicode="/" 
d="M24 51h8v-8h-4v-8h-4v-8h-4v-8h-4v-8h-4v-8h-4v-8h-8v8h4v8h4v8h4v8h4v8h4v8h4v8z" />
    <glyph glyph-name="zero" unicode="0" 
d="M8 43h12v-4h4v-4h4v-12v-8v-8h-4v-4h-4v-4h-12v4h-4v4h-4v8v20h4v4h4v4zM20 7v8v8h-4v-4h-4v4h4v4h4v8h-4v4h-4v-4h-4v-16h4v-4h-4v-8h4v-4h4v4h4z" />
    <glyph glyph-name="one" unicode="1" 
d="M12 43h8v-40h8v-4h-24v4h8v28h-8v4h4v4h4v4z" />
    <glyph glyph-name="two" unicode="2" 
d="M8 43h16v-4h4v-16h-4v-4h-4v-4h-4v-4h-4v-8h16v-4h-24v12h4v4h4v4h4v4h4v16h-8v-8h-8v8h4v4z" />
    <glyph glyph-name="three" unicode="3" 
d="M4 11h8v-8h8v8v8h-8v4h8v16h-8v-8h-8v8h4v4h16v-4h4v-16h-4v-4h4v-8v-8h-4v-4h-16v4h-4v8z" />
    <glyph glyph-name="four" unicode="4" 
d="M16 43h8v-12v-4v-8h4v-4h-4v-16h-8v16h-16v12h4v4h4v4h4v4h4v4zM16 19v8v4h-4v-4h-4v-8h8z" />
    <glyph glyph-name="five" unicode="5" 
d="M4 11h8v-8h8v8v12h-16v16v4h24v-4h-16v-12h12v-4h4v-12v-8h-4v-4h-16v4h-4v8z" />
    <glyph glyph-name="six" unicode="6" 
d="M12 43h12v-4h-8v-4h-4v-8h12v-4h4v-20h-4v-4h-16v4h-4v20v12h4v4h4v4zM20 3v20h-8v-20h8z" />
    <glyph glyph-name="seven" unicode="7" 
d="M4 43h24v-16h-4v-8h-4v-20h-8v20h4v8h4v12h-16v4z" />
    <glyph glyph-name="eight" unicode="8" 
d="M8 43h16v-4h4v-16h-4v-4h4v-16h-4v-4h-16v4h-4v16h4v4h-4v16h4v4zM20 3v12h-4v4h-4v-16h8zM20 23v16h-8v-12h4v-4h4z" />
    <glyph glyph-name="nine" unicode="9" 
d="M8 43h16v-4h4v-16v-16h-4v-4h-4v-4h-12v4h8v4h4v12h-12v4h-4v16h4v4zM20 23v16h-8v-16h8z" />
    <glyph glyph-name="colon" unicode=":" 
d="M12 11h8v-12h-8v12zM12 39h8v-12h-8v12z" />
    <glyph glyph-name="semicolon" unicode=";" 
d="M8 11h12v-12h-4v-4h-4v-4h-8v4h4v4h4v8h-4v4zM12 39h8v-12h-8v12z" />
    <glyph glyph-name="less" unicode="&#x3c;" 
d="M20 39h8v-4h-4v-4h-4v-4h-4v-4h-4v-4h4v-4h4v-4h4v-4h4v-4h-8v4h-4v4h-4v4h-4v4h-4v4h4v4h4v4h4v4h4v4z" />
    <glyph glyph-name="equal" unicode="=" 
d="M4 15h24v-4h-24v4zM4 31h24v-4h-24v4z" />
    <glyph glyph-name="greater" unicode="&#x3e;" 
d="M4 39h8v-4h4v-4h4v-4h4v-4h4v-4h-4v-4h-4v-4h-4v-4h-4v-4h-8v4h4v4h4v4h4v4h4v4h-4v4h-4v4h-4v4h-4v4z" />
    <glyph glyph-name="question" unicode="?" 
d="M12 7h8v-8h-8v8zM8 47h16v-4h4v-12h-4v-4h-4v-12h-8v12h4v4h4v12h-8v-8h-8v8h4v4z" />
    <glyph glyph-name="at" unicode="@" 
d="M4 43h20v-4h4v-24h-4v-4h-12v4v12h8v12h-12v-36h16v-4h-20v4h-4v36h4v4z" />
    <glyph glyph-name="A" unicode="A" 
d="M12 43h8v-4h4v-4h4v-12v-4v-20h-8v20h-8v-20h-8v20v16h4v4h4v4zM20 23v12h-8v-12h8z" />
    <glyph glyph-name="B" unicode="B" 
d="M4 43h20v-4h4v-12h-4v-4h-4v-4h4v-4h4v-12h-4v-4h-20v20v20v4zM20 3v12h-4v4h-4v-16h8zM20 27v12h-8v-16h4v4h4z" />
    <glyph glyph-name="C" unicode="C" 
d="M20 11h8v-8h-4v-4h-16v4h-4v36h4v4h16v-4h4v-8h-8v8h-8v-36h8v8z" />
    <glyph glyph-name="D" unicode="D" 
d="M4 43h16v-4h4v-4h4v-28h-4v-4h-4v-4h-16v40v4zM20 7v28h-4v4h-4v-36h4v4h4z" />
    <glyph glyph-name="E" unicode="E" 
d="M4 43h24v-4h-16v-16h12v-4h-12v-16h16v-4h-24v20v20v4z" />
    <glyph glyph-name="F" unicode="F" 
d="M4 43h24v-4h-16v-12h12v-4h-12v-24h-8v24v16v4z" />
    <glyph glyph-name="G" unicode="G" 
d="M16 23h12v-20v-4h-20v4h-4v36h4v4h16v-4h4v-8h-8v8h-8v-36h8v16h-4v4z" />
    <glyph glyph-name="H" unicode="H" 
d="M20 43h8v-20v-4v-20h-8v20h-8v-20h-8v20v24h8v-20h8v20z" />
    <glyph glyph-name="I" unicode="I" 
d="M4 43h24v-4h-8v-36h8v-4h-24v4h8v36h-8v4z" />
    <glyph glyph-name="J" unicode="J" 
d="M4 11h8v-8h8v8v32h8v-32v-8h-4v-4h-16v4h-4v8z" />
    <glyph glyph-name="K" unicode="K" 
d="M20 43h8v-8h-4v-8h-4v-4h-4v-4h4v-4h4v-8h4v-8h-8v8h-4v8h-4v4h-4v-20h-8v20v24h8v-20h4v4h4v8h4v8z" />
    <glyph glyph-name="L" unicode="L" 
d="M4 43h8v-40h16v-4h-24v44z" />
    <glyph glyph-name="M" unicode="M" 
d="M20 43h8v-12v-4v-28h-8v28h-4v-8h-4v8h-4v-28h-8v28v16h8v-4h4v-8h4v8h4v4z" />
    <glyph glyph-name="N" unicode="N" 
d="M20 43h8v-20v-4v-20h-8v8h-4v8h-4v4h-4v-20h-8v20v24h8v-8h4v-8h4v-4h4v20z" />
    <glyph glyph-name="O" unicode="O" 
d="M8 43h16v-4h4v-36h-4v-4h-16v4h-4v36h4v4zM20 3v36h-8v-36h8z" />
    <glyph glyph-name="P" unicode="P" 
d="M4 43h20v-4h4v-16h-4v-4h-12v-20h-8v20v20v4zM20 23v16h-8v-16h8z" />
    <glyph glyph-name="Q" unicode="Q" 
d="M8 43h16v-4h4v-36h-4v-8h4v-4h-8v4h-4v4h-8v4h-4v36h4v4zM20 3v36h-8v-36h8z" />
    <glyph glyph-name="R" unicode="R" 
d="M4 43h20v-4h4v-16h-4v-4v-4h4v-16h-8v16h-4v4h-4v-20h-8v20v20v4zM20 23v16h-8v-16h8z" />
    <glyph glyph-name="S" unicode="S" 
d="M4 11h8v-8h8v8v4h-4v4h-4v4h-4v4h-4v12h4v4h16v-4h4v-8h-8v8h-8v-12h4v-4h4v-4h4v-4h4v-4v-8h-4v-4h-16v4h-4v8z" />
    <glyph glyph-name="T" unicode="T" 
d="M4 43h24v-4h-8v-40h-8v40h-8v4z" />
    <glyph glyph-name="U" unicode="U" 
d="M20 43h8v-40h-4v-4h-16v4h-4v40h8v-40h8v40z" />
    <glyph glyph-name="V" unicode="V" 
d="M20 43h8v-28h-4v-8h-4v-8h-8v8h-4v8h-4v28h8v-28h8v28z" />
    <glyph glyph-name="W" unicode="W" 
d="M12 23h4v-8h4v8v20h8v-20v-8v-4v-8v-4h-8v4h-4v8h-4v-8h-4v-4h-8v4v8v32h8v-28h4v8z" />
    <glyph glyph-name="X" unicode="X" 
d="M24 43h8v-8h-4v-4h-4v-4h-4v-12h4v-4h4v-4h4v-8h-8v8h-4v4h-8v-4h-4v-8h-8v8h4v4h4v4h4v12h-4v4h-4v4h-4v8h8v-8h4v-4h8v4h4v8z" />
    <glyph glyph-name="Y" unicode="Y" 
d="M24 43h8v-8h-4v-8h-4v-4h-4v-24h-8v24h-4v4h-4v8h-4v8h8v-8h4v-8h8v8h4v8z" />
    <glyph glyph-name="Z" unicode="Z" 
d="M4 43h24v-12h-4v-8h-4v-4h-4v-8h-4v-8h16v-4h-24v12h4v8h4v4h4v8h4v8h-16v4z" />
    <glyph glyph-name="bracketleft" unicode="[" 
d="M8 47h16v-4h-8v-44h8v-4h-16v48v4z" />
    <glyph glyph-name="backslash" unicode="\" 
d="M0 51h8v-8h4v-8h4v-8h4v-8h4v-8h4v-8h4v-8h-8v8h-4v8h-4v8h-4v8h-4v8h-4v8h-4v8z" />
    <glyph glyph-name="bracketright" unicode="]" 
d="M8 47h16v-52h-16v4h8v44h-8v4z" />
    <glyph glyph-name="asciicircum" unicode="^" 
d="M12 47h4v-4h4v-4h4v-8h4v-8h-8v8h-4v8h-4v-8h-4v-8h-8v8h4v8h4v4h4v4z" />
    <glyph glyph-name="underscore" unicode="_" 
d="M0 -9h32v-4h-32v4z" />
    <glyph glyph-name="grave" unicode="`" 
d="M12 47h8v-8h4v-4h4v-4h-8v4h-4v4h-4v8z" />
    <glyph glyph-name="a" unicode="a" 
d="M8 27h16v-4h4v-8v-12v-4h-20v4h-4v12h4v4h12v4h-12v4zM20 3v12h-8v-12h8z" />
    <glyph glyph-name="b" unicode="b" 
d="M4 43h8v-16h12v-4h4v-20h-4v-4h-20v24v20zM20 3v20h-8v-20h8z" />
    <glyph glyph-name="c" unicode="c" 
d="M20 7h8v-4h-4v-4h-16v4h-4v20h4v4h16v-4h4v-4h-8v4h-8v-20h8v4z" />
    <glyph glyph-name="d" unicode="d" 
d="M20 43h8v-20v-20v-4h-20v4h-4v20h4v4h12v16zM20 3v20h-8v-20h8z" />
    <glyph glyph-name="e" unicode="e" 
d="M8 27h16v-4h4v-8v-4h-16v-8h12v-4h-16v4h-4v8v12h4v4zM20 15v8h-8v-8h8z" />
    <glyph glyph-name="f" unicode="f" 
d="M12 43h16v-4h-12v-12h12v-4h-12v-24h-8v24h-4v4h4v12h4v4z" />
    <glyph glyph-name="g" unicode="g" 
d="M8 27h20v-4v-20v-12h-4v-4h-20v4h16v8h-12v4h-4v20h4v4zM20 3v20h-8v-20h8z" />
    <glyph glyph-name="h" unicode="h" 
d="M4 43h8v-16h12v-4h4v-24h-8v24h-8v-24h-8v24v20z" />
    <glyph glyph-name="i" unicode="i" 
d="M4 27h16v-24h8v-4h-16v24h-8v4zM12 43h8v-8h-8v8z" />
    <glyph glyph-name="j" unicode="j" 
d="M16 27h8v-36h-4v-4h-16v4h12v36zM16 43h8v-8h-8v8z" />
    <glyph glyph-name="k" unicode="k" 
d="M20 27h8v-8h-4v-4h-4v-4h4v-4h4v-8h-8v8h-4v4h-4v-12h-8v12v32h8v-28h4v4h4v8z" />
    <glyph glyph-name="l" unicode="l" 
d="M4 43h16v-40h8v-4h-16v40h-8v4z" />
    <glyph glyph-name="m" unicode="m" 
d="M16 27h8v-4h4v-4v-20h-8v20h-4v-16h-4v16h-4v-20h-8v20v8h8v-4h8v4z" />
    <glyph glyph-name="n" unicode="n" 
d="M4 27h20v-4h4v-24h-8v24h-8v-24h-8v24v4z" />
    <glyph glyph-name="o" unicode="o" 
d="M8 27h16v-4h4v-20h-4v-4h-16v4h-4v20h4v4zM20 3v20h-8v-20h8z" />
    <glyph glyph-name="p" unicode="p" 
d="M4 27h20v-4h4v-20h-4v-4h-12v-12h-8v12v24v4zM20 3v20h-8v-20h8z" />
    <glyph glyph-name="q" unicode="q" 
d="M8 27h20v-4v-20v-16h-8v12h-12v4h-4v20h4v4zM20 3v20h-8v-20h8z" />
    <glyph glyph-name="r" unicode="r" 
d="M4 27h20v-4h4v-8h-8v8h-8v-24h-8v24v4z" />
    <glyph glyph-name="s" unicode="s" 
d="M8 27h20v-4h-16v-8h12v-4h4v-8h-4v-4h-20v4h16v8h-12v4h-4v8h4v4z" />
    <glyph glyph-name="t" unicode="t" 
d="M8 39h8v-12h12v-4h-12v-20h12v-4h-16v4h-4v20h-4v4h4v12z" />
    <glyph glyph-name="u" unicode="u" 
d="M20 27h8v-24v-4h-20v4h-4v24h8v-24h8v24z" />
    <glyph glyph-name="v" unicode="v" 
d="M20 27h8v-20h-4v-4h-4v-4h-8v4h-4v4h-4v20h8v-20h8v20z" />
    <glyph glyph-name="w" unicode="w" 
d="M12 19h4v-12h4v12v8h8v-8v-12h-4v-4v-4h-8v4h-4v-4h-8v4v4h-4v20h8v-20h4v12z" />
    <glyph glyph-name="x" unicode="x" 
d="M20 27h8v-8h-4v-4h-4v-4h4v-4h4v-8h-8v8h-4v4h-4v-4h-4v-8h-8v8h4v4h4v4h-4v4h-4v8h8v-8h4v-4h4v4h4v8z" />
    <glyph glyph-name="y" unicode="y" 
d="M20 27h8v-24v-12h-4v-4h-16v4h12v8h-12v4h-4v24h8v-24h8v24z" />
    <glyph glyph-name="z" unicode="z" 
d="M4 27h24v-8h-4v-4h-4v-4h-4v-4h-4v-4h16v-4h-24v8h4v4h4v4h4v4h4v4h-16v4z" />
    <glyph glyph-name="braceleft" unicode="{" 
d="M16 47h12v-4h-8v-20h-4v-4h4v-20h8v-4h-12v4h-4v20h-12v4h12v20h4v4z" />
    <glyph glyph-name="bar" unicode="|" 
d="M12 51h8v-56h-8v56z" />
    <glyph glyph-name="braceright" unicode="}" 
d="M0 47h12v-4h4v-20h12v-4h-12v-20h-4v-4h-12v4h8v20h4v4h-4v20h-8v4z" />
    <glyph glyph-name="asciitilde" unicode="~" 
d="M24 47h4v-4v-4h-4v-4h-12v4v4h-4v-4h-4v-4h-4v4v4h4v4h12v-4v-4h4v4h4v4z" />
    <glyph glyph-name="uni007F" 
d="M16 35h12v-8h-4v-32h-4v32h-4v8zM0 51h8v-8h4v-24h-4v24h-4v-24h4v-8h-8v32v8z" />
    <glyph glyph-name="uni0080" 
d="M16 35h12v-8v-24v-8h-12v32v8zM0 51h12v-8v-8v-8v-8v-8h-12v16v16v8zM24 3v24h-4v-24h4zM8 19v8h-4v-8h4zM8 35v8h-4v-8h4z" />
    <glyph glyph-name="uni0081" 
d="M20 35h4v-8v-24h4v-8h-12v8h4v16h-4v8h4v8zM0 51h12v-8v-8v-8v-8v-8h-12v16v16v8zM8 19v8h-4v-8h4zM8 35v8h-4v-8h4z" />
    <glyph glyph-name="uni0082" 
d="M16 35h12v-8v-16h-8v-8h8v-8h-12v16v8h8v8h-8v8zM0 51h12v-8v-8v-8v-8v-8h-12v16v16v8zM8 19v8h-4v-8h4zM8 35v8h-4v-8h4z" />
    <glyph glyph-name="uni0083" 
d="M16 35h12v-8v-32h-12v8h8v8h-8v8h8v8h-8v8zM0 51h12v-8v-8v-8v-8v-8h-12v16v16v8zM8 19v8h-4v-8h4zM8 35v8h-4v-8h4z" />
    <glyph glyph-name="uni0084" 
d="M16 35h12v-8v-32h-4v32h-4v-32h-4v32v8zM0 51h12v-8h-4v-24h4v-8h-12v8h4v24h-4v8z" />
    <glyph glyph-name="uni0085" unicode="&#x85;" 
d="M16 35h4v-32h8v-8h-12v40zM0 51h12v-8v-32h-4v32h-4v-32h-4v32v8z" />
    <glyph glyph-name="uni0086" 
d="M16 35h12v-8h-8v-8h8v-24h-12v8h8v8h-8v16v8zM0 51h12v-8h-8v-8h8v-24h-12v8h8v8h-8v16v8z" />
    <glyph glyph-name="uni0087" 
d="M16 35h12v-8h-8v-8h8v-24h-12v8h8v8h-8v16v8zM0 51h12v-8h-8v-8h4v-8h-4v-8h8v-8h-12v16v16v8z" />
    <glyph glyph-name="uni0088" 
d="M16 35h12v-8h-8v-8h8v-24h-12v8h8v8h-8v16v8zM8 51h4v-16v-8v-16h-4v16h-4v-16h-4v16v24h4v-16h4v16z" />
    <glyph glyph-name="uni0089" 
d="M16 11h4v-8h4v8v16v8h4v-8v-16v-8v-8h-12v16zM8 51h4v-16v-8v-16h-4v16h-4v-16h-4v16v24h4v-16h4v16z" />
    <glyph glyph-name="uni008A" 
d="M16 35h12v-8h-8v-8h8v-24h-12v8h8v8h-8v16v8zM8 51h4v-32h-4v32zM0 51h4v-32h-4v32zM8 19v-8h-4v8h4z" />
    <glyph glyph-name="uni008B" 
d="M16 35h8v-8h4v-24h-4v24h-4v-24h4v-8h-8v32v8zM0 51h12v-8v-8v-8h-8v-16h-4v16v16v8zM8 35v8h-4v-8h4z" />
    <glyph glyph-name="uni008C" 
d="M24 35h4v-8v-24v-8h-12v32v8h4v-8v-24h4v24v8zM0 51h12v-8v-8v-8h-8v-16h-4v16v16v8zM8 35v8h-4v-8h4z" />
    <glyph glyph-name="uni008D" 
d="M16 35h12v-8h-4v-24h4v-8h-12v8h4v24h-4v8zM0 51h8v-8h4v-8h-4v8h-4v-8h4v-8h4v-16h-4v16h-4v-16h-4v16v16v8z" />
    <glyph glyph-name="uni008E" 
d="M16 35h12v-24h-8v-8h8v-8h-12v16v8h8v8h-8v8zM0 51h12v-8h-8v-8h8v-24h-12v8h8v8h-8v16v8z" />
    <glyph glyph-name="uni008F" 
d="M16 35h12v-40h-12v8h8v8h-4v8h4v8h-8v8zM0 51h12v-8h-8v-8h8v-24h-12v8h8v8h-8v16v8z" />
    <glyph glyph-name="uni0090" 
d="M16 35h12v-8h-8v-24h8v-8h-12v32v8zM0 51h8v-8h4v-24h-4v24h-4v-24h4v-8h-8v32v8z" />
    <glyph glyph-name="uni0091" 
d="M20 35h4v-8v-24h4v-8h-12v8h4v16h-4v8h4v8zM0 51h12v-8v-8v-8h-8v-16h-4v16v16v8zM8 35v8h-4v-8h4z" />
    <glyph glyph-name="uni0092" 
d="M16 35h12v-8v-16h-8v-8h8v-8h-12v16v8h8v8h-8v8zM0 51h12v-8v-8v-8h-8v-16h-4v16v16v8zM8 35v8h-4v-8h4z" />
    <glyph glyph-name="uni0093" 
d="M16 35h12v-8h-8v-8h4v-8h-4v-8h8v-8h-12v16v16v8zM0 51h12v-8h-8v-8h8v-24h-12v8h8v8h-8v16v8z" />
    <glyph glyph-name="uni0094" 
d="M16 35h12v-8h-8v-24h8v-8h-12v32v8zM0 51h12v-8h-8v-24h8v-8h-12v32v8z" />
    <glyph glyph-name="uni0095" 
d="M24 35h4v-8v-8v-16v-8h-4v8h-4v-8h-4v8v24v8h4v-8v-8h4v8v8zM8 51h4v-8v-16v-16h-4v16h-4v-16h-4v16v24h4v-8h4v8z" />
    <glyph glyph-name="uni0096" 
d="M16 35h12v-8v-8v-8h-8v-16h-4v16v16v8zM0 51h12v-8h-8v-8h8v-24h-12v8h8v8h-8v16v8zM24 19v8h-4v-8h4z" />
    <glyph glyph-name="uni0097" 
d="M16 35h12v-8v-8v-8h-8v-16h-4v16v16v8zM0 51h12v-8h-8v-8h4v-8h-4v-8h8v-8h-12v16v16v8zM24 19v8h-4v-8h4z" />
    <glyph glyph-name="uni0098" 
d="M16 35h12v-8v-8v-8v-8v-8h-12v16v16v8zM0 51h12v-8v-8v-24h-12v8h8v8h-8v16v8zM24 3v8h-4v-8h4zM24 19v8h-4v-8h4zM8 35v8h-4v-8h4z" />
    <glyph glyph-name="uni0099" 
d="M16 35h12v-8v-8v-24h-12v8h8v8h-8v16v8zM0 51h12v-8v-8v-24h-12v8h8v8h-8v16v8zM24 19v8h-4v-8h4zM8 35v8h-4v-8h4z" />
    <glyph glyph-name="uni009A" 
d="M16 35h12v-8v-8v-8v-16h-4v16h-4v-16h-4v16v16v8zM0 51h12v-8v-8v-24h-12v8h8v8h-8v16v8zM24 19v8h-4v-8h4zM8 35v8h-4v-8h4z" />
    <glyph glyph-name="uni009B" 
d="M16 35h12v-8h-8v-8h8v-24h-12v8h8v8h-8v16v8zM0 51h12v-8h-8v-24h8v-8h-12v32v8z" />
    <glyph glyph-name="uni009C" 
d="M16 35h12v-8h-4v-32h-4v32h-4v8zM0 51h12v-8h-8v-8h8v-24h-12v8h8v8h-8v16v8z" />
    <glyph glyph-name="uni009D" 
d="M16 35h12v-8h-8v-8h8v-24h-12v8h8v8h-8v16v8zM0 51h12v-8v-24v-8h-12v32v8zM8 19v24h-4v-24h4z" />
    <glyph glyph-name="uni009E" 
d="M24 35h4v-8v-16v-16h-4v16h-4v-16h-4v16v16v8h4v-8h4v8zM0 51h12v-8v-8v-8h-8v-16h-4v16v16v8zM8 35v8h-4v-8h4z" />
    <glyph glyph-name="uni009F" 
d="M16 35h12v-8v-8v-8h-8v-16h-4v16v16v8zM0 51h12v-8v-8v-8v-16h-4v16h-4v-16h-4v16v16v8zM24 19v8h-4v-8h4zM8 35v8h-4v-8h4z" />
    <glyph glyph-name="uni00A0" unicode="&#xa0;" 
d="M0 51z" />
    <glyph glyph-name="exclamdown" unicode="&#xa1;" 
d="M12 31h8v-32h-8v32zM12 47h8v-8h-8v8z" />
    <glyph glyph-name="cent" unicode="&#xa2;" 
d="M12 43h8v-8h8v-8h-8v-16h8v-8h-8v-8h-8v8h-8v8h-4v16h4v8h8v8zM12 11v16h-4v-16h4z" />
    <glyph glyph-name="sterling" unicode="&#xa3;" 
d="M20 11h8v-8h-4v-4h-24v4h4v16h-4v4h4v16h4v4h12v-4h4v-8h-8v8h-4v-16h4v-4h-4v-16h8v8z" />
    <glyph glyph-name="currency" unicode="&#xa4;" 
d="M20 43h8v-4h-4v-4h4v-12h-4v-4h4v-4h-8v4h-8v-4h-8v4h4v4h-4v12h4v4h-4v4h8v-4h8v4zM20 23v12h-8v-12h8z" />
    <glyph glyph-name="yen" unicode="&#xa5;" 
d="M24 43h8v-8h-4v-8h-4v-4h-4v-4h8v-4h-8v-4h8v-4h-8v-8h-8v8h-8v4h8v4h-8v4h8v4h-4v4h-4v8h-4v8h8v-8h4v-8h8v8h4v8z" />
    <glyph glyph-name="brokenbar" unicode="&#xa6;" 
d="M12 19h8v-24h-8v24zM12 51h8v-24h-8v24z" />
    <glyph glyph-name="section" unicode="&#xa7;" 
d="M4 3h8v-4h8v4v4h-4v4h-4v4h-4v4h-4v8h4v8h-4v8h4v4h16v-4h4v-4h-8v4h-8v-8h4v-4h4v-4h4v-4h4v-8h-4v-8h4v-4v-4h-4v-4h-16v4h-4v4zM20 15v8h-4v4h-4v-8h4v-4h4z" />
    <glyph glyph-name="dieresis" unicode="&#xa8;" 
d="M20 51h8v-8h-8v8zM4 51h8v-8h-8v8z" />
    <glyph glyph-name="copyright" unicode="&#xa9;" 
d="M12 31h12v-4h-8v-12h8v-4h-12v4h-4v12h4v4zM8 43h16v-4h4v-4h4v-4v-4v-20h-4v-4h-4v4h4v20v4v4h-4v4h-16v-4h-4v-28h-4v28h4v4h4v4zM24 3v-4h-16v4h-4v4h4v-4h16z" />
    <glyph glyph-name="ordfeminine" unicode="&#xaa;" 
d="M4 15h24v-4h-24v4zM8 47h16v-4h4v-12v-8v-4h-20v4h-4v8h4v4h12v8h-12v4zM20 23v8h-8v-8h8z" />
    <glyph glyph-name="guillemotleft" unicode="&#xab;" 
d="M24 31h8v-4h-4v-4h-4v-4h4v-4h4v-4h-8v4h-4v4h-4v4h4v4h4v4zM8 31h8v-4h-4v-4h-4v-4h4v-4h4v-4h-8v4h-4v4h-4v4h4v4h4v4z" />
    <glyph glyph-name="logicalnot" unicode="&#xac;" 
d="M0 27h28v-20h-8v16h-20v4z" />
    <glyph glyph-name="uni00AD" unicode="&#xad;" 
d="M8 23h16v-4h-16v4z" />
    <glyph glyph-name="registered" unicode="&#xae;" 
d="M8 31h12v-4h4v-4h-4v4h-8v-4h8v-4h4v-8h-4v8h-8v-8h-4v8v8v4zM8 43h16v-4h4v-4h4v-4v-4v-8v-12h-4v-4h-4v4h4v12v8v4v4h-4v4h-16v-4h-4v-28h-4v28h4v4h4v4zM24 3v-4h-16v4h-4v4h4v-4h16z" />
    <glyph glyph-name="macron" unicode="&#xaf;" 
d="M4 51h24v-4h-24v4z" />
    <glyph glyph-name="degree" unicode="&#xb0;" 
d="M8 47h16v-4h4v-8h-4v-4h-16v4h-4v8h4v4zM20 35v8h-8v-8h8z" />
    <glyph glyph-name="plusminus" unicode="&#xb1;" 
d="M4 3h24v-4h-24v4zM12 35h8v-12h8v-4h-8v-12h-8v12h-8v4h8v12z" />
    <glyph glyph-name="uni00B2" unicode="&#xb2;" 
d="M8 47h12v-4h4v-8h-4v-4h-4v-4h-4v-4h12v-4h-20v8h4v4h4v4h4v8h-4v-4h-8v4h4v4z" />
    <glyph glyph-name="uni00B3" unicode="&#xb3;" 
d="M4 27h8v-4h4v4v4h-8v4h8v8h-4v-4h-8v4h4v4h12v-4h4v-8h-4v-4h4v-4v-4h-4v-4h-12v4h-4v4z" />
    <glyph glyph-name="acute" unicode="&#xb4;" 
d="M16 51h8v-8h-4v-8h-4v-8h-8v8h4v8h4v8z" />
    <glyph glyph-name="mu" unicode="&#xb5;" 
d="M20 27h8v-24h-4v-4h-12v-8h-4v-4h-8v4h4v8v28h8v-24h8v24z" />
    <glyph glyph-name="paragraph" unicode="&#xb6;" 
d="M8 43h20v-4v-40h-4v40h-4v-40h-8v20h-4v4h-4v16h4v4z" />
    <glyph glyph-name="periodcentered" unicode="&#xb7;" 
d="M12 23h8v-4h-8v4z" />
    <glyph glyph-name="cedilla" unicode="&#xb8;" 
d="M16 -1h8v-4h4v-4h-4v-4h-12v4h8v4h-4v4z" />
    <glyph glyph-name="uni00B9" unicode="&#xb9;" 
d="M8 47h8v-28h-8v20h-4v4h4v4z" />
    <glyph glyph-name="ordmasculine" unicode="&#xba;" 
d="M4 15h24v-4h-24v4zM8 39h16v-4h4v-12h-4v-4h-16v4h-4v12h4v4zM20 23v12h-8v-12h8z" />
    <glyph glyph-name="guillemotright" unicode="&#xbb;" 
d="M16 31h8v-4h4v-4h4v-4h-4v-4h-4v-4h-8v4h4v4h4v4h-4v4h-4v4zM0 31h8v-4h4v-4h4v-4h-4v-4h-4v-4h-8v4h4v4h4v4h-4v4h-4v4z" />
    <glyph glyph-name="onequarter" unicode="&#xbc;" 
d="M24 15h4v-4v-4v-4h4v-4h-4v-4h-4v4h-8v4v4h4v-4h4v4h-4v4h4v4zM20 43h8v-8h-4v-8h-4v-8h-4v-8h-4v-8h-4v-8h-8v8h4v8h4v8h4v8h-8v8h-4v4h4v4h8v-16h4v8h4v8z" />
    <glyph glyph-name="onehalf" unicode="&#xbd;" 
d="M20 43h8v-8h-4v-8h-4v-8h-4v-8h8v-4h4v-4h-4v-4h4v-4h-12v8h4v4h-4v4h-4v-8h-4v-8h-8v8h4v8h4v8h4v8h-8v8h-4v4h4v4h8v-16h4v8h4v8z" />
    <glyph glyph-name="threequarters" unicode="&#xbe;" 
d="M24 15h4v-4v-4v-4h4v-4h-4v-4h-4v4h-8v4v4h4v-4h4v4h-4v4h4v4zM20 43h8v-8h-4v-8h-4v-8h-4v-8h-4v-8h-4v-8h-8v8h4v8h4v8h4v8h4v8h4v8zM0 43h8v-4h-8v4zM8 27v-4h-8v4h8zM8 27v4h-4v4h4v4h4v-12h-4z" />
    <glyph glyph-name="questiondown" unicode="&#xbf;" 
d="M20 11h8v-8h-4v-4h-16v4h-4v16h4v8h4v4h8v-4h-4v-8h-4v-16h8v8zM12 47h8v-8h-8v8z" />
    <glyph glyph-name="Agrave" unicode="&#xc0;" 
d="M12 39h8v-4h4v-4h4v-12v-4v-16h-8v16h-8v-16h-8v16v16h4v4h4v4zM8 51h8v-4h4v-4h-8v4h-4v4zM20 19v12h-8v-12h8z" />
    <glyph glyph-name="Aacute" unicode="&#xc1;" 
d="M12 39h8v-4h4v-4h4v-12v-4v-16h-8v16h-8v-16h-8v16v16h4v4h4v4zM16 51h8v-4h-4v-4h-8v4h4v4zM20 19v12h-8v-12h8z" />
    <glyph glyph-name="Acircumflex" unicode="&#xc2;" 
d="M12 39h8v-4h4v-4h4v-12v-4v-16h-8v16h-8v-16h-8v16v16h4v4h4v4zM12 51h8v-4h8v-4h-8v4h-8v-4h-8v4h8v4zM20 19v12h-8v-12h8z" />
    <glyph glyph-name="Atilde" unicode="&#xc3;" 
d="M12 39h8v-4h4v-4h4v-12v-4v-16h-8v16h-8v-16h-8v16v16h4v4h4v4zM20 51h8v-4h-4v-4h-12v4h-4v-4h-8v4h4v4h12v-4h4v4zM20 19v12h-8v-12h8z" />
    <glyph glyph-name="Adieresis" unicode="&#xc4;" 
d="M12 39h8v-4h4v-4h4v-12v-4v-16h-8v16h-8v-16h-8v16v16h4v4h4v4zM20 51h8v-8h-8v8zM4 51h8v-8h-8v8zM20 19v12h-8v-12h8z" />
    <glyph glyph-name="Aring" unicode="&#xc5;" 
d="M12 35h8v-4h4v-4h4v-8v-4v-16h-8v16h-8v-16h-8v16v12h4v4h4v4zM8 51h16v-4h4v-4h-4v-4h-16v4h-4v4h4v4zM20 19v8h-8v-8h8zM20 43v4h-8v-4h8z" />
    <glyph glyph-name="AE" unicode="&#xc6;" 
d="M8 43h24v-4h-8v-8v-8h4v-4h-4v-16h8v-4h-16v20h-8v-20h-8v20v12v4h4v4h4v4zM16 23v8h-8v-8h8z" />
    <glyph glyph-name="Ccedilla" unicode="&#xc7;" 
d="M20 11h8v-8h-4v-8h4v-4h-4v-4h-12v4h8v4h-4v4h-8v4h-4v36h4v4h16v-4h4v-8h-8v8h-8v-36h8v8z" />
    <glyph glyph-name="Egrave" unicode="&#xc8;" 
d="M4 39h24v-4h-16v-12h12v-4h-12v-16h16v-4h-24v20v16v4zM8 51h8v-4h4v-4h-8v4h-4v4z" />
    <glyph glyph-name="Eacute" unicode="&#xc9;" 
d="M4 39h24v-4h-16v-12h12v-4h-12v-16h16v-4h-24v20v16v4zM16 51h8v-4h-4v-4h-8v4h4v4z" />
    <glyph glyph-name="Ecircumflex" unicode="&#xca;" 
d="M4 39h24v-4h-16v-12h12v-4h-12v-16h16v-4h-24v20v16v4zM12 51h8v-4h8v-4h-8v4h-8v-4h-8v4h8v4z" />
    <glyph glyph-name="Edieresis" unicode="&#xcb;" 
d="M4 39h24v-4h-16v-12h12v-4h-12v-16h16v-4h-24v20v16v4zM20 51h8v-8h-8v8zM4 51h8v-8h-8v8z" />
    <glyph glyph-name="Igrave" unicode="&#xcc;" 
d="M4 39h24v-4h-8v-32h8v-4h-24v4h8v32h-8v4zM8 51h8v-4h4v-4h-8v4h-4v4z" />
    <glyph glyph-name="Iacute" unicode="&#xcd;" 
d="M4 39h24v-4h-8v-32h8v-4h-24v4h8v32h-8v4zM16 51h8v-4h-4v-4h-8v4h4v4z" />
    <glyph glyph-name="Icircumflex" unicode="&#xce;" 
d="M4 39h24v-4h-8v-32h8v-4h-24v4h8v32h-8v4zM12 51h8v-4h8v-4h-8v4h-8v-4h-8v4h8v4z" />
    <glyph glyph-name="Idieresis" unicode="&#xcf;" 
d="M4 39h24v-4h-8v-32h8v-4h-24v4h8v32h-8v4zM20 51h8v-8h-8v8zM4 51h8v-8h-8v8z" />
    <glyph glyph-name="Eth" unicode="&#xd0;" 
d="M4 43h16v-4h4v-4h4v-16v-12h-4v-4h-4v-4h-16v20h-4v4h4v16v4zM20 7v12v16h-4v4h-4v-16h4v-4h-4v-16h4v4h4z" />
    <glyph glyph-name="Ntilde" unicode="&#xd1;" 
d="M20 39h8v-16v-24h-8v16h-4v4h-4v4h-4v-24h-8v24v16h8v-8h4v-4h4v-4h4v16zM20 51h8v-4h-4v-4h-12v4h-4v-4h-8v4h4v4h12v-4h4v4z" />
    <glyph glyph-name="Ograve" unicode="&#xd2;" 
d="M8 39h16v-4h4v-32h-4v-4h-16v4h-4v32h4v4zM8 51h8v-4h4v-4h-8v4h-4v4zM20 3v32h-8v-32h8z" />
    <glyph glyph-name="Oacute" unicode="&#xd3;" 
d="M8 39h16v-4h4v-32h-4v-4h-16v4h-4v32h4v4zM16 51h8v-4h-4v-4h-8v4h4v4zM20 3v32h-8v-32h8z" />
    <glyph glyph-name="Ocircumflex" unicode="&#xd4;" 
d="M8 39h16v-4h4v-32h-4v-4h-16v4h-4v32h4v4zM12 51h8v-4h8v-4h-8v4h-8v-4h-8v4h8v4zM20 3v32h-8v-32h8z" />
    <glyph glyph-name="Otilde" unicode="&#xd5;" 
d="M8 39h16v-4h4v-32h-4v-4h-16v4h-4v32h4v4zM20 51h8v-4h-4v-4h-12v4h-4v-4h-8v4h4v4h12v-4h4v4zM20 3v32h-8v-32h8z" />
    <glyph glyph-name="Odieresis" unicode="&#xd6;" 
d="M8 39h16v-4h4v-32h-4v-4h-16v4h-4v32h4v4zM20 51h8v-8h-8v8zM4 51h8v-8h-8v8zM20 3v32h-8v-32h8z" />
    <glyph glyph-name="multiply" unicode="&#xd7;" 
d="M24 35h4v-8h-4v-4h-4v-4h4v-4h4v-4v-4h-4v4h-4v4h-4v4h-4v-4h-4v-4h-4v-4h-4v4v4h4v4h4v4h-4v4h-4v8h4v-4h4v-4h4v-4h4v4h4v4h4v4z" />
    <glyph glyph-name="Oslash" unicode="&#xd8;" 
d="M8 43h20v-4v-16v-4v-12v-4h-4v-4h-20v8v12v20h4v4zM20 3v4v12h-4v-12h-4v-4h8zM16 23v12h4v4h-8v-16h4z" />
    <glyph glyph-name="Ugrave" unicode="&#xd9;" 
d="M20 39h8v-36h-4v-4h-16v4h-4v36h8v-36h8v36zM8 51h8v-4h4v-4h-8v4h-4v4z" />
    <glyph glyph-name="Uacute" unicode="&#xda;" 
d="M20 39h8v-36h-4v-4h-16v4h-4v36h8v-36h8v36zM16 51h8v-4h-4v-4h-8v4h4v4z" />
    <glyph glyph-name="Ucircumflex" unicode="&#xdb;" 
d="M20 39h8v-36h-4v-4h-16v4h-4v36h8v-36h8v36zM12 51h8v-4h8v-4h-8v4h-8v-4h-8v4h8v4z" />
    <glyph glyph-name="Udieresis" unicode="&#xdc;" 
d="M20 39h8v-36h-4v-4h-16v4h-4v36h8v-36h8v36zM20 51h8v-8h-8v8zM4 51h8v-8h-8v8z" />
    <glyph glyph-name="Yacute" unicode="&#xdd;" 
d="M20 39h8v-16h-4v-4h-4v-20h-8v20h-4v4h-4v16h8v-16h8v16zM16 51h8v-4h-4v-4h-8v4h4v4z" />
    <glyph glyph-name="Thorn" unicode="&#xde;" 
d="M0 43h8v-8h16v-4h4v-20h-4v-4h-16v-8h-8v8v24v12zM20 11v20h-12v-20h12z" />
    <glyph glyph-name="germandbls" unicode="&#xdf;" 
d="M4 43h16v-4h4v-12h-4v-4h4v-4h4v-16h-4v-4h-8v4h4v16h-4v4h-4v4h4v12h-8v-40h-8v40h4v4z" />
    <glyph glyph-name="agrave" unicode="&#xe0;" 
d="M8 27h16v-4h4v-8v-12v-4h-20v4h-4v12h4v4h12v4h-12v4zM8 43h8v-4h4v-4h-8v4h-4v4zM20 3v12h-8v-12h8z" />
    <glyph glyph-name="aacute" unicode="&#xe1;" 
d="M8 27h16v-4h4v-8v-12v-4h-20v4h-4v12h4v4h12v4h-12v4zM16 43h8v-4h-4v-4h-8v4h4v4zM20 3v12h-8v-12h8z" />
    <glyph glyph-name="acircumflex" unicode="&#xe2;" 
d="M8 27h16v-4h4v-8v-12v-4h-20v4h-4v12h4v4h12v4h-12v4zM12 47h8v-4h4v-4h4v-4h-8v4h-8v-4h-8v4h4v4h4v4zM20 3v12h-8v-12h8z" />
    <glyph glyph-name="atilde" unicode="&#xe3;" 
d="M8 27h16v-4h4v-8v-12v-4h-20v4h-4v12h4v4h12v4h-12v4zM20 43h8v-4h-4v-4h-12v4h-4v-4h-8v4h4v4h12v-4h4v4zM20 3v12h-8v-12h8z" />
    <glyph glyph-name="adieresis" unicode="&#xe4;" 
d="M8 27h16v-4h4v-8v-12v-4h-20v4h-4v12h4v4h12v4h-12v4zM20 43h8v-8h-8v8zM4 43h8v-8h-8v8zM20 3v12h-8v-12h8z" />
    <glyph glyph-name="aring" unicode="&#xe5;" 
d="M8 27h16v-4h4v-8v-12v-4h-20v4h-4v12h4v4h12v4h-12v4zM8 43h16v-4h4v-4h-4v-4h-16v4h-4v4h4v4zM20 3v12h-8v-12h8zM20 35v4h-8v-4h8z" />
    <glyph glyph-name="ae" unicode="&#xe6;" 
d="M4 27h24v-4h4v-8v-4h-12v-8h-4v-4h-12v4h-4v8h4v4h8v8h-8v4zM20 3h12v-4h-12v4zM12 3v8h-4v-8h4zM24 15v8h-4v-8h4z" />
    <glyph glyph-name="ccedilla" unicode="&#xe7;" 
d="M20 7h8v-4h-4v-8h4v-4h-4v-4h-12v4h8v4h-4v4h-8v4h-4v20h4v4h16v-4h4v-4h-8v4h-8v-20h8v4z" />
    <glyph glyph-name="egrave" unicode="&#xe8;" 
d="M8 27h16v-4h4v-8v-4h-16v-8h12v-4h-16v4h-4v8v12h4v4zM8 43h8v-4h4v-4h-8v4h-4v4zM20 15v8h-8v-8h8z" />
    <glyph glyph-name="eacute" unicode="&#xe9;" 
d="M8 27h16v-4h4v-8v-4h-16v-8h12v-4h-16v4h-4v8v12h4v4zM16 43h8v-4h-4v-4h-8v4h4v4zM20 15v8h-8v-8h8z" />
    <glyph glyph-name="ecircumflex" unicode="&#xea;" 
d="M8 27h16v-4h4v-8v-4h-16v-8h12v-4h-16v4h-4v8v12h4v4zM12 47h8v-4h4v-4h4v-4h-8v4h-8v-4h-8v4h4v4h4v4zM20 15v8h-8v-8h8z" />
    <glyph glyph-name="edieresis" unicode="&#xeb;" 
d="M8 27h16v-4h4v-8v-4h-16v-8h12v-4h-16v4h-4v8v12h4v4zM20 43h8v-8h-8v8zM4 43h8v-8h-8v8zM20 15v8h-8v-8h8z" />
    <glyph glyph-name="igrave" unicode="&#xec;" 
d="M8 27h12v-24h4v-4h-16v4h4v20h-4v4zM8 43h8v-4h4v-4h-8v4h-4v4z" />
    <glyph glyph-name="iacute" unicode="&#xed;" 
d="M8 27h12v-24h4v-4h-16v4h4v20h-4v4zM16 43h8v-4h-4v-4h-8v4h4v4z" />
    <glyph glyph-name="icircumflex" unicode="&#xee;" 
d="M8 27h12v-24h4v-4h-16v4h4v20h-4v4zM12 47h8v-4h4v-4h4v-4h-8v4h-8v-4h-8v4h4v4h4v4z" />
    <glyph glyph-name="idieresis" unicode="&#xef;" 
d="M8 27h12v-24h4v-4h-16v4h4v20h-4v4zM20 43h8v-8h-8v8zM4 43h8v-8h-8v8z" />
    <glyph glyph-name="eth" unicode="&#xf0;" 
d="M20 47h8v-4h-4v-8h4v-12v-20h-4v-4h-16v4h-4v20h4v4h12v8h-4v-4h-8v4h4v8h-4v4h8v-4h4v4zM20 3v20h-8v-20h8z" />
    <glyph glyph-name="ntilde" unicode="&#xf1;" 
d="M4 27h20v-4h4v-24h-8v24h-8v-24h-8v24v4zM20 43h8v-4h-4v-4h-12v4h-4v-4h-8v4h4v4h12v-4h4v4z" />
    <glyph glyph-name="ograve" unicode="&#xf2;" 
d="M8 27h16v-4h4v-20h-4v-4h-16v4h-4v20h4v4zM8 43h8v-4h4v-4h-8v4h-4v4zM20 3v20h-8v-20h8z" />
    <glyph glyph-name="oacute" unicode="&#xf3;" 
d="M8 27h16v-4h4v-20h-4v-4h-16v4h-4v20h4v4zM16 43h8v-4h-4v-4h-8v4h4v4zM20 3v20h-8v-20h8z" />
    <glyph glyph-name="ocircumflex" unicode="&#xf4;" 
d="M8 27h16v-4h4v-20h-4v-4h-16v4h-4v20h4v4zM12 47h8v-4h4v-4h4v-4h-8v4h-8v-4h-8v4h4v4h4v4zM20 3v20h-8v-20h8z" />
    <glyph glyph-name="otilde" unicode="&#xf5;" 
d="M8 27h16v-4h4v-20h-4v-4h-16v4h-4v20h4v4zM20 43h8v-4h-4v-4h-12v4h-4v-4h-8v4h4v4h12v-4h4v4zM20 3v20h-8v-20h8z" />
    <glyph glyph-name="odieresis" unicode="&#xf6;" 
d="M8 27h16v-4h4v-20h-4v-4h-16v4h-4v20h4v4zM20 43h8v-8h-8v8zM4 43h8v-8h-8v8zM20 3v20h-8v-20h8z" />
    <glyph glyph-name="divide" unicode="&#xf7;" 
d="M12 15h8v-8h-8v8zM4 23h24v-4h-24v4zM12 35h8v-8h-8v8z" />
    <glyph glyph-name="oslash" unicode="&#xf8;" 
d="M28 27h4v-4h-4v-8v-4v-4v-4h-4v-4h-16v4h-4v-4h-4v4h4v4v4v12h4v4h16v-4h4v4zM20 3v4v4h-4v-4h-4v-4h8zM16 15v4h4v4h-8v-8h4z" />
    <glyph glyph-name="ugrave" unicode="&#xf9;" 
d="M20 27h8v-24v-4h-20v4h-4v24h8v-24h8v24zM8 43h8v-4h4v-4h-8v4h-4v4z" />
    <glyph glyph-name="uacute" unicode="&#xfa;" 
d="M20 27h8v-24v-4h-20v4h-4v24h8v-24h8v24zM16 43h8v-4h-4v-4h-8v4h4v4z" />
    <glyph glyph-name="ucircumflex" unicode="&#xfb;" 
d="M20 27h8v-24v-4h-20v4h-4v24h8v-24h8v24zM12 47h8v-4h4v-4h4v-4h-8v4h-8v-4h-8v4h4v4h4v4z" />
    <glyph glyph-name="udieresis" unicode="&#xfc;" 
d="M20 27h8v-24v-4h-20v4h-4v24h8v-24h8v24zM20 43h8v-8h-8v8zM4 43h8v-8h-8v8z" />
    <glyph glyph-name="yacute" unicode="&#xfd;" 
d="M20 27h8v-24v-12h-4v-4h-16v4h12v8h-12v4h-4v24h8v-24h8v24zM16 43h8v-4h-4v-4h-8v4h4v4z" />
    <glyph glyph-name="thorn" unicode="&#xfe;" 
d="M4 39h8v-12h12v-4h4v-20h-4v-4h-12v-12h-8v12v24v16zM20 3v20h-8v-20h8z" />
    <glyph glyph-name="ydieresis" unicode="&#xff;" 
d="M20 27h8v-24v-12h-4v-4h-16v4h12v8h-12v4h-4v24h8v-24h8v24zM20 43h8v-8h-8v8zM4 43h8v-8h-8v8z" />
    <glyph glyph-name="Amacron" unicode="&#x100;" 
d="M12 43h8v-4h4v-4h4v-12v-4v-20h-8v20h-8v-20h-8v20v16h4v4h4v4zM4 51h24v-4h-24v4zM20 23v12h-8v-12h8z" />
    <glyph glyph-name="amacron" unicode="&#x101;" 
d="M8 27h16v-4h4v-8v-12v-4h-20v4h-4v12h4v4h12v4h-12v4zM4 39h24v-4h-24v4zM20 3v12h-8v-12h8z" />
    <glyph glyph-name="Abreve" unicode="&#x102;" 
d="M12 39h8v-4h4v-4h4v-12v-4v-16h-8v16h-8v-16h-8v16v16h4v4h4v4zM20 51h8v-4h-4v-4h-16v4h-4v4h8v-4h8v4zM20 19v12h-8v-12h8z" />
    <glyph glyph-name="abreve" unicode="&#x103;" 
d="M8 27h16v-4h4v-8v-12v-4h-20v4h-4v12h4v4h12v4h-12v4zM20 43h8v-4h-4v-4h-16v4h-4v4h8v-4h8v4zM20 3v12h-8v-12h8z" />
    <glyph glyph-name="Aogonek" unicode="&#x104;" 
d="M12 43h8v-4h4v-4h4v-12v-4v-20h-4v-4h-4v-4h8v-4h-12v4h-4v4h4v4h4v20h-8v-20h-8v20v16h4v4h4v4zM20 23v12h-8v-12h8z" />
    <glyph glyph-name="aogonek" unicode="&#x105;" 
d="M8 27h16v-4h4v-8v-12v-4h-4v-4h-4v-4h8v-4h-12v4h-4v4h4v4h-8v4h-4v12h4v4h12v4h-12v4zM20 3v12h-8v-12h8z" />
    <glyph glyph-name="Cacute" unicode="&#x106;" 
d="M20 11h8v-8h-4v-4h-16v4h-4v32h4v4h16v-4h4v-8h-8v8h-8v-32h8v8zM16 51h8v-4h-4v-4h-8v4h4v4z" />
    <glyph glyph-name="cacute" unicode="&#x107;" 
d="M20 7h8v-4h-4v-4h-16v4h-4v20h4v4h16v-4h4v-4h-8v4h-8v-20h8v4zM16 43h8v-4h-4v-4h-8v4h4v4z" />
    <glyph glyph-name="Ccircumflex" unicode="&#x108;" 
d="M20 11h8v-8h-4v-4h-16v4h-4v32h4v4h16v-4h4v-8h-8v8h-8v-32h8v8zM12 51h8v-4h8v-4h-8v4h-8v-4h-8v4h8v4z" />
    <glyph glyph-name="ccircumflex" unicode="&#x109;" 
d="M20 7h8v-4h-4v-4h-16v4h-4v20h4v4h16v-4h4v-4h-8v4h-8v-20h8v4zM12 47h8v-4h4v-4h4v-4h-8v4h-8v-4h-8v4h4v4h4v4z" />
    <glyph glyph-name="Cdotaccent" unicode="&#x10a;" 
d="M20 11h8v-8h-4v-4h-16v4h-4v32h4v4h16v-4h4v-8h-8v8h-8v-32h8v8zM12 51h8v-8h-8v8z" />
    <glyph glyph-name="cdotaccent" unicode="&#x10b;" 
d="M20 7h8v-4h-4v-4h-16v4h-4v20h4v4h16v-4h4v-4h-8v4h-8v-20h8v4zM12 43h8v-8h-8v8z" />
    <glyph glyph-name="Ccaron" unicode="&#x10c;" 
d="M20 11h8v-8h-4v-4h-16v4h-4v32h4v4h16v-4h4v-8h-8v8h-8v-32h8v8zM20 51h8v-4h-8v4zM4 51h8v-4h-8v4zM20 47v-4h-8v4h8z" />
    <glyph glyph-name="ccaron" unicode="&#x10d;" 
d="M20 7h8v-4h-4v-4h-16v4h-4v20h4v4h16v-4h4v-4h-8v4h-8v-20h8v4zM20 47h8v-4h-4v-4h-4v-4h-8v4h-4v4h-4v4h8v-4h8v4z" />
    <glyph glyph-name="Dcaron" unicode="&#x10e;" 
d="M4 39h16v-4h4v-4h4v-24h-4v-4h-4v-4h-16v36v4zM20 51h8v-4h-8v4zM4 51h8v-4h-8v4zM20 7v24h-4v4h-4v-32h4v4h4zM20 47v-4h-8v4h8z" />
    <glyph glyph-name="dcaron" unicode="&#x10f;" 
d="M24 43h4v-12h-4v12zM12 43h8v-20v-20v-4h-16v4h-4v20h4v4h8v16zM12 3v20h-4v-20h4z" />
    <glyph glyph-name="Dcroat" unicode="&#x110;" 
d="M4 43h16v-4h4v-4h4v-16v-12h-4v-4h-4v-4h-16v20h-4v4h4v16v4zM20 7v12v16h-4v4h-4v-16h4v-4h-4v-16h4v4h4z" />
    <glyph glyph-name="dcroat" unicode="&#x111;" 
d="M20 43h8v-4h4v-4h-4v-12v-20v-4h-20v4h-4v20h4v4h12v8h-8v4h8v4zM20 3v20h-8v-20h8z" />
    <glyph glyph-name="Emacron" unicode="&#x112;" 
d="M4 43h24v-4h-16v-16h12v-4h-12v-16h16v-4h-24v20v20v4zM4 51h24v-4h-24v4z" />
    <glyph glyph-name="emacron" unicode="&#x113;" 
d="M8 27h16v-4h4v-8v-4h-16v-8h12v-4h-16v4h-4v8v12h4v4zM4 39h24v-4h-24v4zM20 15v8h-8v-8h8z" />
    <glyph glyph-name="Ebreve" unicode="&#x114;" 
d="M4 39h24v-4h-16v-12h12v-4h-12v-16h16v-4h-24v20v16v4zM20 51h8v-4h-4v-4h-16v4h-4v4h8v-4h8v4z" />
    <glyph glyph-name="ebreve" unicode="&#x115;" 
d="M8 27h16v-4h4v-8v-4h-16v-8h12v-4h-16v4h-4v8v12h4v4zM20 43h8v-4h-4v-4h-16v4h-4v4h8v-4h8v4zM20 15v8h-8v-8h8z" />
    <glyph glyph-name="Edotaccent" unicode="&#x116;" 
d="M4 39h24v-4h-16v-12h12v-4h-12v-16h16v-4h-24v20v16v4zM12 51h8v-8h-8v8z" />
    <glyph glyph-name="edotaccent" unicode="&#x117;" 
d="M8 27h16v-4h4v-8v-4h-16v-8h12v-4h-16v4h-4v8v12h4v4zM12 43h8v-8h-8v8zM20 15v8h-8v-8h8z" />
    <glyph glyph-name="Eogonek" unicode="&#x118;" 
d="M4 43h24v-4h-16v-16h12v-4h-12v-16h16v-4h-4v-4h-4v-4h8v-4h-12v4h-4v4h4v4h-12v20v20v4z" />
    <glyph glyph-name="eogonek" unicode="&#x119;" 
d="M8 27h16v-4h4v-8v-4h-16v-8h12v-8h-4v-4h8v-4h-12v4h-4v4h4v4h-8v4h-4v8v12h4v4zM20 15v8h-8v-8h8z" />
    <glyph glyph-name="Ecaron" unicode="&#x11a;" 
d="M4 39h24v-4h-16v-12h12v-4h-12v-16h16v-4h-24v20v16v4zM20 51h8v-4h-8v4zM4 51h8v-4h-8v4zM20 47v-4h-8v4h8z" />
    <glyph glyph-name="ecaron" unicode="&#x11b;" 
d="M8 27h16v-4h4v-8v-4h-16v-8h12v-4h-16v4h-4v8v12h4v4zM20 47h8v-4h-4v-4h-4v-4h-8v4h-4v4h-4v4h8v-4h8v4zM20 15v8h-8v-8h8z" />
    <glyph glyph-name="Gcircumflex" unicode="&#x11c;" 
d="M16 19h12v-16v-4h-20v4h-4v32h4v4h16v-4h4v-8h-8v8h-8v-32h8v12h-4v4zM12 51h8v-4h8v-4h-8v4h-8v-4h-8v4h8v4z" />
    <glyph glyph-name="gcircumflex" unicode="&#x11d;" 
d="M8 27h20v-4v-20v-12h-4v-4h-20v4h16v8h-12v4h-4v20h4v4zM12 47h8v-4h4v-4h4v-4h-8v4h-8v-4h-8v4h4v4h4v4zM20 3v20h-8v-20h8z" />
    <glyph glyph-name="Gbreve" unicode="&#x11e;" 
d="M16 19h12v-16v-4h-20v4h-4v32h4v4h16v-4h4v-8h-8v8h-8v-32h8v12h-4v4zM20 51h8v-4h-4v-4h-16v4h-4v4h8v-4h8v4z" />
    <glyph glyph-name="gbreve" unicode="&#x11f;" 
d="M8 27h20v-4v-20v-12h-4v-4h-20v4h16v8h-12v4h-4v20h4v4zM20 43h8v-4h-4v-4h-16v4h-4v4h8v-4h8v4zM20 3v20h-8v-20h8z" />
    <glyph glyph-name="Gdotaccent" unicode="&#x120;" 
d="M16 19h12v-16v-4h-20v4h-4v32h4v4h16v-4h4v-8h-8v8h-8v-32h8v12h-4v4zM12 51h8v-8h-8v8z" />
    <glyph glyph-name="gdotaccent" unicode="&#x121;" 
d="M8 27h20v-4v-20v-12h-4v-4h-20v4h16v8h-12v4h-4v20h4v4zM12 43h8v-8h-8v8zM20 3v20h-8v-20h8z" />
    <glyph glyph-name="uni0122" unicode="&#x122;" 
d="M12 -5h8v-4h-4v-4h-8v4h4v4zM16 19h12v-16v-4h-20v4h-4v36h4v4h16v-4h4v-12h-8v12h-8v-36h8v12h-4v4z" />
    <glyph glyph-name="uni0123" unicode="&#x123;" 
d="M8 31h20v-4v-24v-12h-4v-4h-16v4h12v8h-12v4h-4v24h4v4zM16 47h8v-4h-4v-8h-8v8h4v4zM20 3v24h-8v-24h8z" />
    <glyph glyph-name="Hcircumflex" unicode="&#x124;" 
d="M20 39h8v-16v-4v-20h-8v20h-8v-20h-8v20v20h8v-16h8v16zM12 51h8v-4h8v-4h-8v4h-8v-4h-8v4h8v4z" />
    <glyph glyph-name="hcircumflex" unicode="&#x125;" 
d="M4 35h8v-16h12v-4h4v-16h-8v16h-8v-16h-8v16v20zM12 51h8v-4h4v-4h4v-4h-8v4h-8v-4h-8v4h4v4h4v4z" />
    <glyph glyph-name="Hbar" unicode="&#x126;" 
d="M20 43h8v-12h4v-4h-4v-4v-4v-20h-8v20h-8v-20h-8v20v8h-4v4h4v12h8v-12h8v12zM20 23v4h-8v-4h8z" />
    <glyph glyph-name="hbar" unicode="&#x127;" 
d="M4 47h8v-4h8v-4h-8v-4h12v-4h4v-32h-8v32h-8v-32h-8v32v8v8z" />
    <glyph glyph-name="Itilde" unicode="&#x128;" 
d="M4 39h24v-4h-8v-32h8v-4h-24v4h8v32h-8v4zM20 51h8v-4h-4v-4h-12v4h-4v-4h-8v4h4v4h12v-4h4v4z" />
    <glyph glyph-name="itilde" unicode="&#x129;" 
d="M8 27h12v-24h4v-4h-16v4h4v20h-4v4zM20 43h8v-4h-4v-4h-12v4h-4v-4h-8v4h4v4h12v-4h4v4z" />
    <glyph glyph-name="Imacron" unicode="&#x12a;" 
d="M4 43h24v-4h-8v-36h8v-4h-24v4h8v36h-8v4zM4 51h24v-4h-24v4z" />
    <glyph glyph-name="imacron" unicode="&#x12b;" 
d="M8 27h12v-24h4v-4h-16v4h4v20h-4v4zM4 39h24v-4h-24v4z" />
    <glyph glyph-name="Ibreve" unicode="&#x12c;" 
d="M4 39h24v-4h-8v-32h8v-4h-24v4h8v32h-8v4zM20 51h8v-4h-4v-4h-16v4h-4v4h8v-4h8v4z" />
    <glyph glyph-name="ibreve" unicode="&#x12d;" 
d="M8 27h12v-24h4v-4h-16v4h4v20h-4v4zM20 43h8v-4h-4v-4h-16v4h-4v4h8v-4h8v4z" />
    <glyph glyph-name="Iogonek" unicode="&#x12e;" 
d="M4 43h24v-4h-8v-36h8v-4h-4v-4h-4v-4h8v-4h-12v4h-4v4h4v4h-12v4h8v36h-8v4z" />
    <glyph glyph-name="iogonek" unicode="&#x12f;" 
d="M4 27h16v-24h8v-4h-4v-4h-4v-4h8v-4h-12v4h-4v4h4v4h-4v24h-8v4zM12 43h8v-8h-8v8z" />
    <glyph glyph-name="Idotaccent" unicode="&#x130;" 
d="M4 39h24v-4h-8v-32h8v-4h-24v4h8v32h-8v4zM12 51h8v-8h-8v8z" />
    <glyph glyph-name="dotlessi" unicode="&#x131;" 
d="M8 27h12v-24h4v-4h-16v4h4v20h-4v4z" />
    <glyph glyph-name="IJ" unicode="&#x132;" 
d="M12 7h4v-4h-4v4zM20 43h8v-36v-4h-4v-4h-8v4h4v4v36zM0 43h8v-44h-8v44z" />
    <glyph glyph-name="ij" unicode="&#x133;" 
d="M20 27h8v-32h-4v-4h-16v4h12v32zM4 27h8v-28h-8v28zM20 43h8v-8h-8v8zM4 43h8v-8h-8v8z" />
    <glyph glyph-name="Jcircumflex" unicode="&#x134;" 
d="M4 11h8v-8h8v8v28h8v-28v-8h-4v-4h-16v4h-4v8zM12 51h8v-4h8v-4h-8v4h-8v-4h-8v4h8v4z" />
    <glyph glyph-name="jcircumflex" unicode="&#x135;" 
d="M16 27h8v-36h-4v-4h-16v4h12v36zM12 47h8v-4h4v-4h4v-4h-8v4h-8v-4h-8v4h4v4h4v4z" />
    <glyph glyph-name="uni0136" unicode="&#x136;" 
d="M20 43h8v-8h-4v-8h-4v-4h-4v-4h4v-4h4v-8h4v-8h-4v-4h4v-4h-4v-4h-12v4h8v4h-4v4h4v8h-4v8h-4v4h-4v-20h-8v20v24h8v-20h4v4h4v8h4v8z" />
    <glyph glyph-name="uni0137" unicode="&#x137;" 
d="M20 27h8v-8h-4v-4h-4v-4h4v-4h4v-8h-4v-4h4v-4h-4v-4h-12v4h8v4h-4v4h4v8h-4v4h-4v-12h-8v12v32h8v-28h4v4h4v8z" />
    <glyph glyph-name="kgreenlandic" unicode="&#x138;" 
d="M20 27h8v-8h-4v-4h-4v-4h4v-4h4v-8h-8v8h-4v4h-4v-12h-8v12v16h8v-12h4v4h4v8z" />
    <glyph glyph-name="Lacute" unicode="&#x139;" 
d="M4 39h8v-36h16v-4h-24v40zM16 51h8v-4h-4v-4h-8v4h4v4z" />
    <glyph glyph-name="lacute" unicode="&#x13a;" 
d="M4 39h16v-36h8v-4h-16v36h-8v4zM16 51h8v-4h-4v-4h-8v4h4v4z" />
    <glyph glyph-name="uni013B" unicode="&#x13b;" 
d="M4 43h8v-40h16v-4h-4v-4h4v-4h-4v-4h-12v4h8v4h-4v4h-12v44z" />
    <glyph glyph-name="uni013C" unicode="&#x13c;" 
d="M12 -5h8v-4h-4v-4h-8v4h4v4zM4 43h16v-40h8v-4h-24v4h8v36h-8v4z" />
    <glyph glyph-name="Lcaron" unicode="&#x13d;" 
d="M20 43h8v-12h-4v-4h-4v4h4v4h-4v8zM4 43h8v-40h16v-4h-24v44z" />
    <glyph glyph-name="lcaron" unicode="&#x13e;" 
d="M20 43h8v-12h-4v-4h-4v4h4v4h-4v8zM0 43h16v-40h8v-4h-24v4h8v36h-8v4z" />
    <glyph glyph-name="Ldot" unicode="&#x13f;" 
d="M20 31h8v-8h-8v8zM4 43h8v-40h16v-4h-24v44z" />
    <glyph glyph-name="ldot" unicode="&#x140;" 
d="M4 39h16v-36h8v-4h-16v36h-8v4zM16 51h8v-4h-4v-4h-8v4h4v4z" />
    <glyph glyph-name="Lslash" unicode="&#x141;" 
d="M20 31h4v-4v-4h-4v-4h-4v-4v-12h12v-4h-20v16h-4v-4h-4v4v4h4v4h4v20h8v-16h4v4z" />
    <glyph glyph-name="lslash" unicode="&#x142;" 
d="M24 31h4v-4v-4h-4v-4h-4v-4v-12h8v-4h-16v16h-4v-4h-4v4v4h4v4h4v16h-8v4h16v-16h4v4z" />
    <glyph glyph-name="Nacute" unicode="&#x143;" 
d="M20 39h8v-16v-24h-8v16h-4v4h-4v4h-4v-24h-8v24v16h8v-8h4v-4h4v-4h4v16zM16 51h8v-4h-4v-4h-8v4h4v4z" />
    <glyph glyph-name="nacute" unicode="&#x144;" 
d="M4 27h20v-4h4v-24h-8v24h-8v-24h-8v24v4zM16 43h8v-4h-4v-4h-8v4h4v4z" />
    <glyph glyph-name="uni0145" unicode="&#x145;" 
d="M20 43h8v-20v-4v-20h-4v-4h4v-4h-4v-4h-12v4h8v4h-4v4h4v8h-4v8h-4v4h-4v-20h-8v20v24h8v-8h4v-8h4v-4h4v20z" />
    <glyph glyph-name="uni0146" unicode="&#x146;" 
d="M4 27h20v-4h4v-24h-4v-4h4v-4h-4v-4h-12v4h8v4h-4v4h4v24h-8v-24h-8v24v4z" />
    <glyph glyph-name="Ncaron" unicode="&#x147;" 
d="M20 39h8v-16v-24h-8v16h-4v4h-4v4h-4v-24h-8v24v16h8v-8h4v-4h4v-4h4v16zM20 51h8v-4h-8v4zM4 51h8v-4h-8v4zM20 47v-4h-8v4h8z" />
    <glyph glyph-name="ncaron" unicode="&#x148;" 
d="M4 27h20v-4h4v-24h-8v24h-8v-24h-8v24v4zM20 47h8v-4h-4v-4h-4v-4h-8v4h-4v4h-4v4h8v-4h8v4z" />
    <glyph glyph-name="napostrophe" unicode="&#x149;" 
d="M0 43h8v-12h16v-4h4v-28h-8v28h-4v-28h-8v28h-4v-4h-4v4h4v4h-4v12z" />
    <glyph glyph-name="Eng" unicode="&#x14a;" 
d="M0 39h24v-4h4v-44h-4v-4h-16v4h12v44h-12v-36h-8v36v4z" />
    <glyph glyph-name="eng" unicode="&#x14b;" 
d="M4 27h20v-4h4v-32h-4v-4h-16v4h12v32h-8v-24h-8v24v4z" />
    <glyph glyph-name="Omacron" unicode="&#x14c;" 
d="M8 43h16v-4h4v-36h-4v-4h-16v4h-4v36h4v4zM4 51h24v-4h-24v4zM20 3v36h-8v-36h8z" />
    <glyph glyph-name="omacron" unicode="&#x14d;" 
d="M8 27h16v-4h4v-20h-4v-4h-16v4h-4v20h4v4zM4 39h24v-4h-24v4zM20 3v20h-8v-20h8z" />
    <glyph glyph-name="Obreve" unicode="&#x14e;" 
d="M8 39h16v-4h4v-32h-4v-4h-16v4h-4v32h4v4zM20 51h8v-4h-4v-4h-16v4h-4v4h8v-4h8v4zM20 3v32h-8v-32h8z" />
    <glyph glyph-name="obreve" unicode="&#x14f;" 
d="M8 27h16v-4h4v-20h-4v-4h-16v4h-4v20h4v4zM20 43h8v-4h-4v-4h-16v4h-4v4h8v-4h8v4zM20 3v20h-8v-20h8z" />
    <glyph glyph-name="Ohungarumlaut" unicode="&#x150;" 
d="M8 39h16v-4h4v-32h-4v-4h-16v4h-4v32h4v4zM20 51h8v-4h-4v-4h-8v4h4v4zM4 51h8v-4h-4v-4h-8v4h4v4zM20 3v32h-8v-32h8z" />
    <glyph glyph-name="ohungarumlaut" unicode="&#x151;" 
d="M8 27h16v-4h4v-20h-4v-4h-16v4h-4v20h4v4zM20 43h8v-4h-4v-4h-8v4h4v4zM4 43h8v-4h-4v-4h-8v4h4v4zM20 3v20h-8v-20h8z" />
    <glyph glyph-name="OE" unicode="&#x152;" 
d="M4 43h24v-4h-4v-16h4v-4h-4v-16h4v-4h-24v4h-4v36h4v4zM16 19v20h-8v-36h8v16z" />
    <glyph glyph-name="oe" unicode="&#x153;" 
d="M4 27h24v-4h4v-8v-4h-12v-8h-4v-4h-12v4h-4v20h4v4zM20 3h12v-4h-12v4zM12 11v12h-4v-20h4v8zM24 15v8h-4v-8h4z" />
    <glyph glyph-name="Racute" unicode="&#x154;" 
d="M4 39h20v-4h4v-12h-4v-4v-4h4v-16h-8v16h-4v4h-4v-20h-8v20v16v4zM16 51h8v-4h-4v-4h-8v4h4v4zM20 23v12h-8v-12h8z" />
    <glyph glyph-name="racute" unicode="&#x155;" 
d="M4 27h20v-4h4v-8h-8v8h-8v-24h-8v24v4zM16 43h8v-4h-4v-4h-8v4h4v4z" />
    <glyph glyph-name="uni0156" unicode="&#x156;" 
d="M12 -5h8v-4h-4v-4h-8v4h4v4zM4 43h20v-4h4v-16h-4v-4v-4h4v-16h-8v16h-4v4h-4v-20h-8v20v20v4zM20 23v16h-8v-16h8z" />
    <glyph glyph-name="uni0157" unicode="&#x157;" 
d="M8 -5h8v-4h-4v-4h-8v4h4v4zM20 27h8v-8h-12v4h4v4zM4 27h8v-8h4v-4h-4v-16h-8v16v12z" />
    <glyph glyph-name="Rcaron" unicode="&#x158;" 
d="M4 39h20v-4h4v-12h-4v-4v-4h4v-16h-8v16h-4v4h-4v-20h-8v20v16v4zM20 51h8v-4h-8v4zM4 51h8v-4h-8v4zM20 23v12h-8v-12h8zM20 47v-4h-8v4h8z" />
    <glyph glyph-name="rcaron" unicode="&#x159;" 
d="M4 27h20v-4h4v-8h-8v8h-8v-24h-8v24v4zM20 47h8v-4h-4v-4h-4v-4h-8v4h-4v4h-4v4h8v-4h8v4z" />
    <glyph glyph-name="Sacute" unicode="&#x15a;" 
d="M4 11h8v-8h8v8v4h-4v4h-4v4h-4v4h-4v8h4v4h16v-4h4v-8h-8v8h-8v-8h4v-4h4v-4h4v-4h4v-4v-8h-4v-4h-16v4h-4v8zM16 51h8v-4h-4v-4h-8v4h4v4z" />
    <glyph glyph-name="sacute" unicode="&#x15b;" 
d="M8 27h20v-4h-16v-8h12v-4h4v-8h-4v-4h-20v4h16v8h-12v4h-4v8h4v4zM16 43h8v-4h-4v-4h-8v4h4v4z" />
    <glyph glyph-name="Scircumflex" unicode="&#x15c;" 
d="M4 11h8v-8h8v8v4h-4v4h-4v4h-4v4h-4v8h4v4h16v-4h4v-8h-8v8h-8v-8h4v-4h4v-4h4v-4h4v-4v-8h-4v-4h-16v4h-4v8zM12 51h8v-4h8v-4h-8v4h-8v-4h-8v4h8v4z" />
    <glyph glyph-name="scircumflex" unicode="&#x15d;" 
d="M8 27h20v-4h-16v-8h12v-4h4v-8h-4v-4h-20v4h16v8h-12v4h-4v8h4v4zM12 47h8v-4h4v-4h4v-4h-8v4h-8v-4h-8v4h4v4h4v4z" />
    <glyph glyph-name="Scedilla" unicode="&#x15e;" 
d="M4 7h8v-4h8v4v4h-4v4h-4v4h-4v4h-4v16h4v4h16v-4h4v-12h-8v12h-8v-16h4v-4h4v-4h4v-4h4v-4v-4h-4v-4h-4v-4h4v-4h-4v-4h-12v4h8v4h-4v4h-4v4h-4v4z" />
    <glyph glyph-name="scedilla" unicode="&#x15f;" 
d="M8 27h20v-4h-16v-8h12v-4h4v-8h-4v-4h-4v-4h4v-4h-4v-4h-12v4h8v4h-4v4h-8v4h16v8h-12v4h-4v8h4v4z" />
    <glyph glyph-name="Scaron" unicode="&#x160;" 
d="M4 11h8v-8h8v8v4h-4v4h-4v4h-4v4h-4v8h4v4h16v-4h4v-8h-8v8h-8v-8h4v-4h4v-4h4v-4h4v-4v-8h-4v-4h-16v4h-4v8zM20 51h8v-4h-8v4zM4 51h8v-4h-8v4zM20 47v-4h-8v4h8z" />
    <glyph glyph-name="scaron" unicode="&#x161;" 
d="M8 27h20v-4h-16v-8h12v-4h4v-8h-4v-4h-20v4h16v8h-12v4h-4v8h4v4zM20 47h8v-4h-4v-4h-4v-4h-8v4h-4v4h-4v4h8v-4h8v4z" />
    <glyph glyph-name="uni0162" unicode="&#x162;" 
d="M4 43h24v-4h-8v-44h4v-4h-4v-4h-12v4h8v4h-4v44h-8v4z" />
    <glyph glyph-name="uni0163" unicode="&#x163;" 
d="M8 43h8v-12h12v-4h-12v-24h12v-4h-8v-4h4v-4h-4v-4h-12v4h8v4h-4v4v4h-4v24h-4v4h4v12z" />
    <glyph glyph-name="Tcaron" unicode="&#x164;" 
d="M4 39h24v-4h-8v-36h-8v36h-8v4zM20 51h8v-4h-8v4zM4 51h8v-4h-8v4zM20 47v-4h-8v4h8z" />
    <glyph glyph-name="tcaron" unicode="&#x165;" 
d="M24 39h8v-12h-4v-4h-4v4h4v4h-4v8zM4 43h8v-12h8v-4h-8v-24h8v-4h-12v4h-4v24h-4v4h4v12z" />
    <glyph glyph-name="Tbar" unicode="&#x166;" 
d="M4 43h24v-4h-8v-16h4v-4h-4v-20h-8v20h-4v4h4v16h-8v4z" />
    <glyph glyph-name="tbar" unicode="&#x167;" 
d="M8 43h8v-12h12v-4h-12v-4h8v-4h-8v-16h12v-4h-16v4h-4v16h-4v4h4v4h-4v4h4v12z" />
    <glyph glyph-name="Utilde" unicode="&#x168;" 
d="M20 39h8v-36h-4v-4h-16v4h-4v36h8v-36h8v36zM20 51h8v-4h-4v-4h-12v4h-4v-4h-8v4h4v4h12v-4h4v4z" />
    <glyph glyph-name="utilde" unicode="&#x169;" 
d="M20 27h8v-24v-4h-20v4h-4v24h8v-24h8v24zM20 43h8v-4h-4v-4h-12v4h-4v-4h-8v4h4v4h12v-4h4v4z" />
    <glyph glyph-name="Umacron" unicode="&#x16a;" 
d="M20 43h8v-40h-4v-4h-16v4h-4v40h8v-40h8v40zM4 51h24v-4h-24v4z" />
    <glyph glyph-name="umacron" unicode="&#x16b;" 
d="M20 27h8v-24v-4h-20v4h-4v24h8v-24h8v24zM4 39h24v-4h-24v4z" />
    <glyph glyph-name="Ubreve" unicode="&#x16c;" 
d="M20 39h8v-36h-4v-4h-16v4h-4v36h8v-36h8v36zM20 51h8v-4h-4v-4h-16v4h-4v4h8v-4h8v4z" />
    <glyph glyph-name="ubreve" unicode="&#x16d;" 
d="M20 27h8v-24v-4h-20v4h-4v24h8v-24h8v24zM20 43h8v-4h-4v-4h-16v4h-4v4h8v-4h8v4z" />
    <glyph glyph-name="Uring" unicode="&#x16e;" 
d="M20 35h8v-32h-4v-4h-16v4h-4v32h8v-32h8v32zM8 51h16v-4h4v-4h-4v-4h-16v4h-4v4h4v4zM20 43v4h-8v-4h8z" />
    <glyph glyph-name="uring" unicode="&#x16f;" 
d="M20 27h8v-24v-4h-20v4h-4v24h8v-24h8v24zM8 43h16v-4h4v-4h-4v-4h-16v4h-4v4h4v4zM20 35v4h-8v-4h8z" />
    <glyph glyph-name="Uhungarumlaut" unicode="&#x170;" 
d="M20 39h8v-36h-4v-4h-16v4h-4v36h8v-36h8v36zM20 51h8v-4h-4v-4h-8v4h4v4zM4 51h8v-4h-4v-4h-8v4h4v4z" />
    <glyph glyph-name="uhungarumlaut" unicode="&#x171;" 
d="M20 27h8v-24v-4h-20v4h-4v24h8v-24h8v24zM20 43h8v-4h-4v-4h-8v4h4v4zM4 43h8v-4h-4v-4h-8v4h4v4z" />
    <glyph glyph-name="Uogonek" unicode="&#x172;" 
d="M20 43h8v-40h-4v-8h-4v-4h8v-4h-12v4h-4v4h4v4h-8v4h-4v40h8v-40h8v40z" />
    <glyph glyph-name="uogonek" unicode="&#x173;" 
d="M20 27h8v-24v-4h-4v-4h-4v-4h8v-4h-12v4h-4v4h4v4h-8v4h-4v24h8v-24h8v24z" />
    <glyph glyph-name="Wcircumflex" unicode="&#x174;" 
d="M12 23h4v-8h4v8v16h8v-16v-8v-4v-8v-4h-8v4h-4v8h-4v-8h-4v-4h-8v4v8v28h8v-24h4v8zM12 51h8v-4h8v-4h-8v4h-8v-4h-8v4h8v4z" />
    <glyph glyph-name="wcircumflex" unicode="&#x175;" 
d="M12 19h4v-12h4v12v8h8v-8v-12h-4v-4v-4h-8v4h-4v-4h-8v4v4h-4v20h8v-20h4v12zM12 47h8v-4h4v-4h4v-4h-8v4h-8v-4h-8v4h4v4h4v4z" />
    <glyph glyph-name="Ycircumflex" unicode="&#x176;" 
d="M20 39h8v-16h-4v-4h-4v-20h-8v20h-4v4h-4v16h8v-16h8v16zM12 51h8v-4h8v-4h-8v4h-8v-4h-8v4h8v4z" />
    <glyph glyph-name="ycircumflex" unicode="&#x177;" 
d="M20 27h8v-24v-12h-4v-4h-16v4h12v8h-12v4h-4v24h8v-24h8v24zM12 47h8v-4h4v-4h4v-4h-8v4h-8v-4h-8v4h4v4h4v4z" />
    <glyph glyph-name="Ydieresis" unicode="&#x178;" 
d="M20 39h8v-16h-4v-4h-4v-20h-8v20h-4v4h-4v16h8v-16h8v16zM20 51h8v-8h-8v8zM4 51h8v-8h-8v8z" />
    <glyph glyph-name="Zacute" unicode="&#x179;" 
d="M4 39h24v-12h-4v-4h-4v-4h-4v-4h-4v-12h16v-4h-24v16h4v4h4v4h4v4h4v8h-16v4zM16 51h8v-4h-4v-4h-8v4h4v4z" />
    <glyph glyph-name="zacute" unicode="&#x17a;" 
d="M4 27h24v-8h-4v-4h-4v-4h-4v-4h-4v-4h16v-4h-24v8h4v4h4v4h4v4h4v4h-16v4zM16 43h8v-4h-4v-4h-8v4h4v4z" />
    <glyph glyph-name="Zdotaccent" unicode="&#x17b;" 
d="M4 39h24v-12h-4v-4h-4v-4h-4v-4h-4v-12h16v-4h-24v16h4v4h4v4h4v4h4v8h-16v4zM12 51h8v-8h-8v8z" />
    <glyph glyph-name="zdotaccent" unicode="&#x17c;" 
d="M4 27h24v-8h-4v-4h-4v-4h-4v-4h-4v-4h16v-4h-24v8h4v4h4v4h4v4h4v4h-16v4zM12 43h8v-8h-8v8z" />
    <glyph glyph-name="Zcaron" unicode="&#x17d;" 
d="M4 39h24v-12h-4v-4h-4v-4h-4v-4h-4v-12h16v-4h-24v16h4v4h4v4h4v4h4v8h-16v4zM20 51h8v-4h-8v4zM4 51h8v-4h-8v4zM20 47v-4h-8v4h8z" />
    <glyph glyph-name="zcaron" unicode="&#x17e;" 
d="M4 27h24v-8h-4v-4h-4v-4h-4v-4h-4v-4h16v-4h-24v8h4v4h4v4h4v4h4v4h-16v4zM20 47h8v-4h-4v-4h-4v-4h-8v4h-4v4h-4v4h8v-4h8v4z" />
    <glyph glyph-name="longs" unicode="&#x17f;" 
d="M8 43h16v-4h4v-4h-8v4h-8v-40h-8v40h4v4z" />
    <glyph glyph-name="uni0180" unicode="&#x180;" 
d="M4 43h8v-4h8v-4h-8v-8h12v-4h4v-20h-4v-4h-20v24v12h-4v4h4v4zM20 3v20h-8v-20h8z" />
    <glyph glyph-name="uni0181" unicode="&#x181;" 
d="M4 43h20v-4h4v-16h-4v-4h4v-16h-4v-4h-16v20v20h-4v-12h-4v12h4v4zM20 3v16h-4v-16h4zM20 23v16h-4v-16h4z" />
    <glyph glyph-name="uni0182" unicode="&#x182;" 
d="M4 43h24v-4h-16v-16h12v-4h4v-16h-4v-4h-20v20v20v4zM20 3v16h-8v-16h8z" />
    <glyph glyph-name="uni0183" unicode="&#x183;" 
d="M4 43h20v-4h-12v-4h12v-4h4v-28h-4v-4h-20v32v8v4zM20 3v28h-8v-28h8z" />
    <glyph glyph-name="uni0184" unicode="&#x184;" 
d="M4 43h8v-16h12v-4h4v-20h-4v-4h-20v24v12h-4v4h4v4zM20 3v20h-8v-20h8z" />
    <glyph glyph-name="uni0185" unicode="&#x185;" 
d="M4 43h8v-16h12v-4h4v-20h-4v-4h-16v4h-4v20v12h-4v4h4v4zM20 3v20h-8v-20h8z" />
    <glyph glyph-name="uni0186" unicode="&#x186;" 
d="M4 11h8v-8h8v8v28h-8v-8h-8v8h4v4h16v-4h4v-28v-8h-4v-4h-16v4h-4v8z" />
    <glyph glyph-name="uni0187" unicode="&#x187;" 
d="M16 11h8v-8h-4v-4h-16v4h-4v36h4v4h12v4h4v4h8v-4h-4v-8v-8h-8v8h-8v-36h8v8z" />
    <glyph glyph-name="uni0188" unicode="&#x188;" 
d="M16 7h8v-4h-4v-4h-16v4h-4v20h4v4h12v12h4v4h8v-4h-4v-16v-4h-8v4h-8v-20h8v4z" />
    <glyph glyph-name="uni0189" unicode="&#x189;" 
d="M4 43h16v-4h4v-4h4v-16v-12h-4v-4h-4v-4h-16v20h-4v4h4v16v4zM20 7v12v16h-4v4h-4v-16h4v-4h-4v-16h4v4h4z" />
    <glyph glyph-name="uni018A" unicode="&#x18a;" 
d="M4 43h20v-4h4v-36h-4v-4h-20v4h4v36h-4v-8h-4v8h4v4zM20 3v36h-4v-36h4z" />
    <glyph glyph-name="uni018B" unicode="&#x18b;" 
d="M8 43h20v-24v-16v-4h-20v4h-4v16h4v4h12v16h-12v4zM20 3v16h-8v-16h8z" />
    <glyph glyph-name="uni018C" unicode="&#x18c;" 
d="M8 43h20v-12v-28v-4h-20v4h-4v28h4v4h12v4h-12v4zM20 3v28h-8v-28h8z" />
    <glyph glyph-name="uni018D" unicode="&#x18d;" 
d="M8 27h16v-4h4v-20h-4v-8h4v-4h-4v-4h-12v4h8v4h-4v4h-8v4h-4v20h4v4zM20 3v20h-8v-20h8z" />
    <glyph glyph-name="uni018E" unicode="&#x18e;" 
d="M4 43h24v-44h-24v4h16v16h-12v4h12v16h-16v4z" />
    <glyph glyph-name="uni018F" unicode="&#x18f;" 
d="M8 43h16v-4h4v-16v-20h-4v-4h-16v4h-4v20v4h16v12h-8v-8h-8v8h4v4zM20 3v20h-8v-20h8z" />
    <glyph glyph-name="uni0190" unicode="&#x190;" 
d="M20 11h8v-8h-4v-4h-16v4h-4v16h4v4h-4v16h4v4h16v-4h4v-8h-8v8h-8v-16h8v-4h-8v-16h8v8z" />
    <glyph glyph-name="uni0191" unicode="&#x191;" 
d="M4 43h24v-4h-16v-16h12v-4h-12v-28h-4v-4h-8v4h4v28v20v4z" />
    <glyph glyph-name="florin" unicode="&#x192;" 
d="M0 3h8v-4h4v4v16h-8v4h8v20h4v4h12v-4h4v-4h-8v4h-4v-20h8v-4h-8v-16v-4h-4v-4h-12v4h-4v4z" />
    <glyph glyph-name="uni0193" unicode="&#x193;" 
d="M12 19h12v-16v-4h-20v4h-4v36h4v4h12v4h4v4h8v-4h-4v-8v-8h-8v8h-8v-36h8v12h-4v4z" />
    <glyph glyph-name="uni0194" unicode="&#x194;" 
d="M20 43h8v-32h-4v-8h-4v-4h4v-4h-4v-4h-12v4h-4v4h4v4h-4v8h-4v32h8v-32h4v-8h4v8h4v32zM16 -5v4h-4v-4h4z" />
    <glyph glyph-name="uni0195" unicode="&#x195;" 
d="M24 27h8v-4v-20h-4v-4h-12v4h-4v20h-4v-24h-8v24v20h8v-16h8v-4h4v-20h4v20v4z" />
    <glyph glyph-name="uni0196" unicode="&#x196;" 
d="M0 43h24v-4h-8v-36h12v-4h-16v4h-4v36h-8v4z" />
    <glyph glyph-name="uni0197" unicode="&#x197;" 
d="M4 43h24v-4h-8v-16h8v-4h-8v-16h8v-4h-24v4h8v16h-8v4h8v16h-8v4z" />
    <glyph glyph-name="uni0198" unicode="&#x198;" 
d="M16 43h12v-4v-8h-4v8h-4v-16h-4v-4h4v-8h4v-12h-8v12h-4v8h-4v-20h-8v20v24h8v-20h4v16h4v4z" />
    <glyph glyph-name="uni0199" unicode="&#x199;" 
d="M20 27h8v-8h-4v-4h-4v-4h4v-4h4v-8h-8v8h-4v4h-4v-12h-8v12v28h4v4h16v-4h-12v-24h4v4h4v8z" />
    <glyph glyph-name="uni019A" unicode="&#x19a;" 
d="M4 43h16v-20h8v-4h-8v-16h8v-4h-16v20h-8v4h8v16h-8v4z" />
    <glyph glyph-name="uni019B" unicode="&#x19b;" 
d="M20 43h8v-4h-4v-8h4v-12v-4v-16h-8v16v4h-8v-4h-4v-16h-8v16h4v4h4v4h12v8h-4v-4h-8v4h4v8h-4v4h8v-4h4v4z" />
    <glyph glyph-name="uni019C" unicode="&#x19c;" 
d="M20 43h8v-40v-4h-24v4h-4v40h8v-40h4v40h4v-40h4v40z" />
    <glyph glyph-name="uni019D" unicode="&#x19d;" 
d="M20 43h8v-20v-4v-20h-8v8h-4v8h-4v4h-4v-32h-8v32v24h8v-8h4v-8h4v-4h4v20z" />
    <glyph glyph-name="uni019E" unicode="&#x19e;" 
d="M4 27h20v-4h4v-36h-8v36h-8v-24h-8v24v4z" />
    <glyph glyph-name="uni019F" unicode="&#x19f;" 
d="M8 43h16v-4h4v-16v-4v-16h-4v-4h-16v4h-4v16v20h4v4zM20 3v16h-8v-16h8zM20 23v16h-8v-16h8z" />
    <glyph glyph-name="uni01CD" unicode="&#x1cd;" 
d="M12 39h8v-4h4v-4h4v-12v-4v-16h-8v16h-8v-16h-8v16v16h4v4h4v4zM20 51h8v-4h-8v4zM4 51h8v-4h-8v4zM20 19v12h-8v-12h8zM20 47v-4h-8v4h8z" />
    <glyph glyph-name="uni01CE" unicode="&#x1ce;" 
d="M8 27h16v-4h4v-8v-12v-4h-20v4h-4v12h4v4h12v4h-12v4zM20 47h8v-4h-4v-4h-4v-4h-8v4h-4v4h-4v4h8v-4h8v4zM20 3v12h-8v-12h8z" />
    <glyph glyph-name="uni01CF" unicode="&#x1cf;" 
d="M4 39h24v-4h-8v-32h8v-4h-24v4h8v32h-8v4zM20 51h8v-4h-8v4zM4 51h8v-4h-8v4zM20 47v-4h-8v4h8z" />
    <glyph glyph-name="uni01D0" unicode="&#x1d0;" 
d="M8 27h12v-24h4v-4h-16v4h4v20h-4v4zM20 47h8v-4h-4v-4h-4v-4h-8v4h-4v4h-4v4h8v-4h8v4z" />
    <glyph glyph-name="uni01D1" unicode="&#x1d1;" 
d="M8 39h16v-4h4v-32h-4v-4h-16v4h-4v32h4v4zM20 51h8v-4h-8v4zM4 51h8v-4h-8v4zM20 3v32h-8v-32h8zM20 47v-4h-8v4h8z" />
    <glyph glyph-name="uni01D2" unicode="&#x1d2;" 
d="M8 27h16v-4h4v-20h-4v-4h-16v4h-4v20h4v4zM20 47h8v-4h-4v-4h-4v-4h-8v4h-4v4h-4v4h8v-4h8v4zM20 3v20h-8v-20h8z" />
    <glyph glyph-name="uni01D3" unicode="&#x1d3;" 
d="M20 39h8v-36h-4v-4h-16v4h-4v36h8v-36h8v36zM20 51h8v-4h-8v4zM4 51h8v-4h-8v4zM20 47v-4h-8v4h8z" />
    <glyph glyph-name="uni01D4" unicode="&#x1d4;" 
d="M20 27h8v-24v-4h-20v4h-4v24h8v-24h8v24zM20 47h8v-4h-4v-4h-4v-4h-8v4h-4v4h-4v4h8v-4h8v4z" />
    <glyph glyph-name="uni01D5" unicode="&#x1d5;" 
d="M20 35h8v-32h-4v-4h-16v4h-4v32h8v-32h8v32zM20 43h8v-4h-8v4zM4 43h8v-4h-8v4zM4 51h24v-4h-24v4z" />
    <glyph glyph-name="uni01D6" unicode="&#x1d6;" 
d="M20 27h8v-24v-4h-20v4h-4v24h8v-24h8v24zM20 39h8v-4h-8v4zM4 39h8v-4h-8v4zM4 47h24v-4h-24v4z" />
    <glyph glyph-name="uni01D7" unicode="&#x1d7;" 
d="M20 35h8v-32h-4v-4h-16v4h-4v32h8v-32h8v32zM24 43h8v-4h-8v4zM0 43h8v-4h-8v4zM16 51h8v-4h-4v-4h-8v4h4v4z" />
    <glyph glyph-name="uni01D8" unicode="&#x1d8;" 
d="M20 27h8v-24v-4h-20v4h-4v24h8v-24h8v24zM20 39h8v-4h-8v4zM4 39h8v-4h-8v4zM16 51h8v-4h-4v-4h-8v4h4v4z" />
    <glyph glyph-name="uni01D9" unicode="&#x1d9;" 
d="M20 35h8v-32h-4v-4h-16v4h-4v32h8v-32h8v32zM20 51h8v-4h-4v-4h8v-4h-8v4h-4v-4h-8v4h-4v-4h-8v4h8v4h-4v4h8v-4h8v4z" />
    <glyph glyph-name="uni01DA" unicode="&#x1da;" 
d="M20 27h8v-24v-4h-20v4h-4v24h8v-24h8v24zM24 39h8v-4h-8v4zM0 39h8v-4h-8v4zM20 51h8v-4h-4v-4h-4v-4h-8v4h-4v4h-4v4h8v-4h8v4z" />
    <glyph glyph-name="uni01DB" unicode="&#x1db;" 
d="M20 35h8v-32h-4v-4h-16v4h-4v32h8v-32h8v32zM24 43h8v-4h-8v4zM0 43h8v-4h-8v4zM8 51h8v-4h4v-4h-8v4h-4v4z" />
    <glyph glyph-name="uni01DC" unicode="&#x1dc;" 
d="M20 27h8v-24v-4h-20v4h-4v24h8v-24h8v24zM20 39h8v-4h-8v4zM4 39h8v-4h-8v4zM8 51h8v-4h4v-4h-8v4h-4v4z" />
    <glyph glyph-name="uni01DD" unicode="&#x1dd;" 
d="M8 27h16v-4h4v-12v-8h-4v-4h-16v4h-4v8v4h16v8h-12v4zM20 3v8h-8v-8h8z" />
    <glyph glyph-name="uni01DE" unicode="&#x1de;" 
d="M12 35h8v-4h4v-4h4v-8v-4v-16h-8v16h-8v-16h-8v16v12h4v4h4v4zM20 43h8v-4h-8v4zM4 43h8v-4h-8v4zM4 51h24v-4h-24v4zM20 19v8h-8v-8h8z" />
    <glyph glyph-name="uni01DF" unicode="&#x1df;" 
d="M8 27h16v-4h4v-8v-12v-4h-20v4h-4v12h4v4h12v4h-12v4zM20 39h8v-4h-8v4zM4 39h8v-4h-8v4zM4 47h24v-4h-24v4zM20 3v12h-8v-12h8z" />
    <glyph glyph-name="uni01E0" unicode="&#x1e0;" 
d="M12 35h8v-4h4v-4h4v-8v-4v-16h-8v16h-8v-16h-8v16v12h4v4h4v4zM20 43h8v-4h-8v4zM4 43h8v-4h-8v4zM4 51h24v-4h-24v4zM20 19v8h-8v-8h8z" />
    <glyph glyph-name="uni01E1" unicode="&#x1e1;" 
d="M8 27h16v-4h4v-8v-12v-4h-20v4h-4v12h4v4h12v4h-12v4zM20 39h8v-4h-8v4zM4 39h8v-4h-8v4zM4 47h24v-4h-24v4zM20 3v12h-8v-12h8z" />
    <glyph glyph-name="uni01E2" unicode="&#x1e2;" 
d="M8 43h24v-4h-8v-8v-8h4v-4h-4v-16h8v-4h-16v20h-8v-20h-8v20v12v4h4v4h4v4zM4 51h24v-4h-24v4zM16 23v8h-8v-8h8z" />
    <glyph glyph-name="uni01E3" unicode="&#x1e3;" 
d="M4 27h24v-4h4v-8v-4h-12v-8h-4v-4h-12v4h-4v8h4v4h8v8h-8v4zM4 39h24v-4h-24v4zM20 3h12v-4h-12v4zM12 3v8h-4v-8h4zM24 15v8h-4v-8h4z" />
    <glyph glyph-name="Gcaron" unicode="&#x1e6;" 
d="M16 19h12v-16v-4h-20v4h-4v32h4v4h16v-4h4v-8h-8v8h-8v-32h8v12h-4v4zM20 51h8v-4h-8v4zM4 51h8v-4h-8v4zM20 47v-4h-8v4h8z" />
    <glyph glyph-name="gcaron" unicode="&#x1e7;" 
d="M8 27h20v-4v-20v-12h-4v-4h-20v4h16v8h-12v4h-4v20h4v4zM20 47h8v-4h-4v-4h-4v-4h-8v4h-4v4h-4v4h8v-4h8v4zM20 3v20h-8v-20h8z" />
    <glyph glyph-name="uni01E8" unicode="&#x1e8;" 
d="M20 39h8v-8h-4v-4h-4v-4h-4v-4h4v-4h4v-8h4v-8h-8v8h-4v8h-4v4h-4v-20h-8v20v20h8v-16h4v4h4v4h4v8zM20 51h8v-4h-8v4zM4 51h8v-4h-8v4zM20 47v-4h-8v4h8z" />
    <glyph glyph-name="uni01F0" unicode="&#x1f0;" 
d="M16 27h8v-36h-4v-4h-16v4h12v36zM20 47h8v-4h-4v-4h-4v-4h-8v4h-4v4h-4v4h8v-4h8v4z" />
    <glyph glyph-name="uni01F4" unicode="&#x1f4;" 
d="M16 19h12v-16v-4h-20v4h-4v32h4v4h16v-4h4v-8h-8v8h-8v-32h8v12h-4v4zM16 51h8v-4h-4v-4h-8v4h4v4z" />
    <glyph glyph-name="uni01F5" unicode="&#x1f5;" 
d="M8 27h20v-4v-20v-12h-4v-4h-20v4h16v8h-12v4h-4v20h4v4zM16 43h8v-4h-4v-4h-8v4h4v4zM20 3v20h-8v-20h8z" />
    <glyph glyph-name="uni01F8" unicode="&#x1f8;" 
d="M20 39h8v-16v-24h-8v16h-4v4h-4v4h-4v-24h-8v24v16h8v-8h4v-4h4v-4h4v16zM8 51h8v-4h4v-4h-8v4h-4v4z" />
    <glyph glyph-name="uni01F9" unicode="&#x1f9;" 
d="M4 27h20v-4h4v-24h-8v24h-8v-24h-8v24v4zM8 43h8v-4h4v-4h-8v4h-4v4z" />
    <glyph glyph-name="Aringacute" unicode="&#x1fa;" 
d="M12 35h8v-4h4v-4h4v-8v-4v-16h-8v16h-8v-16h-8v16v12h4v4h4v4zM24 47h8v-4h-4v-4h-8v4h-4v-4h-12v4h-4v4h4v4h12v-4h4v-4h4v4zM20 19v8h-8v-8h8zM12 43v4h-4v-4h4z" />
    <glyph glyph-name="aringacute" unicode="&#x1fb;" 
d="M8 27h16v-4h4v-8v-12v-4h-20v4h-4v12h4v4h12v4h-12v4zM24 39h8v-4h-4v-4h-8v4h-4v-4h-12v4h-4v4h4v4h12v-4h4v-4h4v4zM20 3v12h-8v-12h8zM12 35v4h-4v-4h4z" />
    <glyph glyph-name="AEacute" unicode="&#x1fc;" 
d="M8 39h24v-4h-8v-8v-8h4v-4h-4v-12h8v-4h-16v16h-8v-16h-8v16v12v4h4v4h4v4zM16 51h8v-4h-4v-4h-8v4h4v4zM16 19v8h-8v-8h8z" />
    <glyph glyph-name="aeacute" unicode="&#x1fd;" 
d="M4 27h24v-4h4v-8v-4h-12v-8h-4v-4h-12v4h-4v8h4v4h8v8h-8v4zM16 43h8v-4h-4v-4h-8v4h4v4zM20 3h12v-4h-12v4zM12 3v8h-4v-8h4zM24 15v8h-4v-8h4z" />
    <glyph glyph-name="Oslashacute" unicode="&#x1fe;" 
d="M8 39h20v-4v-28v-4h-4v-4h-20v8v28h4v4zM16 51h8v-4h-4v-4h-8v4h4v4zM20 3v4v12h-4v12h4v4h-8v-16h4v-12h-4v-4h8z" />
    <glyph glyph-name="oslashacute" unicode="&#x1ff;" 
d="M28 27h4v-4h-4v-8v-4v-4v-4h-4v-4h-16v4h-4v-4h-4v4h4v4v4v12h4v4h16v-4h4v4zM16 43h8v-4h-4v-4h-8v4h4v4zM20 3v4v4h-4v-4h-4v-4h8zM16 15v4h4v4h-8v-8h4z" />
    <glyph glyph-name="uni0200" unicode="&#x200;" 
d="M12 39h8v-4h4v-4h4v-12v-4v-16h-8v16h-8v-16h-8v16v16h4v4h4v4zM16 51h8v-4h4v-4h-8v4h-4v4zM0 51h8v-4h4v-4h-8v4h-4v4zM20 19v12h-8v-12h8z" />
    <glyph glyph-name="uni0201" unicode="&#x201;" 
d="M8 27h16v-4h4v-8v-12v-4h-20v4h-4v12h4v4h12v4h-12v4zM16 43h8v-4h4v-4h-8v4h-4v4zM0 43h8v-4h4v-4h-8v4h-4v4zM20 3v12h-8v-12h8z" />
    <glyph glyph-name="uni0202" unicode="&#x202;" 
d="M12 39h8v-4h4v-4h4v-12v-4v-16h-8v16h-8v-16h-8v16v16h4v4h4v4zM8 51h16v-4h4v-4h-8v4h-8v-4h-8v4h4v4zM20 19v12h-8v-12h8z" />
    <glyph glyph-name="uni0203" unicode="&#x203;" 
d="M8 -5h16v-4h4v-4h-8v4h-8v-4h-8v4h4v4zM8 27h16v-4h4v-8v-12v-4h-20v4h-4v12h4v4h12v4h-12v4zM20 3v12h-8v-12h8z" />
    <glyph glyph-name="uni0204" unicode="&#x204;" 
d="M4 39h24v-4h-16v-12h12v-4h-12v-16h16v-4h-24v20v16v4zM16 51h8v-4h4v-4h-8v4h-4v4zM0 51h8v-4h4v-4h-8v4h-4v4z" />
    <glyph glyph-name="uni0205" unicode="&#x205;" 
d="M8 27h16v-4h4v-8v-4h-16v-8h12v-4h-16v4h-4v8v12h4v4zM16 43h8v-4h4v-4h-8v4h-4v4zM0 43h8v-4h4v-4h-8v4h-4v4zM20 15v8h-8v-8h8z" />
    <glyph glyph-name="uni0206" unicode="&#x206;" 
d="M4 39h24v-4h-16v-12h12v-4h-12v-16h16v-4h-24v20v16v4zM8 51h16v-4h4v-4h-8v4h-8v-4h-8v4h4v4z" />
    <glyph glyph-name="uni0207" unicode="&#x207;" 
d="M8 -5h16v-4h4v-4h-8v4h-8v-4h-8v4h4v4zM8 27h16v-4h4v-8v-4h-16v-8h12v-4h-16v4h-4v8v12h4v4zM20 15v8h-8v-8h8z" />
    <glyph glyph-name="uni0208" unicode="&#x208;" 
d="M4 39h24v-4h-8v-32h8v-4h-24v4h8v32h-8v4zM16 51h8v-4h4v-4h-8v4h-4v4zM0 51h8v-4h4v-4h-8v4h-4v4z" />
    <glyph glyph-name="uni0209" unicode="&#x209;" 
d="M8 27h12v-24h4v-4h-16v4h4v20h-4v4zM16 43h8v-4h4v-4h-8v4h-4v4zM0 43h8v-4h4v-4h-8v4h-4v4z" />
    <glyph glyph-name="uni020A" unicode="&#x20a;" 
d="M4 39h24v-4h-8v-32h8v-4h-24v4h8v32h-8v4zM8 51h16v-4h4v-4h-8v4h-8v-4h-8v4h4v4z" />
    <glyph glyph-name="uni020B" unicode="&#x20b;" 
d="M8 -5h16v-4h4v-4h-8v4h-8v-4h-8v4h4v4zM8 27h12v-24h4v-4h-16v4h4v20h-4v4z" />
    <glyph glyph-name="uni020C" unicode="&#x20c;" 
d="M8 39h16v-4h4v-32h-4v-4h-16v4h-4v32h4v4zM16 51h8v-4h4v-4h-8v4h-4v4zM0 51h8v-4h4v-4h-8v4h-4v4zM20 3v32h-8v-32h8z" />
    <glyph glyph-name="uni020D" unicode="&#x20d;" 
d="M8 27h16v-4h4v-20h-4v-4h-16v4h-4v20h4v4zM16 43h8v-4h4v-4h-8v4h-4v4zM0 43h8v-4h4v-4h-8v4h-4v4zM20 3v20h-8v-20h8z" />
    <glyph glyph-name="uni020E" unicode="&#x20e;" 
d="M8 39h16v-4h4v-32h-4v-4h-16v4h-4v32h4v4zM8 51h16v-4h4v-4h-8v4h-8v-4h-8v4h4v4zM20 3v32h-8v-32h8z" />
    <glyph glyph-name="uni020F" unicode="&#x20f;" 
d="M8 -5h16v-4h4v-4h-8v4h-8v-4h-8v4h4v4zM8 27h16v-4h4v-20h-4v-4h-16v4h-4v20h4v4zM20 3v20h-8v-20h8z" />
    <glyph glyph-name="uni0210" unicode="&#x210;" 
d="M4 39h20v-4h4v-12h-4v-4v-4h4v-16h-8v16h-4v4h-4v-20h-8v20v16v4zM16 51h8v-4h4v-4h-8v4h-4v4zM0 51h8v-4h4v-4h-8v4h-4v4zM20 23v12h-8v-12h8z" />
    <glyph glyph-name="uni0211" unicode="&#x211;" 
d="M4 27h20v-4h4v-8h-8v8h-8v-24h-8v24v4zM16 43h8v-4h4v-4h-8v4h-4v4zM0 43h8v-4h4v-4h-8v4h-4v4z" />
    <glyph glyph-name="uni0212" unicode="&#x212;" 
d="M4 39h20v-4h4v-12h-4v-4v-4h4v-16h-8v16h-4v4h-4v-20h-8v20v16v4zM8 51h16v-4h4v-4h-8v4h-8v-4h-8v4h4v4zM20 23v12h-8v-12h8z" />
    <glyph glyph-name="uni0213" unicode="&#x213;" 
d="M8 -5h16v-4h4v-4h-8v4h-8v-4h-8v4h4v4zM4 27h20v-4h4v-8h-8v8h-8v-24h-8v24v4z" />
    <glyph glyph-name="uni0214" unicode="&#x214;" 
d="M20 39h8v-36h-4v-4h-16v4h-4v36h8v-36h8v36zM16 51h8v-4h4v-4h-8v4h-4v4zM0 51h8v-4h4v-4h-8v4h-4v4z" />
    <glyph glyph-name="uni0215" unicode="&#x215;" 
d="M20 27h8v-24v-4h-20v4h-4v24h8v-24h8v24zM16 43h8v-4h4v-4h-8v4h-4v4zM0 43h8v-4h4v-4h-8v4h-4v4z" />
    <glyph glyph-name="uni0216" unicode="&#x216;" 
d="M20 39h8v-36h-4v-4h-16v4h-4v36h8v-36h8v36zM8 51h16v-4h4v-4h-8v4h-8v-4h-8v4h4v4z" />
    <glyph glyph-name="uni0217" unicode="&#x217;" 
d="M8 -5h16v-4h4v-4h-8v4h-8v-4h-8v4h4v4zM20 27h8v-24v-4h-20v4h-4v24h8v-24h8v24z" />
    <glyph glyph-name="uni0218" unicode="&#x218;" 
d="M12 -5h8v-4h-4v-4h-8v4h4v4zM4 11h8v-8h8v8v4h-4v4h-4v4h-4v4h-4v12h4v4h16v-4h4v-8h-8v8h-8v-12h4v-4h4v-4h4v-4h4v-4v-8h-4v-4h-16v4h-4v8z" />
    <glyph glyph-name="uni0219" unicode="&#x219;" 
d="M12 -5h8v-4h-4v-4h-8v4h4v4zM8 27h20v-4h-16v-8h12v-4h4v-8h-4v-4h-20v4h16v8h-12v4h-4v8h4v4z" />
    <glyph glyph-name="uni021A" unicode="&#x21a;" 
d="M12 -5h8v-4h-4v-4h-8v4h4v4zM4 43h24v-4h-8v-40h-8v40h-8v4z" />
    <glyph glyph-name="uni021B" unicode="&#x21b;" 
d="M12 -5h8v-4h-4v-4h-8v4h4v4zM8 39h8v-12h12v-4h-12v-20h12v-4h-16v4h-4v20h-4v4h4v12z" />
    <glyph glyph-name="uni0226" unicode="&#x226;" 
d="M12 39h8v-4h4v-4h4v-12v-4v-16h-8v16h-8v-16h-8v16v16h4v4h4v4zM12 51h8v-8h-8v8zM20 19v12h-8v-12h8z" />
    <glyph glyph-name="uni0227" unicode="&#x227;" 
d="M8 27h16v-4h4v-8v-12v-4h-20v4h-4v12h4v4h12v4h-12v4zM12 43h8v-8h-8v8zM20 3v12h-8v-12h8z" />
    <glyph glyph-name="uni022A" unicode="&#x22a;" 
d="M8 35h16v-4h4v-28h-4v-4h-16v4h-4v28h4v4zM20 43h8v-4h-8v4zM4 43h8v-4h-8v4zM4 51h24v-4h-24v4zM20 3v28h-8v-28h8z" />
    <glyph glyph-name="uni022B" unicode="&#x22b;" 
d="M8 27h16v-4h4v-20h-4v-4h-16v4h-4v20h4v4zM20 39h8v-4h-8v4zM4 39h8v-4h-8v4zM4 47h24v-4h-24v4zM20 3v20h-8v-20h8z" />
    <glyph glyph-name="uni022C" unicode="&#x22c;" 
d="M20 43h8v-4h-4v-4v-4h4v-28h-4v-4h-16v4h-4v28h4v4h-8v4h4v4h12v-4h4v4zM0 51h28v-4h-28v4zM20 3v28h-8v-28h8zM12 35v4h-4v-4h4z" />
    <glyph glyph-name="uni022D" unicode="&#x22d;" 
d="M8 27h16v-4h4v-20h-4v-4h-16v4h-4v20h4v4zM20 43h8v-4h-4v-4h-12v4h-4v-4h-8v4h4v4h12v-4h4v4zM0 51h28v-4h-28v4zM20 3v20h-8v-20h8z" />
    <glyph glyph-name="uni022E" unicode="&#x22e;" 
d="M8 39h16v-4h4v-32h-4v-4h-16v4h-4v32h4v4zM12 51h8v-8h-8v8zM20 3v32h-8v-32h8z" />
    <glyph glyph-name="uni022F" unicode="&#x22f;" 
d="M8 27h16v-4h4v-20h-4v-4h-16v4h-4v20h4v4zM12 43h8v-8h-8v8zM20 3v20h-8v-20h8z" />
    <glyph glyph-name="uni0230" unicode="&#x230;" 
d="M8 35h16v-4h4v-28h-4v-4h-16v4h-4v28h4v4zM20 43h8v-4h-8v4zM4 43h8v-4h-8v4zM4 51h24v-4h-24v4zM20 3v28h-8v-28h8z" />
    <glyph glyph-name="uni0231" unicode="&#x231;" 
d="M8 27h16v-4h4v-20h-4v-4h-16v4h-4v20h4v4zM20 39h8v-4h-8v4zM4 39h8v-4h-8v4zM4 47h24v-4h-24v4zM20 3v20h-8v-20h8z" />
    <glyph glyph-name="uni0232" unicode="&#x232;" 
d="M24 43h8v-8h-4v-8h-4v-4h-4v-24h-8v24h-4v4h-4v8h-4v8h8v-8h4v-8h8v8h4v8zM4 51h24v-4h-24v4z" />
    <glyph glyph-name="uni0233" unicode="&#x233;" 
d="M20 27h8v-24v-12h-4v-4h-16v4h12v8h-12v4h-4v24h8v-24h8v24zM4 39h24v-4h-24v4z" />
    <glyph glyph-name="uni0258" unicode="&#x258;" 
d="M8 27h16v-4h4v-8v-12h-4v-4h-16v4h12v8h-16v12h4v4zM20 15v8h-8v-8h8z" />
    <glyph glyph-name="uni0259" unicode="&#x259;" 
d="M8 27h16v-4h4v-12v-8h-4v-4h-16v4h-4v8v4h16v8h-12v4zM20 3v8h-8v-8h8z" />
    <glyph glyph-name="uni025B" unicode="&#x25b;" 
d="M20 7h8v-4h-4v-4h-16v4h-4v8h4v4h-4v8h4v4h16v-4h4v-4h-8v4h-8v-8h8v-4h-8v-8h8v4z" />
    <glyph glyph-name="uni025C" unicode="&#x25c;" 
d="M4 7h8v-4h8v4v4h-8v4h8v8h-8v-4h-8v4h4v4h16v-4h4v-8h-4v-4h4v-4v-4h-4v-4h-16v4h-4v4z" />
    <glyph glyph-name="uni0263" unicode="&#x263;" 
d="M20 27h8v-16h-4v-8h-4v-4h4v-4h-4v-4h-12v4h-4v4h4v4h-4v8h-4v16h8v-16h4v-8h4v8h4v16zM16 -5v4h-4v-4h4z" />
    <glyph glyph-name="uni026A" unicode="&#x26a;" 
d="M4 27h24v-4h-8v-20h8v-4h-24v4h8v20h-8v4z" />
    <glyph glyph-name="uni028A" unicode="&#x28a;" 
d="M16 27h12v-4h-4v-4h4v-16h-4v-4h-20v4h-4v16h4v4h-4v4h12v-4h-4v-20h12v20h-4v4z" />
    <glyph glyph-name="uni028B" unicode="&#x28b;" 
d="M16 27h8v-4h4v-20h-4v-4h-16v4h-4v24h8v-24h8v20h-4v4z" />
    <glyph glyph-name="uni028C" unicode="&#x28c;" 
d="M12 27h8v-4h4v-4h4v-20h-8v20h-8v-20h-8v20h4v4h4v4z" />
    <glyph glyph-name="uni028D" unicode="&#x28d;" 
d="M16 27h8v-4h4v-24h-8v24h-4v-20h-4v20h4v4zM4 27h8v-4h-4v-24h-8v24h4v4z" />
    <glyph glyph-name="uni028E" unicode="&#x28e;" 
d="M12 43h16v-4h-12v-8h-4v-4h8v-4h4v-24h-8v24h-8v-24h-8v24h4v8h4v8h4v4z" />
    <glyph glyph-name="uni028F" unicode="&#x28f;" 
d="M20 27h8v-12h-4v-4h-4v-12h-8v12h-4v4h-4v12h8v-12h8v12z" />
    <glyph glyph-name="uni0290" unicode="&#x290;" 
d="M0 27h24v-8h-4v-4h-4v-4h-4v-4h-4v-4h16v-12h4v-4h-8v4h-4v8h-16v8h4v4h4v4h4v4h4v4h-16v4z" />
    <glyph glyph-name="uni0291" unicode="&#x291;" 
d="M0 27h24v-8h-4v-4h4v-4h4v-4v-4h-4v4v4h-4v-4v-4h4v-4h-4v-8h-4v8h-16v8h4v4h4v4h4v4h4v4h-16v4zM16 3v4v4h4v4h-4v-4h-4v-4h-4v-4h8z" />
    <glyph glyph-name="uni0292" unicode="&#x292;" 
d="M4 -5h8v-4h8v4v12h-12v4h4v4h4v4h4v4h-16v4h24v-8h-4v-4h-4v-4h4v-4h4v-12v-4h-4v-4h-16v4h-4v4z" />
    <glyph glyph-name="uni0293" unicode="&#x293;" 
d="M0 27h24v-8h-4v-4h-4v-4h4v-4h4v-8h4v-4h-4v-4h-4v-4h-16v4h-4v8h4v4h12v4h-12v4h4v4h4v4h4v4h-16v4zM16 -5v4h-8v-8h8v4z" />
    <glyph glyph-name="uni0294" unicode="&#x294;" 
d="M8 47h16v-4h4v-16h-4v-4h-4v-24h-8v24v4h8v16h-8v-8h-8v8h4v4z" />
    <glyph glyph-name="uni0295" unicode="&#x295;" 
d="M8 43h16v-4h4v-12h-8v12h-8v-16h4v-4h4v-20h-8v20h-4v4h-4v16h4v4z" />
    <glyph glyph-name="uni0296" unicode="&#x296;" 
d="M4 15h8v-12h8v12v4h-4v4h-4v20h8v-20h4v-4h4v-4v-12h-4v-4h-16v4h-4v12z" />
    <glyph glyph-name="circumflex" unicode="&#x2c6;" 
d="M12 51h8v-4h8v-4h-8v4h-8v-4h-8v4h8v4z" />
    <glyph glyph-name="uni02C9" unicode="&#x2c9;" 
d="M8 51h16v-4h-16v4z" />
    <glyph glyph-name="uni02CD" unicode="&#x2cd;" 
d="M8 -9h16v-4h-16v4z" />
    <glyph glyph-name="tilde" unicode="&#x2dc;" 
d="M20 43h8v-4h-4v-4h-12v4h-4v-4h-8v4h4v4h12v-4h4v4zM0 51h28v-4h-28v4z" />
    <glyph glyph-name="gravecomb" unicode="&#x300;" 
d="M8 51h8v-4h4v-4h-8v4h-4v4z" />
    <glyph glyph-name="acutecomb" unicode="&#x301;" 
d="M16 51h8v-4h-4v-4h-8v4h4v4z" />
    <glyph glyph-name="uni0302" unicode="&#x302;" 
d="M12 51h8v-4h8v-4h-8v4h-8v-4h-8v4h8v4z" />
    <glyph glyph-name="tildecomb" unicode="&#x303;" 
d="M20 51h8v-4h-4v-4h-12v4h-4v-4h-8v4h4v4h12v-4h4v4z" />
    <glyph glyph-name="uni0304" unicode="&#x304;" 
d="M4 51h24v-4h-24v4z" />
    <glyph glyph-name="uni0305" unicode="&#x305;" 
d="M0 51h32v-4h-32v4z" />
    <glyph glyph-name="uni0306" unicode="&#x306;" 
d="M20 51h8v-4h-4v-4h-16v4h-4v4h8v-4h8v4z" />
    <glyph glyph-name="uni0307" unicode="&#x307;" 
d="M12 51h8v-8h-8v8z" />
    <glyph glyph-name="uni0308" unicode="&#x308;" 
d="M20 51h8v-8h-8v8zM4 51h8v-8h-8v8z" />
    <glyph glyph-name="hookabovecomb" unicode="&#x309;" 
d="M8 51h12v-4h4v-4h-4v-4h-8v4h4v4h-8v4z" />
    <glyph glyph-name="uni030A" unicode="&#x30a;" 
d="M8 51h16v-4h4v-4h-4v-4h-16v4h-4v4h4v4zM20 43v4h-8v-4h8z" />
    <glyph glyph-name="uni030B" unicode="&#x30b;" 
d="M20 51h8v-4h-4v-4h-8v4h4v4zM4 51h8v-4h-4v-4h-8v4h4v4z" />
    <glyph glyph-name="uni030C" unicode="&#x30c;" 
d="M20 51h8v-4h-8v4zM4 51h8v-4h-8v4zM20 47v-4h-8v4h8z" />
    <glyph glyph-name="uni030D" unicode="&#x30d;" 
d="M20 51h8v-12h-8v12zM4 51h8v-12h-8v12z" />
    <glyph glyph-name="uni030F" unicode="&#x30f;" 
d="M16 51h8v-4h4v-4h-8v4h-4v4zM0 51h8v-4h4v-4h-8v4h-4v4z" />
    <glyph glyph-name="uni0310" unicode="&#x310;" 
d="M24 51h4v-4h-4v4zM12 51h8v-4h-8v4zM4 51h4v-4h-4v4zM24 47v-4h-4v4h4zM20 43v-4h-8v4h-4v4h4v-4h8z" />
    <glyph glyph-name="uni0311" unicode="&#x311;" 
d="M8 51h16v-4h4v-4h-8v4h-8v-4h-8v4h4v4z" />
    <glyph glyph-name="uni0313" unicode="&#x313;" 
d="M12 51h8v-8h-4v-4h-8v4h4v8z" />
    <glyph glyph-name="uni0314" unicode="&#x314;" 
d="M8 51h8v-8h4v-4h-8v4h-4v8z" />
    <glyph glyph-name="uni0315" unicode="&#x315;" 
d="M24 51h8v-8h-4v-4h-8v4h4v8z" />
    <glyph glyph-name="uni0316" unicode="&#x316;" 
d="M12 -5h8v-4h4v-4h-8v4h-4v4z" />
    <glyph glyph-name="uni0317" unicode="&#x317;" 
d="M12 -5h8v-4h-4v-4h-8v4h4v4z" />
    <glyph glyph-name="uni0318" unicode="&#x318;" 
d="M8 -1h4v-4h12v-4h-12v-4h-4v4v8z" />
    <glyph glyph-name="uni031B" unicode="&#x31b;" 
d="M24 51h8v-4h-4v-4h-8v4h4v4z" />
    <glyph glyph-name="uni031C" unicode="&#x31c;" 
d="M12 -1h8v-4h-8v-4h-4v4h4v4zM12 -9h8v-4h-8v4z" />
    <glyph glyph-name="uni031F" unicode="&#x31f;" 
d="M12 -1h4v-4h8v-4h-8v-4h-4v4h-8v4h8v4z" />
    <glyph glyph-name="uni0320" unicode="&#x320;" 
d="M8 -5h16v-4v-4h-4v4h-8v-4h-4v4v4z" />
    <glyph glyph-name="uni0321" unicode="&#x321;" 
d="M20 3h8v-12h-4v-4h-16v4h12v12z" />
    <glyph glyph-name="uni0322" unicode="&#x322;" 
d="M16 3h8v-12h8v-4h-12v4h-4v12z" />
    <glyph glyph-name="dotbelowcomb" unicode="&#x323;" 
d="M12 -5h8v-8h-8v8z" />
    <glyph glyph-name="uni0324" unicode="&#x324;" 
d="M20 -5h8v-8h-8v8zM4 -5h8v-8h-8v8z" />
    <glyph glyph-name="uni0325" unicode="&#x325;" 
d="M12 -1h8v-4h4v-4h-4v4h-8v-4h-4v4h4v4zM20 -9v-4h-8v4h8z" />
    <glyph glyph-name="uni0326" unicode="&#x326;" 
d="M12 -5h8v-4h-4v-4h-8v4h4v4z" />
    <glyph glyph-name="uni0327" unicode="&#x327;" 
d="M16 -1h8v-4h4v-4h-4v-4h-12v4h8v4h-4v4z" />
    <glyph glyph-name="uni0328" unicode="&#x328;" 
d="M16 -1h8v-4h-4v-4h8v-4h-12v4h-4v4h4v4z" />
    <glyph glyph-name="uni0329" unicode="&#x329;" 
d="M12 -1h8v-12h-8v12z" />
    <glyph glyph-name="uni032B" unicode="&#x32b;" 
d="M24 -5h4v-4h-4v4zM12 -5h4v-4h-4v4zM0 -5h4v-4h-4v4zM24 -9v-4h-8v4h8zM12 -9v-4h-8v4h8z" />
    <glyph glyph-name="uni032C" unicode="&#x32c;" 
d="M20 -5h8v-4h-8v4zM4 -5h8v-4h-8v4zM20 -9v-4h-8v4h8z" />
    <glyph glyph-name="uni032E" unicode="&#x32e;" 
d="M20 -5h8v-4h-4v-4h-16v4h-4v4h8v-4h8v4z" />
    <glyph glyph-name="uni0330" unicode="&#x330;" 
d="M20 23h8v-4h-4v-4h-12v4h-4v-4h-8v4h4v4h12v-4h4v4z" />
    <glyph glyph-name="uni0332" unicode="&#x332;" 
d="M0 -9h32v-4h-32v4z" />
    <glyph glyph-name="uni0333" unicode="&#x333;" 
d="M0 -9h32v-4h-32v4zM0 -1h32v-4h-32v4z" />
    <glyph glyph-name="uni0335" unicode="&#x335;" 
d="M4 23h24v-4h-24v4z" />
    <glyph glyph-name="uni0336" unicode="&#x336;" 
d="M0 23h32v-4h-32v4z" />
    <glyph glyph-name="uni0337" unicode="&#x337;" 
d="M20 39h8v-8h-4v-8h-4v-8h-4v-8h-4v-8h-8v8h4v8h4v8h4v8h4v8z" />
    <glyph glyph-name="uni0338" unicode="&#x338;" 
d="M24 51h8v-8h-4v-8h-4v-8h-4v-8h-4v-8h-4v-8h-4v-8h-4v-8h-4v8v8h4v8h4v8h4v8h4v8h4v8h4v8z" />
    <glyph glyph-name="uni0339" unicode="&#x339;" 
d="M12 -1h8v-4h-8v4zM20 -9v-4h-8v4h8zM20 -9v4h4v-4h-4z" />
    <glyph glyph-name="uni033A" unicode="&#x33a;" 
d="M20 -5h4v-4v-4h-16v8h4v-4h8v4z" />
    <glyph glyph-name="uni033B" unicode="&#x33b;" 
d="M8 -1h16v-4v-4v-4h-16v8v4zM20 -9v4h-8v-4h8z" />
    <glyph glyph-name="uni033C" unicode="&#x33c;" 
d="M16 -5h8v-4h4v-4h-4v4h-8v-4h-4v4h4v4zM4 -5h8v-4h-8v-4h-4v4h4v4z" />
    <glyph glyph-name="uni033D" unicode="&#x33d;" 
d="M16 51h8v-4h-4v-4h4v-4h-8v4h-4v-4h-8v4h4v4h-4v4h8v-4h4v4z" />
    <glyph glyph-name="uni033E" unicode="&#x33e;" 
d="M0 43h32v-4h-32v4zM0 51h32v-4h-32v4z" />
    <glyph glyph-name="uni0340" unicode="&#x340;" 
d="M8 51h8v-4h4v-4h-8v4h-4v4z" />
    <glyph glyph-name="uni0341" unicode="&#x341;" 
d="M16 51h8v-4h-4v-4h-8v4h4v4z" />
    <glyph glyph-name="uni0342" unicode="&#x342;" 
d="M20 51h8v-4h-4v-4h-12v4h-4v-4h-8v4h4v4h12v-4h4v4z" />
    <glyph glyph-name="uni0343" unicode="&#x343;" 
d="M12 51h8v-4h-4v-8h-8v8h4v4z" />
    <glyph glyph-name="uni0344" unicode="&#x344;" 
d="M24 43h8v-4h-8v4zM0 43h8v-4h-8v4zM16 51h8v-4h-4v-4h-8v4h4v4z" />
    <glyph glyph-name="uni034F" unicode="&#x34f;" 
d="M0 51z" />
    <glyph glyph-name="uni0362" unicode="&#x362;" 
d="M24 -1h4v-4h4v-4h-4v-4h-4v4h-16v4h16v4z" />
    <glyph glyph-name="Alpha" unicode="&#x391;" 
d="M12 43h8v-4h4v-4h4v-12v-4v-20h-8v20h-8v-20h-8v20v16h4v4h4v4zM20 23v12h-8v-12h8z" />
    <glyph glyph-name="Beta" unicode="&#x392;" 
d="M4 43h20v-4h4v-12h-4v-4h-4v-4h4v-4h4v-12h-4v-4h-20v20v20v4zM20 3v12h-4v4h-4v-16h8zM20 27v12h-8v-16h4v4h4z" />
    <glyph glyph-name="Gamma" unicode="&#x393;" 
d="M4 43h24v-4h-16v-40h-8v40v4z" />
    <glyph glyph-name="uni0394" unicode="&#x394;" 
d="M12 43h4v-4h4v-4h4v-4h4v-28v-4h-28v32h4v4h4v4h4v4zM20 3v28h-4v4h-4v-4h-4v-28h12z" />
    <glyph glyph-name="Epsilon" unicode="&#x395;" 
d="M4 43h24v-4h-16v-16h12v-4h-12v-16h16v-4h-24v20v20v4z" />
    <glyph glyph-name="Zeta" unicode="&#x396;" 
d="M4 43h24v-12h-4v-8h-4v-4h-4v-8h-4v-8h16v-4h-24v12h4v8h4v4h4v8h4v8h-16v4z" />
    <glyph glyph-name="Eta" unicode="&#x397;" 
d="M20 43h8v-20v-4v-20h-8v20h-8v-20h-8v20v24h8v-20h8v20z" />
    <glyph glyph-name="Theta" unicode="&#x398;" 
d="M4 43h20v-4h4v-16v-4v-16h-4v-4h-20v4h-4v16v20h4v4zM20 3v16h-12v-16h12zM20 23v16h-12v-16h12z" />
    <glyph glyph-name="Iota" unicode="&#x399;" 
d="M4 43h24v-4h-8v-36h8v-4h-24v4h8v36h-8v4z" />
    <glyph glyph-name="Kappa" unicode="&#x39a;" 
d="M20 43h8v-8h-4v-8h-4v-4h-4v-4h4v-4h4v-8h4v-8h-8v8h-4v8h-4v4h-4v-20h-8v20v24h8v-20h4v4h4v8h4v8z" />
    <glyph glyph-name="Lambda" unicode="&#x39b;" 
d="M12 43h4v-4h4v-4h4v-4h4v-32h-8v32h-4v4h-4v-4h-4v-32h-8v32h4v4h4v4h4v4z" />
    <glyph glyph-name="Mu" unicode="&#x39c;" 
d="M20 43h8v-12v-4v-28h-8v28h-4v-8h-4v8h-4v-28h-8v28v16h8v-4h4v-8h4v8h4v4z" />
    <glyph glyph-name="Nu" unicode="&#x39d;" 
d="M20 43h8v-20v-4v-20h-8v8h-4v8h-4v4h-4v-20h-8v20v24h8v-8h4v-8h4v-4h4v20z" />
    <glyph glyph-name="Xi" unicode="&#x39e;" 
d="M20 7h8v-4v-4h-28v8h8v-4h12v4zM4 23h20v-4h-20v4zM0 43h28v-4v-4h-8v4h-12v-4h-8v4v4z" />
    <glyph glyph-name="Omicron" unicode="&#x39f;" 
d="M8 43h16v-4h4v-36h-4v-4h-16v4h-4v36h4v4zM20 3v36h-8v-36h8z" />
    <glyph glyph-name="Pi" unicode="&#x3a0;" 
d="M0 43h28v-4v-40h-8v40h-12v-40h-8v40v4z" />
    <glyph glyph-name="Rho" unicode="&#x3a1;" 
d="M4 43h20v-4h4v-16h-4v-4h-12v-20h-8v20v20v4zM20 23v16h-8v-16h8z" />
    <glyph glyph-name="Sigma" unicode="&#x3a3;" 
d="M0 43h28v-4h-20v-4h4v-4h4v-4h4v-4h4v-4h-4v-4h-4v-4h-4v-4h-4v-4h20v-4h-28v8h4v4h4v4h4v4h4v4h-4v4h-4v4h-4v4h-4v4v4z" />
    <glyph glyph-name="Tau" unicode="&#x3a4;" 
d="M4 43h24v-4h-8v-40h-8v40h-8v4z" />
    <glyph glyph-name="Upsilon" unicode="&#x3a5;" 
d="M20 43h8v-20h-4v-4h-4v-20h-8v20h-4v4h-4v20h8v-20h8v20z" />
    <glyph glyph-name="Phi" unicode="&#x3a6;" 
d="M12 51h4v-12h8v-4h4v-20h-4v-4h-8v-12h-4v12h-8v4h-4v20h4v4h8v12zM16 15h4v20h-4v-20zM12 15v20h-4v-20h4z" />
    <glyph glyph-name="Chi" unicode="&#x3a7;" 
d="M24 43h8v-8h-4v-4h-4v-4h-4v-12h4v-4h4v-4h4v-8h-8v8h-4v4h-8v-4h-4v-8h-8v8h4v4h4v4h4v12h-4v4h-4v4h-4v8h8v-8h4v-4h8v4h4v8z" />
    <glyph glyph-name="Psi" unicode="&#x3a8;" 
d="M20 35h8v-20h-4v-4h-8v-12h-4v12h-8v4h-4v20h8v-20h4v20v4h4v-4v-20h4v20z" />
    <glyph glyph-name="uni03A9" unicode="&#x3a9;" 
d="M4 39h20v-4h4v-24h-4v-8h4v-4h-12v12v4h4v20h-12v-20h4v-16h-12v4h4v8h-4v24h4v4z" />
    <glyph glyph-name="alpha" unicode="&#x3b1;" 
d="M20 27h8v-4v-24h-8v4h-4v4h4v12h-4v4h4v4zM4 27h12v-4h-8v-20h8v-4h-12v4h-4v20h4v4z" />
    <glyph glyph-name="beta" unicode="&#x3b2;" 
d="M4 43h20v-4h4v-16h-4v-4h4v-16h-4v-4h-12v4h8v16h-12v-12h4v-4h-4v-12h-8v12v16v20h4v4zM20 23v16h-12v-16h12z" />
    <glyph glyph-name="gamma" unicode="&#x3b3;" 
d="M20 27h8v-12h-4v-8h-4v-4h4v-8h-4v-4h-12v4h-4v8h4v4h-4v8h-4v12h8v-12h4v-8h4v8h4v12zM16 -5v8h-4v-8h4z" />
    <glyph glyph-name="delta" unicode="&#x3b4;" 
d="M0 43h28v-4h-20v-8h4v-4h4v-4h4v-4h4v-4h4v-12h-4v-4h-20v4h-4v12h4v4h8v4h-4v4h-4v4h-4v8v4zM20 3v12h-12v-12h12z" />
    <glyph glyph-name="epsilon" unicode="&#x3b5;" 
d="M8 27h20v-4h-16v-8h12v-4h-12v-8h16v-4h-20v4h-4v8h4v4h-4v8h4v4z" />
    <glyph glyph-name="zeta" unicode="&#x3b6;" 
d="M0 43h28v-8h-4v-4h-4v-4h-4v-4h-4v-4h-4v-16h16v-4h4v-4h-4v-4h-12v4h8v4h-16v4h-4v16h4v4h4v4h4v4h4v4h4v4h-20v4z" />
    <glyph glyph-name="eta" unicode="&#x3b7;" 
d="M4 27h20v-4h4v-32h-8v32h-8v-24h-8v24v4z" />
    <glyph glyph-name="theta" unicode="&#x3b8;" 
d="M8 43h16v-4h4v-16v-4v-16h-4v-4h-16v4h-4v16v20h4v4zM20 3v16h-8v-16h8zM20 23v16h-8v-16h8z" />
    <glyph glyph-name="iota" unicode="&#x3b9;" 
d="M12 27h8v-24h4v-4h-8v4h-4v24z" />
    <glyph glyph-name="kappa" unicode="&#x3ba;" 
d="M20 27h8v-8h-4v-4h-4v-4h4v-4h4v-8h-8v8h-4v4h-4v-12h-8v12v16h8v-12h4v4h4v8z" />
    <glyph glyph-name="lambda" unicode="&#x3bb;" 
d="M4 43h20v-4h4v-20v-4v-16h-8v16v4h-8v-4h-4v-16h-8v16h4v4h4v4h12v16h-12v-4h-8v4h4v4z" />
    <glyph glyph-name="uni03BC" unicode="&#x3bc;" 
d="M16 27h8v-24h4v-4h-8v4h-4v24zM0 27h8v-24h8v-4h-8v-8h-8v8v28z" />
    <glyph glyph-name="nu" unicode="&#x3bd;" 
d="M20 27h8v-20h-4v-4h-4v-4h-8v4h-4v4h-4v20h8v-20h8v20z" />
    <glyph glyph-name="xi" unicode="&#x3be;" 
d="M0 43h28v-8h-4v-4h-4v-4h-4v-4h-4v-8h12v-4h-12v-4h-4v-4h16v-4h4v-4h-4v-4h-16v4h12v4h-16v4h-4v4h4v4h4v4h-4v8h4v4h4v4h4v4h4v4h-20v4z" />
    <glyph glyph-name="omicron" unicode="&#x3bf;" 
d="M8 27h16v-4h4v-20h-4v-4h-16v4h-4v20h4v4zM20 3v20h-8v-20h8z" />
    <glyph glyph-name="pi" unicode="&#x3c0;" 
d="M0 27h28v-4h-4v-24h-8v24h-4v-24h-8v24h-4v4z" />
    <glyph glyph-name="rho" unicode="&#x3c1;" 
d="M8 27h16v-4h4v-20h-4v-4h-12v-8h-8v8v24h4v4zM20 3v20h-8v-20h8z" />
    <glyph glyph-name="sigma1" unicode="&#x3c2;" 
d="M4 35h20v-8h4v-8h-8v8h-12v-24h16v-8h4v-8h-8v8h-16v8h-4v24h4v8z" />
    <glyph glyph-name="sigma" unicode="&#x3c3;" 
d="M4 27h24v-4h-4v-4h4v-16h-4v-4h-20v4h-4v20h4v4zM20 3v16h-4v4h-8v-20h12z" />
    <glyph glyph-name="tau" unicode="&#x3c4;" 
d="M4 27h24v-4h-8v-20h4v-4h-8v4h-4v20h-8v4z" />
    <glyph glyph-name="upsilon" unicode="&#x3c5;" 
d="M20 27h8v-24h-4v-4h-16v4h-4v20h-4v4h8v-4h4v-20h8v24z" />
    <glyph glyph-name="phi" unicode="&#x3c6;" 
d="M12 19h12v-4h4v-12h-4v-4h-8v-8h-4v8h-8v4h-4v20h4v4h20v-4h-16v-20h4v12v4zM16 15v-12h4v12h-4z" />
    <glyph glyph-name="chi" unicode="&#x3c7;" 
d="M20 27h8v-8h-4v-4h-4v-4h4v-4h4v-8h-8v8h-4v4h-4v-4h-4v-8h-8v8h4v4h4v4h-4v4h-4v8h8v-8h4v-4h4v4h4v8z" />
    <glyph glyph-name="psi" unicode="&#x3c8;" 
d="M20 27h8v-24h-4v-4h-8v-8h-4v8h-8v4h-4v24h8v-24h4v24h4v-24h4v24z" />
    <glyph glyph-name="omega" unicode="&#x3c9;" 
d="M12 19h4v-16h-4v16zM16 27h8v-4h4v-4v-16h-4v-4h-8v4h4v16v4h-4v4zM4 27h8v-4h-4v-20h4v-4h-8v4h-4v20h4v4z" />
    <glyph glyph-name="uni0400" unicode="&#x400;" 
d="M4 39h24v-4h-16v-12h12v-4h-12v-16h16v-4h-24v20v16v4zM8 51h8v-4h4v-4h-8v4h-4v4z" />
    <glyph glyph-name="uni0401" unicode="&#x401;" 
d="M4 39h24v-4h-16v-12h12v-4h-12v-16h16v-4h-24v20v16v4zM20 51h8v-8h-8v8zM4 51h8v-8h-8v8z" />
    <glyph glyph-name="uni0405" unicode="&#x405;" 
d="M4 11h8v-8h8v8v4h-4v4h-4v4h-4v4h-4v12h4v4h16v-4h4v-8h-8v8h-8v-12h4v-4h4v-4h4v-4h4v-4v-8h-4v-4h-16v4h-4v8z" />
    <glyph glyph-name="uni0406" unicode="&#x406;" 
d="M4 43h24v-4h-8v-36h8v-4h-24v4h8v36h-8v4z" />
    <glyph glyph-name="uni0407" unicode="&#x407;" 
d="M4 39h24v-4h-8v-32h8v-4h-24v4h8v32h-8v4zM20 51h8v-8h-8v8zM4 51h8v-8h-8v8z" />
    <glyph glyph-name="uni0408" unicode="&#x408;" 
d="M4 11h8v-8h8v8v32h8v-32v-8h-4v-4h-16v4h-4v8z" />
    <glyph glyph-name="uni0409" unicode="&#x409;" 
d="M8 43h16v-4v-16h4v-4h4v-16h-4v-4h-12v4v16v20h-4v-36h-4v-4h-8v4h4v36h4v4zM28 3v16h-4v-16h4z" />
    <glyph glyph-name="uni0410" unicode="&#x410;" 
d="M12 43h8v-4h4v-4h4v-12v-4v-20h-8v20h-8v-20h-8v20v16h4v4h4v4zM20 23v12h-8v-12h8z" />
    <glyph glyph-name="uni0411" unicode="&#x411;" 
d="M4 43h24v-4h-16v-16h12v-4h4v-16h-4v-4h-20v20v20v4zM20 3v16h-8v-16h8z" />
    <glyph glyph-name="uni0412" unicode="&#x412;" 
d="M4 43h20v-4h4v-12h-4v-4h-4v-4h4v-4h4v-12h-4v-4h-20v20v20v4zM20 3v12h-4v4h-4v-16h8zM20 27v12h-8v-16h4v4h4z" />
    <glyph glyph-name="uni0413" unicode="&#x413;" 
d="M4 43h24v-4h-16v-40h-8v40v4z" />
    <glyph glyph-name="uni0414" unicode="&#x414;" 
d="M12 43h16v-4v-4v-32h4v-4v-8h-8v8h-16v-8h-8v8v4h4v32h4v4h4v4zM20 3v32v4h-4v-4h-4v-32h8z" />
    <glyph glyph-name="uni0415" unicode="&#x415;" 
d="M4 43h24v-4h-16v-16h12v-4h-12v-16h16v-4h-24v20v20v4z" />
    <glyph glyph-name="uni0416" unicode="&#x416;" 
d="M20 43h8v-16h-4v-4h-4v-4h4v-4h4v-16h-8v16h-4v-16h-4v16h-4v-16h-8v16h4v4h4v4h-4v4h-4v16h8v-16h4v16h4v-16h4v16z" />
    <glyph glyph-name="uni0417" unicode="&#x417;" 
d="M4 11h8v-8h8v8v8h-8v4h8v16h-8v-8h-8v8h4v4h16v-4h4v-16h-4v-4h4v-8v-8h-4v-4h-16v4h-4v8z" />
    <glyph glyph-name="uni0418" unicode="&#x418;" 
d="M20 43h8v-20v-4v-4v-8v-8h-8v8v8v4h-4v-4h-4v-8h-4v-8h-8v8v8v4v24h8v-20h4v4h4v8h4v8z" />
    <glyph glyph-name="uni0419" unicode="&#x419;" 
d="M20 39h8v-24v-8v-8h-8v8v8v4h-4v-4h-4v-8h-4v-8h-8v8v8v24h8v-20h4v4h4v8h4v8zM20 51h8v-4h-4v-4h-20v4h-4v4h8v-4h12v4z" />
    <glyph glyph-name="uni041A" unicode="&#x41a;" 
d="M20 43h8v-8h-4v-8h-4v-4h-4v-4h4v-4h4v-8h4v-8h-8v8h-4v8h-4v4h-4v-20h-8v20v24h8v-20h4v4h4v8h4v8z" />
    <glyph glyph-name="uni041B" unicode="&#x41b;" 
d="M12 43h16v-4v-4v-32v-4h-8v4v32v4h-4v-4h-4v-32h-4v-4h-8v4h4v32h4v4h4v4z" />
    <glyph glyph-name="uni041C" unicode="&#x41c;" 
d="M20 43h8v-12v-4v-28h-8v28h-4v-8h-4v8h-4v-28h-8v28v16h8v-4h4v-8h4v8h4v4z" />
    <glyph glyph-name="uni041D" unicode="&#x41d;" 
d="M20 43h8v-20v-4v-20h-8v20h-8v-20h-8v20v24h8v-20h8v20z" />
    <glyph glyph-name="uni041E" unicode="&#x41e;" 
d="M8 43h16v-4h4v-36h-4v-4h-16v4h-4v36h4v4zM20 3v36h-8v-36h8z" />
    <glyph glyph-name="uni041F" unicode="&#x41f;" 
d="M4 43h24v-4v-40h-8v40h-8v-40h-8v40v4z" />
    <glyph glyph-name="uni0420" unicode="&#x420;" 
d="M4 43h20v-4h4v-16h-4v-4h-12v-20h-8v20v20v4zM20 23v16h-8v-16h8z" />
    <glyph glyph-name="uni0421" unicode="&#x421;" 
d="M20 11h8v-8h-4v-4h-16v4h-4v36h4v4h16v-4h4v-8h-8v8h-8v-36h8v8z" />
    <glyph glyph-name="uni0422" unicode="&#x422;" 
d="M4 43h24v-4h-8v-40h-8v40h-8v4z" />
    <glyph glyph-name="uni0423" unicode="&#x423;" 
d="M20 43h8v-28v-12h-4v-4h-24v4h20v8h-16v4h-4v28h8v-28h12v28z" />
    <glyph glyph-name="uni0424" unicode="&#x424;" 
d="M12 47h4v-4h8v-4h4v-36h-4v-4h-8v-8h-4v8h-8v4h-4v36h4v4h8v4zM16 3h4v36h-4v-36zM12 3v36h-4v-36h4z" />
    <glyph glyph-name="uni0425" unicode="&#x425;" 
d="M24 43h8v-8h-4v-4h-4v-4h-4v-12h4v-4h4v-4h4v-8h-8v8h-4v4h-8v-4h-4v-8h-8v8h4v4h4v4h4v12h-4v4h-4v4h-4v8h8v-8h4v-4h8v4h4v8z" />
    <glyph glyph-name="uni0426" unicode="&#x426;" 
d="M16 43h8v-40h4v-12h-8v8h-20v44h8v-40h8v40z" />
    <glyph glyph-name="uni0427" unicode="&#x427;" 
d="M20 43h8v-20v-24h-8v20h-16v4h-4v20h8v-20h12v20z" />
    <glyph glyph-name="uni0428" unicode="&#x428;" 
d="M20 43h8v-40v-4h-28v44h8v-40h4v40h4v-40h4v40z" />
    <glyph glyph-name="uni0429" unicode="&#x429;" 
d="M20 43h8v-40h4v-12h-8v8h-24v44h8v-40h4v40h4v-40h4v40z" />
    <glyph glyph-name="uni042A" unicode="&#x42a;" 
d="M0 43h16v-8v-12h8v-4h4v-16h-4v-4h-16v20v16h-4v-4h-4v4v8zM20 3v16h-4v-16h4z" />
    <glyph glyph-name="uni042B" unicode="&#x42b;" 
d="M20 43h8v-24v-20h-8v4h-4v-4h-16v20v24h8v-20h8v-4h4v24zM12 3v16h-4v-16h4z" />
    <glyph glyph-name="uni042C" unicode="&#x42c;" 
d="M4 43h8v-20h12v-4h4v-16h-4v-4h-20v20v24zM20 3v16h-8v-16h8z" />
    <glyph glyph-name="uni042D" unicode="&#x42d;" 
d="M0 7h8v-4h8v4h4v12h-12v4h12v12h-4v4h-8v-4h-8v4h4v4h16v-4h4v-4h4v-28h-4v-4h-4v-4h-16v4h-4v4z" />
    <glyph glyph-name="uni042E" unicode="&#x42e;" 
d="M16 43h8v-4h4v-4v-16v-12v-4h-4v-4h-8v4h-4v16h-4v-20h-8v20v24h8v-20h4v12v4h4v4zM20 7v12v16h-4v-12v-4v-12h4z" />
    <glyph glyph-name="uni042F" unicode="&#x42f;" 
d="M8 43h20v-4v-16v-8v-4v-12h-8v12v4h-4v-4h-4v-12h-8v12h4v4h4v4h-4v4h-4v16h4v4zM20 23v16h-8v-16h8z" />
    <glyph glyph-name="uni0430" unicode="&#x430;" 
d="M8 27h16v-4h4v-8v-12v-4h-20v4h-4v12h4v4h12v4h-12v4zM20 3v12h-8v-12h8z" />
    <glyph glyph-name="uni0431" unicode="&#x431;" 
d="M20 39h8v-4h-4v-4h-12v-4h12v-4h4v-20h-4v-4h-16v4h-4v20v8h4v4h12v4zM20 3v20h-8v-20h8z" />
    <glyph glyph-name="uni0432" unicode="&#x432;" 
d="M4 27h20v-4h4v-8h-4v-4h4v-8h-4v-4h-20v12v12v4zM20 3v8h-8v-8h8zM20 15v8h-8v-8h8z" />
    <glyph glyph-name="uni0433" unicode="&#x433;" 
d="M4 27h24v-4h-16v-24h-8v24v4z" />
    <glyph glyph-name="uni0434" unicode="&#x434;" 
d="M8 27h16v-4v-20h4v-4v-4h-8v4h-12v-4h-8v4v4h4v20h4v4zM16 3v20h-4v-20h4z" />
    <glyph glyph-name="uni0435" unicode="&#x435;" 
d="M8 27h16v-4h4v-8v-4h-16v-8h12v-4h-16v4h-4v8v12h4v4zM20 15v8h-8v-8h8z" />
    <glyph glyph-name="uni0436" unicode="&#x436;" 
d="M24 27h4v-8h-4v-4h-4v-4h4v-4h4v-4v-4h-4v4h-4v4h-4v-4v-4h-4v4v4h-4v-4h-4v-4h-4v4v4h4v4h4v4h-4v4h-4v8h4v-4h4v-4h4v8h4v-8h4v4h4v4z" />
    <glyph glyph-name="uni0437" unicode="&#x437;" 
d="M4 7h8v-4h8v4v4h-8v4h8v8h-8v-4h-8v4h4v4h16v-4h4v-8h-4v-4h4v-4v-4h-4v-4h-16v4h-4v4z" />
    <glyph glyph-name="uni0438" unicode="&#x438;" 
d="M20 27h8v-12v-4v-4v-4v-4h-8v4v4v4h-4v-4h-4v-4h-4v-4h-8v4v4v4v16h8v-12h4v4h4v4h4v4z" />
    <glyph glyph-name="uni0439" unicode="&#x439;" 
d="M20 27h8v-12v-4v-4v-4v-4h-8v4v4v4h-4v-4h-4v-4h-4v-4h-8v4v4v4v16h8v-12h4v4h4v4h4v4zM20 39h8v-4h-4v-4h-20v4h-4v4h8v-4h12v4z" />
    <glyph glyph-name="uni043A" unicode="&#x43a;" 
d="M20 27h8v-8h-4v-4h-4v-4h4v-4h4v-8h-8v8h-4v4h-4v-12h-8v12v16h8v-12h4v4h4v8z" />
    <glyph glyph-name="uni043B" unicode="&#x43b;" 
d="M8 27h20v-4v-24h-8v24h-8v-24h-12v4h4v20h4v4z" />
    <glyph glyph-name="uni043C" unicode="&#x43c;" 
d="M20 27h8v-8v-8v-12h-8v12h-4v-8h-4v8h-4v-12h-8v12v16h8v-4h4v-4h4v4h4v4z" />
    <glyph glyph-name="uni043D" unicode="&#x43d;" 
d="M20 27h8v-12v-4v-12h-8v12h-8v-12h-8v12v16h8v-12h8v12z" />
    <glyph glyph-name="uni043E" unicode="&#x43e;" 
d="M8 27h16v-4h4v-20h-4v-4h-16v4h-4v20h4v4zM20 3v20h-8v-20h8z" />
    <glyph glyph-name="uni043F" unicode="&#x43f;" 
d="M4 27h24v-4v-24h-8v24h-8v-24h-8v24v4z" />
    <glyph glyph-name="uni0440" unicode="&#x440;" 
d="M4 27h20v-4h4v-20h-4v-4h-12v-12h-8v12v24v4zM20 3v20h-8v-20h8z" />
    <glyph glyph-name="uni0441" unicode="&#x441;" 
d="M20 7h8v-4h-4v-4h-16v4h-4v20h4v4h16v-4h4v-4h-8v4h-8v-20h8v4z" />
    <glyph glyph-name="uni0442" unicode="&#x442;" 
d="M4 27h24v-4h-8v-24h-8v24h-8v4z" />
    <glyph glyph-name="uni0443" unicode="&#x443;" 
d="M20 27h8v-24v-12h-4v-4h-16v4h12v8h-12v4h-4v24h8v-24h8v24z" />
    <glyph glyph-name="uni0444" unicode="&#x444;" 
d="M12 35h4v-8h8v-4h4v-20h-4v-4h-8v-8h-4v8h-8v4h-4v20h4v4h8v8zM16 3h4v20h-4v-20zM12 3v20h-4v-20h4z" />
    <glyph glyph-name="uni0445" unicode="&#x445;" 
d="M20 27h8v-8h-4v-4h-4v-4h4v-4h4v-8h-8v8h-4v4h-4v-4h-4v-8h-8v8h4v4h4v4h-4v4h-4v8h8v-8h4v-4h4v4h4v8z" />
    <glyph glyph-name="uni0446" unicode="&#x446;" 
d="M16 27h8v-24h4v-8h-8v4h-20v28h8v-24h8v24z" />
    <glyph glyph-name="uni0447" unicode="&#x447;" 
d="M20 27h8v-12v-16h-8v12h-12v4h-4v12h8v-12h8v12z" />
    <glyph glyph-name="uni0448" unicode="&#x448;" 
d="M20 27h8v-24v-4h-28v28h8v-24h4v24h4v-24h4v24z" />
    <glyph glyph-name="uni0449" unicode="&#x449;" 
d="M20 27h8v-24v-8h-8v4h-20v28h8v-24h4v24h4v-24h4v24z" />
    <glyph glyph-name="uni044A" unicode="&#x44a;" 
d="M0 27h12v-12h12v-4h4v-8h-4v-4h-20v12v8h-4v8zM20 3v8h-8v-8h8z" />
    <glyph glyph-name="uni044B" unicode="&#x44b;" 
d="M20 27h8v-16v-12h-8v4h-4v-4h-16v12v16h8v-12h8v-4h4v16zM12 3v8h-4v-8h4z" />
    <glyph glyph-name="uni044C" unicode="&#x44c;" 
d="M4 27h8v-12h12v-4h4v-8h-4v-4h-20v12v16zM20 3v8h-8v-8h8z" />
    <glyph glyph-name="uni044D" unicode="&#x44d;" 
d="M0 7h8v-4h8v4h4v4h-8v4h8v4h-4v4h-8v-4h-8v4h4v4h16v-4h4v-4h4v-12h-4v-4h-4v-4h-16v4h-4v4z" />
    <glyph glyph-name="uni044E" unicode="&#x44e;" 
d="M16 27h8v-4h4v-12v-8h-4v-4h-8v4h-4v8h-4v-12h-8v12v16h8v-12h4v8h4v-8v-4v-8h4v8v12h-4v4z" />
    <glyph glyph-name="uni044F" unicode="&#x44f;" 
d="M8 27h20v-4v-8v-8v-4v-4h-8v4v4h-4v-4h-4v-4h-8v4h4v4h4v4h-4v4h-4v8h4v4zM20 15v8h-8v-8h8z" />
    <glyph glyph-name="uni0450" unicode="&#x450;" 
d="M8 27h16v-4h4v-8v-4h-16v-8h12v-4h-16v4h-4v8v12h4v4zM8 43h8v-4h4v-4h-8v4h-4v4zM20 15v8h-8v-8h8z" />
    <glyph glyph-name="uni0451" unicode="&#x451;" 
d="M8 27h16v-4h4v-8v-4h-16v-8h12v-4h-16v4h-4v8v12h4v4zM20 43h8v-8h-8v8zM4 43h8v-8h-8v8zM20 15v8h-8v-8h8z" />
    <glyph glyph-name="uni0455" unicode="&#x455;" 
d="M8 27h20v-4h-16v-8h12v-4h4v-8h-4v-4h-20v4h16v8h-12v4h-4v8h4v4z" />
    <glyph glyph-name="uni0456" unicode="&#x456;" 
d="M4 27h16v-24h8v-4h-16v24h-8v4zM12 43h8v-8h-8v8z" />
    <glyph glyph-name="uni0457" unicode="&#x457;" 
d="M8 27h12v-24h4v-4h-16v4h4v20h-4v4zM20 43h8v-8h-8v8zM4 43h8v-8h-8v8z" />
    <glyph glyph-name="uni0458" unicode="&#x458;" 
d="M16 27h8v-36h-4v-4h-16v4h12v36zM16 43h8v-8h-8v8z" />
    <glyph glyph-name="uni04D0" unicode="&#x4d0;" 
d="M12 39h8v-4h4v-4h4v-12v-4v-16h-8v16h-8v-16h-8v16v16h4v4h4v4zM20 51h8v-4h-4v-4h-16v4h-4v4h8v-4h8v4zM20 19v12h-8v-12h8z" />
    <glyph glyph-name="uni04D1" unicode="&#x4d1;" 
d="M8 27h16v-4h4v-8v-12v-4h-20v4h-4v12h4v4h12v4h-12v4zM20 43h8v-4h-4v-4h-16v4h-4v4h8v-4h8v4zM20 3v12h-8v-12h8z" />
    <glyph glyph-name="uni04D2" unicode="&#x4d2;" 
d="M12 39h8v-4h4v-4h4v-12v-4v-16h-8v16h-8v-16h-8v16v16h4v4h4v4zM20 51h8v-8h-8v8zM4 51h8v-8h-8v8zM20 19v12h-8v-12h8z" />
    <glyph glyph-name="uni04D3" unicode="&#x4d3;" 
d="M8 27h16v-4h4v-8v-12v-4h-20v4h-4v12h4v4h12v4h-12v4zM20 43h8v-8h-8v8zM4 43h8v-8h-8v8zM20 3v12h-8v-12h8z" />
    <glyph glyph-name="uni04D4" unicode="&#x4d4;" 
d="M8 43h24v-4h-8v-8v-8h4v-4h-4v-16h8v-4h-16v20h-8v-20h-8v20v12v4h4v4h4v4zM16 23v8h-8v-8h8z" />
    <glyph glyph-name="uni04D5" unicode="&#x4d5;" 
d="M4 27h24v-4h4v-8v-4h-12v-8h-4v-4h-12v4h-4v8h4v4h8v8h-8v4zM20 3h12v-4h-12v4zM12 3v8h-4v-8h4zM24 15v8h-4v-8h4z" />
    <glyph glyph-name="uni04D6" unicode="&#x4d6;" 
d="M4 39h24v-4h-16v-12h12v-4h-12v-16h16v-4h-24v20v16v4zM20 51h8v-4h-4v-4h-16v4h-4v4h8v-4h8v4z" />
    <glyph glyph-name="uni04D7" unicode="&#x4d7;" 
d="M8 27h16v-4h4v-8v-4h-16v-8h12v-4h-16v4h-4v8v12h4v4zM20 43h8v-4h-4v-4h-16v4h-4v4h8v-4h8v4zM20 15v8h-8v-8h8z" />
    <glyph glyph-name="uni04E6" unicode="&#x4e6;" 
d="M8 39h16v-4h4v-32h-4v-4h-16v4h-4v32h4v4zM20 51h8v-8h-8v8zM4 51h8v-8h-8v8zM20 3v32h-8v-32h8z" />
    <glyph glyph-name="uni04E7" unicode="&#x4e7;" 
d="M8 27h16v-4h4v-20h-4v-4h-16v4h-4v20h4v4zM20 43h8v-8h-8v8zM4 43h8v-8h-8v8zM20 3v20h-8v-20h8z" />
    <glyph glyph-name="uni04F1" unicode="&#x4f1;" 
d="M20 27h8v-24v-12h-4v-4h-16v4h12v8h-12v4h-4v24h8v-24h8v24zM20 43h8v-8h-8v8zM4 43h8v-8h-8v8z" />
    <glyph glyph-name="uni05D0" unicode="&#x5d0;" 
d="M20 27h8v-12h-4v-4v-4h4v-8h-8v8h-4v4h-4v-12h-8v12h4v8h-4v8h8v-8h4v-4h4v12z" />
    <glyph glyph-name="uni05D1" unicode="&#x5d1;" 
d="M4 27h16v-4h4v-20h4v-4h-24v4h12v20h-12v4z" />
    <glyph glyph-name="uni05D2" unicode="&#x5d2;" 
d="M8 27h12v-4h4v-20h4v-4h-8v4h-4v-4h-12v4h8v4h4v16h-8v4z" />
    <glyph glyph-name="uni05D3" unicode="&#x5d3;" 
d="M4 27h24v-4h-4v-24h-8v24h-12v4z" />
    <glyph glyph-name="uni05D4" unicode="&#x5d4;" 
d="M4 19h8v-20h-8v20zM4 27h20v-4h4v-4v-20h-8v20v4h-16v4z" />
    <glyph glyph-name="uni05D5" unicode="&#x5d5;" 
d="M8 27h12v-4h4v-24h-8v24h-8v4z" />
    <glyph glyph-name="uni05D6" unicode="&#x5d6;" 
d="M4 27h24v-4h-4v-4h-4v-20h-8v20h4v4h-12v4z" />
    <glyph glyph-name="uni05D7" unicode="&#x5d7;" 
d="M4 27h20v-4h4v-24h-8v24h-4v-24h-8v24h-4v4z" />
    <glyph glyph-name="uni05D8" unicode="&#x5d8;" 
d="M16 23h8v-4h4v-16h-4v-4h-16v4h-4v24h8v-24h8v16h-4v4z" />
    <glyph glyph-name="uni05D9" unicode="&#x5d9;" 
d="M8 27h12v-4h4v-16h-8v16h-8v4z" />
    <glyph glyph-name="uni05DA" unicode="&#x5da;" 
d="M4 27h20v-4h4v-32h-8v32h-16v4z" />
    <glyph glyph-name="uni05DB" unicode="&#x5db;" 
d="M4 27h20v-4h4v-20h-4v-4h-20v4h16v20h-16v4z" />
    <glyph glyph-name="uni05DC" unicode="&#x5dc;" 
d="M4 35h8v-8h12v-4h4v-8h-4v-4h-4v-12h-8v12h4v4h4v8h-16v12z" />
    <glyph glyph-name="uni05DD" unicode="&#x5dd;" 
d="M0 27h24v-4h4v-20v-4h-24v24h-4v4zM20 3v20h-8v-20h8z" />
    <glyph glyph-name="uni05DE" unicode="&#x5de;" 
d="M4 27h20v-4h4v-24h-12v4h4v20h-8v-24h-8v24v4z" />
    <glyph glyph-name="uni05DF" unicode="&#x5df;" 
d="M8 27h12v-4h4v-32h-8v32h-8v4z" />
    <glyph glyph-name="uni05E0" unicode="&#x5e0;" 
d="M8 27h12v-4h4v-24h-16v4h8v20h-8v4z" />
    <glyph glyph-name="uni05E1" unicode="&#x5e1;" 
d="M4 27h24v-4v-20h-4v-4h-16v4h-4v20v4zM20 3v20h-8v-20h8z" />
    <glyph glyph-name="uni05E2" unicode="&#x5e2;" 
d="M20 27h8v-24h-4v-4h-24v4h4v24h8v-24h8v24z" />
    <glyph glyph-name="uni05E3" unicode="&#x5e3;" 
d="M4 27h20v-4h4v-32h-8v32h-8v-12h4v-4h-8v4h-4v12v4z" />
    <glyph glyph-name="uni05E4" unicode="&#x5e4;" 
d="M4 27h20v-4h4v-20h-4v-4h-20v4h16v20h-8v-12h4v-4h-8v4h-4v12v4z" />
    <glyph glyph-name="uni05E5" unicode="&#x5e5;" 
d="M20 27h8v-16h-4v-4h-4v-4h-4v-12h-8v12v4h-4v20h8v-20h4v4h4v16z" />
    <glyph glyph-name="uni05E6" unicode="&#x5e6;" 
d="M20 27h8v-12h-4v-4h4v-12h-24v4h16v8h-12v4h-4v12h8v-12h8v12z" />
    <glyph glyph-name="uni05E7" unicode="&#x5e7;" 
d="M4 19h8v-28h-8v28zM4 27h20v-4h4v-4v-12h-4v-4h-4v-4h-4v4v4h4v12v4h-16v4z" />
    <glyph glyph-name="uni05E8" unicode="&#x5e8;" 
d="M4 27h20v-4h4v-24h-8v24h-16v4z" />
    <glyph glyph-name="uni05E9" unicode="&#x5e9;" 
d="M20 27h8v-24h-4v-4h-20v4h-4v24h8v-20h4v20h4v-20h-4v-4h8v24z" />
    <glyph glyph-name="uni05EA" unicode="&#x5ea;" 
d="M0 27h24v-4h4v-20v-4h-8v4v20h-8v-20h-4v-4h-8v4h4v20h-4v4z" />
    <glyph glyph-name="uni0623" unicode="&#x623;" 
d="M12 35h4v-24h-4v24zM8 51h8v-4h-8v-4h-4v4h4v4zM8 39v-4h-4v4h4zM8 39v4h12v-4h-12z" />
    <glyph glyph-name="uni0627" unicode="&#x627;" 
d="M16 51h4v-40h-4v40z" />
    <glyph glyph-name="uni0628" unicode="&#x628;" 
d="M12 7h8v-4h-8v4zM28 31h4v-12v-4h-4v-4h-24v4h-4v16h4v-12h24v12z" />
    <glyph glyph-name="uni0629" unicode="&#x629;" 
d="M16 35h12v-4h4v-4v-8v-4h-4v-4h-12v4h-4v12v4h4v4zM24 43h8v-4h-8v4zM8 43h8v-4h-8v4zM28 19v8h-12v-8h12z" />
    <glyph glyph-name="uni062A" unicode="&#x62a;" 
d="M28 31h4v-12v-4h-4v-4h-24v4h-4v16h4v-12h24v12zM20 39h8v-4h-8v4zM8 39h8v-4h-8v4z" />
    <glyph glyph-name="uni062B" unicode="&#x62b;" 
d="M28 31h4v-12v-4h-4v-4h-24v4h-4v16h4v-12h24v12zM20 39h8v-4h-8v4zM4 39h8v-4h-8v4zM12 47h8v-4h-8v4z" />
    <glyph glyph-name="uni062C" unicode="&#x62c;" 
d="M12 15h8v-4h-8v4zM4 39h16v-4h4v-4h4v-4h4v-4h-4v-4h-20v-4h-4v-4h4v-4h20v-4h-4v-4h-16v4h-4v4h-4v8v4h4v4h4v4h12v4h-4v4h-12v4z" />
    <glyph glyph-name="uni062D" unicode="&#x62d;" 
d="M4 39h16v-4h4v-4h4v-4h4v-4h-4v-4h-20v-4h-4v-4h4v-4h20v-4h-4v-4h-16v4h-4v4h-4v8v4h4v4h4v4h12v4h-4v4h-12v4z" />
    <glyph glyph-name="uni062F" unicode="&#x62f;" 
d="M12 39h12v-4h4v-4h4v-12h-4v-4h-4v-4h-16v4h-4v4h20v4h4v4h-4v4h-12v8z" />
    <glyph glyph-name="uni0630" unicode="&#x630;" 
d="M12 39h12v-4h4v-4h4v-12h-4v-4h-4v-4h-16v4h-4v4h20v4h4v4h-4v4h-12v8zM16 47h8v-4h-8v4z" />
    <glyph glyph-name="uni0631" unicode="&#x631;" 
d="M24 31h4v-4h4v-16h-4v-4h-4v-4h-4v-4h-12v4h-4v4h20v4h4v8h-4v4h-4v4h4v4z" />
    <glyph glyph-name="uni0632" unicode="&#x632;" 
d="M24 31h4v-4h4v-16h-4v-4h-4v-4h-4v-4h-12v4h-4v4h20v4h4v8h-4v4h-4v4h4v4zM20 39h8v-4h-8v4z" />
    <glyph glyph-name="uni0633" unicode="&#x633;" 
d="M0 31h4v-12h16v4h-4v4h-4v4v8h4v-8h4v4h4v-4h4v4v4h4v-4v-4v-4h-4v-4h-4v4h-4v-4h4v-4v-4h-4v-4h-16v4h-4v16z" />
    <glyph glyph-name="uni0634" unicode="&#x634;" 
d="M0 27h4v-8h16v4h-8v4v8h4v-8h4v4h4v-4h4v4v4h4v-4v-4v-4h-8v-4v-4h-4v-4h-16v4h-4v12zM24 43h8v-4h-8v4zM8 43h8v-4h-8v4zM16 51h8v-4h-8v4z" />
    <glyph glyph-name="uni0635" unicode="&#x635;" 
d="M0 31h4v-12h16v4h-4v4h-4v4v4h-4v4h4v4h16v-4h4v-4v-4h-4v-4h-8v-4h4v-4v-4h-4v-4h-16v4h-4v16zM28 35v4h-12v-4h12z" />
    <glyph glyph-name="uni0637" unicode="&#x637;" 
d="M20 35h8v-4h4v-8v-4v-4h-4v-4h-28v4v4h8v4v28h4v-24h4v4h4v4zM28 19v4v4h-8v-4h-4v-4h12z" />
    <glyph glyph-name="uni0638" unicode="&#x638;" 
d="M20 35h8v-4h4v-8v-4v-4h-4v-4h-28v4v4h8v4v28h4v-24h4v4h4v4zM20 47h8v-4h-8v4zM28 19v4v4h-8v-4h-4v-4h12z" />
    <glyph glyph-name="uni0639" unicode="&#x639;" 
d="M28 15h4v-8h-4v-4h-4v-4h-16v4h-4v12v4h4v4h-4v8v4h4v4h12v-4h4v-4h-16v-4h16v-4h-4v-4h-8v-4h-4v-4h4v-4h12v4h4v4z" />
    <glyph glyph-name="uni063A" unicode="&#x63a;" 
d="M28 15h4v-8h-4v-4h-4v-4h-16v4h-4v12v4h4v4h-4v8v4h4v4h12v-4h4v-4h-16v-4h16v-4h-4v-4h-8v-4h-4v-4h4v-4h12v4h4v4zM8 47h8v-4h-8v4z" />
    <glyph glyph-name="uni0640" unicode="&#x640;" 
d="M0 19h32v-8h-32v8z" />
    <glyph glyph-name="uni0641" unicode="&#x641;" 
d="M0 23h4v-8h24v4h-16v4v4v4h4v4h12v-4h4v-4v-4v-8v-4h-4v-4h-24v4h-4v12zM16 43h8v-4h-8v4zM28 23v4h-12v-4h12z" />
    <glyph glyph-name="uni0642" unicode="&#x642;" 
d="M0 23h4v-8h24v4h-16v4v4v4h4v4h12v-4h4v-4v-4v-8v-4h-4v-4h-24v4h-4v12zM24 43h8v-4h-8v4zM12 43h8v-4h-8v4zM28 23v4h-12v-4h12z" />
    <glyph glyph-name="uni0643" unicode="&#x643;" 
d="M0 27h4v-8h24v8v8v8v4v4h4v-4v-4v-8v-8v-8v-4h-4v-4h-24v4h-4v12zM12 47h8v-4h-8v-4h-4v4h4v4zM12 35v-4h-4v4h4zM12 35v4h8v-4h-8z" />
    <glyph glyph-name="uni0644" unicode="&#x644;" 
d="M0 23h4v-12h4v-4h12v4h4v12v28h4v-28v-16h-4v-4h-4v-4h-12v4h-4v4h-4v16z" />
    <glyph glyph-name="uni0645" unicode="&#x645;" 
d="M8 31h12v-4h4v-4h4v-12h-20v-12h-4v12v4h8v4h8v4h-12v-4h-4v4v4h4v4z" />
    <glyph glyph-name="uni0646" unicode="&#x646;" 
d="M28 31h4v-12v-4h-4v-4h-24v4h-4v16h4v-12h24v12zM12 39h8v-4h-8v4z" />
    <glyph glyph-name="uni0647" unicode="&#x647;" 
d="M8 35h12v-4h4v-4v-8v-4h-4v-4h-12v4h-4v12v4h4v4zM20 19v8h-12v-8h12z" />
    <glyph glyph-name="uni0648" unicode="&#x648;" 
d="M8 31h12v-4h4v-4v-4v-8h-4v-8h-4v-4h-8v4v4h8v4h-8v4h-4v8v4h4v4zM20 19v4h-12v-4h12z" />
    <glyph glyph-name="uni0649" unicode="&#x649;" 
d="M0 23h4v-8h24v4h-12v4h-4v8v4h4v4h16v-8h-16v-4h12v-4h4v-8v-4h-4v-4h-24v4h-4v12z" />
    <glyph glyph-name="uni064A" unicode="&#x64a;" 
d="M20 3h8v-4h-8v4zM8 3h8v-4h-8v4zM0 23h4v-8h24v4h-12v4h-4v8v4h4v4h16v-8h-16v-4h12v-4h4v-8v-4h-4v-4h-24v4h-4v12z" />
    <glyph glyph-name="uni0671" unicode="&#x671;" 
d="M12 35h4v-24h-4v24zM16 51h8v-4h4v-4h-4v4h-8v-4h8v-4h-20v4h8v4h4v4z" />
    <glyph glyph-name="uni0672" unicode="&#x672;" 
d="M12 35h4v-24h-4v24zM8 47h4v-4h4v4h4v-4h8v-4h-16v4h-4v-4h-4v4h4v4zM20 51h8v-4h-8v4z" />
    <glyph glyph-name="uni0673" unicode="&#x673;" 
d="M8 3h8v-4h4v4h4v-4h8v-4h-16v4h-4v-4h-8v4h4v4zM24 7h8v-4h-8v4zM16 51h4v-40h-4v40z" />
    <glyph glyph-name="uni1560" unicode="&#x1560;" 
d="M4 11h8v-8h8v8v4h-4v4h-4v4h-4v4h-4v8h4v4h16v-4h4v-8h-8v8h-8v-8h4v-4h4v-4h4v-4h4v-4v-8h-4v-4h-16v4h-4v8zM12 51h8v-8h-8v8z" />
    <glyph glyph-name="uni1561" unicode="&#x1561;" 
d="M8 27h20v-4h-16v-8h12v-4h4v-8h-4v-4h-20v4h16v8h-12v4h-4v8h4v4zM12 43h8v-8h-8v8z" />
    <glyph glyph-name="uni1562" unicode="&#x1562;" 
d="M12 -5h8v-8h-8v8zM4 11h8v-8h8v8v4h-4v4h-4v4h-4v4h-4v12h4v4h16v-4h4v-8h-8v8h-8v-12h4v-4h4v-4h4v-4h4v-4v-8h-4v-4h-16v4h-4v8z" />
    <glyph glyph-name="uni1563" unicode="&#x1563;" 
d="M12 -5h8v-8h-8v8zM8 27h20v-4h-16v-8h12v-4h4v-8h-4v-4h-20v4h16v8h-12v4h-4v8h4v4z" />
    <glyph glyph-name="uni156A" unicode="&#x156a;" 
d="M4 39h24v-4h-8v-36h-8v36h-8v4zM12 51h8v-8h-8v8z" />
    <glyph glyph-name="uni156C" unicode="&#x156c;" 
d="M12 -5h8v-8h-8v8zM4 43h24v-4h-8v-40h-8v40h-8v4z" />
    <glyph glyph-name="uni156D" unicode="&#x156d;" 
d="M12 -5h8v-8h-8v8zM8 39h8v-12h12v-4h-12v-20h12v-4h-16v4h-4v20h-4v4h4v12z" />
    <glyph glyph-name="uni156E" unicode="&#x156e;" 
d="M4 -5h24v-4h-24v4zM4 43h24v-4h-8v-40h-8v40h-8v4z" />
    <glyph glyph-name="uni156F" unicode="&#x156f;" 
d="M4 -5h24v-4h-24v4zM8 39h8v-12h12v-4h-12v-20h12v-4h-16v4h-4v20h-4v4h4v12z" />
    <glyph glyph-name="uni1570" unicode="&#x1570;" 
d="M20 -5h8v-4h-4v-4h-16v4h-4v4h8v-4h8v4zM4 43h24v-4h-8v-40h-8v40h-8v4z" />
    <glyph glyph-name="uni1571" unicode="&#x1571;" 
d="M20 -5h8v-4h-4v-4h-16v4h-4v4h8v-4h8v4zM8 39h8v-12h12v-4h-12v-20h12v-4h-16v4h-4v20h-4v4h4v12z" />
    <glyph glyph-name="uni15EC" unicode="&#x15ec;" 
d="M12 -5h8v-8h-8v8zM4 43h20v-4h4v-16h-4v-4v-4h4v-16h-8v16h-4v4h-4v-20h-8v20v20v4zM4 51h24v-4h-24v4zM20 23v16h-8v-16h8z" />
    <glyph glyph-name="uni15ED" unicode="&#x15ed;" 
d="M12 -5h8v-8h-8v8zM4 27h20v-4h4v-8h-8v8h-8v-24h-8v24v4zM4 39h24v-4h-24v4z" />
    <glyph glyph-name="uni15EF" unicode="&#x15ef;" 
d="M4 -5h24v-4h-24v4zM4 27h20v-4h4v-8h-8v8h-8v-24h-8v24v4z" />
    <glyph glyph-name="uni16A0" unicode="&#x16a0;" 
d="M16 27h8v-8h-4v-8h-8v-16h-8v16v24v16h8v-8h4v8h8v-8h-4v-8h-8v-16h4v8z" />
    <glyph glyph-name="uni16A1" unicode="&#x16a1;" 
d="M16 19h8v-8h-4v-8h-12v-8h-8v8v24v24h8v-16h8v8h-4v8h4v-8h4v8h8v-8h-4v-8h-4v-8h-12v-16h8v8z" />
    <glyph glyph-name="uni16A2" unicode="&#x16a2;" 
d="M4 51h8v-8h4v-8h4v-8h4v-8h4v-24h-8v24h-4v8h-4v-32h-8v32v24z" />
    <glyph glyph-name="uni16A3" unicode="&#x16a3;" 
d="M12 3h4v-8h-4v8zM0 51h8v-8h4v-8h4v-8h4v-8h4v-8h4v-8v-8h-8v8v8h-4v8h-4v8h-4v-32h-8v32v24z" />
    <glyph glyph-name="uni16A4" unicode="&#x16a4;" 
d="M12 19h4v-8h-4v8zM8 51h12v-8h4v-16h4v-8v-24h-8v24v8h-4v16h-4v-16h-4v-32h-8v32h4v16h4v8z" />
    <glyph glyph-name="uni16A5" unicode="&#x16a5;" 
d="M12 51h8v-16h4v-16h4v-24h-8v24h-8v-24h-8v24h4v16h4v16z" />
    <glyph glyph-name="uni16A6" unicode="&#x16a6;" 
d="M8 51h8v-16h8v-8h4v-8h-4v-8h-8v-16h-8v16v16v24zM20 19v8h-4v-8h4z" />
    <glyph glyph-name="uni16A7" unicode="&#x16a7;" 
d="M12 27h4v-8h-4v8zM0 51h8v-8h16v-8h4v-8v-16h-4v-8h-16v-8h-8v8v32v16zM20 27v8h-12v-24h12v16z" />
    <glyph glyph-name="uni16A8" unicode="&#x16a8;" 
d="M8 51h16v-8h4v-8h-8v8h-4v-16h8v-8h4v-8h-8v8h-4v-24h-8v24v24v8z" />
    <glyph glyph-name="uni16A9" unicode="&#x16a9;" 
d="M20 27h8v-8h-4v-8h-8v8h4v8zM20 51h8v-8h-4v-8h-8v8h4v8zM4 51h12v-8h-4v-16h4v-8h-4v-24h-8v24v24v8z" />
    <glyph glyph-name="uni16AA" unicode="&#x16aa;" 
d="M20 51h8v-8h-4v-8h-8v8h4v8zM4 51h12v-8h-4v-16h8v-8h4v-8h-8v8h-4v-24h-8v24v24v8z" />
    <glyph glyph-name="uni16AB" unicode="&#x16ab;" 
d="M8 51h16v-8h4v-8h-8v8h-4v-16h8v-8h4v-8h-8v8h-4v-24h-8v24v24v8z" />
    <glyph glyph-name="uni16B1" unicode="&#x16b1;" 
d="M4 51h16v-8h4v-8h4v-8h-4v-8h-4v-8h4v-8h4v-8h-8v8h-4v8h-4v-16h-8v16v32v8zM20 27v8h-4v8h-4v-24h4v8h4z" />
    <glyph glyph-name="uni16B2" unicode="&#x16b2;" 
d="M12 43h8v-8h-4v-8h-4v-8h4v-8h4v-8h-8v8h-4v8h-4v8h4v8h4v8z" />
    <glyph glyph-name="uni16B3" unicode="&#x16b3;" 
d="M4 51h8v-24h4v-8h4v-8h4v-8h4v-8h-8v8h-4v8h-4v-16h-8v16v40z" />
    <glyph glyph-name="uni16B4" unicode="&#x16b4;" 
d="M20 51h8v-16h-4v-8h-8v-32h-8v32v24h8v-16h4v16z" />
    <glyph glyph-name="uni16B5" unicode="&#x16b5;" 
d="M20 51h8v-16h-4v-8h-4v-8h-4v-8h-8v-16h-8v16v40h8v-32h4v8h4v8h4v16zM12 51h4v-8h-4v8z" />
    <glyph glyph-name="uni16B6" unicode="&#x16b6;" 
d="M20 51h8v-16h-4v-8h-8v-32h-8v32h-4v8h4v16h8v-16h4v16z" />
    <glyph glyph-name="uni16B7" unicode="&#x16b7;" 
d="M20 51h8v-16h-4v-8h-4v-8h4v-8h4v-16h-8v16h-8v-16h-8v16h4v8h4v8h-4v8h-4v16h8v-16h8v16z" />
    <glyph glyph-name="uni16B8" unicode="&#x16b8;" 
d="M20 51h8v-16h-4v-8h4v-8h-4v8h-4v-8h4v-8h4v-16h-8v16h-8v-16h-8v16h4v8h-4v8h4v-8h4v8h-4v8h-4v16h8v-16h8v16z" />
    <glyph glyph-name="uni16B9" unicode="&#x16b9;" 
d="M4 51h16v-8h4v-8h4v-8h-4v-8h-4v-8h-8v-16h-8v16v32v8zM20 27v8h-4v8h-4v-24h4v8h4z" />
    <glyph glyph-name="uni16BA" unicode="&#x16ba;" 
d="M20 51h8v-24v-32h-8v24h-4v8h4v24zM4 51h8v-16h4v-8h-4v-32h-8v32v24z" />
    <glyph glyph-name="uni16BB" unicode="&#x16bb;" 
d="M20 51h8v-24v-16v-16h-8v8h-4v8h4v8h-4v8h4v24zM4 51h8v-16h4v-8h-4v-8h4v-8h-4v-16h-8v16v16v24z" />
    <glyph glyph-name="uni16BC" unicode="&#x16bc;" 
d="M24 35h4v-8h-4v8zM4 35h4v-8h-4v8zM12 51h8v-16v-8h4v-8h4v-8h-4v8h-4v-24h-8v24h-4v-8h-4v8h4v8h4v8v16z" />
    <glyph glyph-name="uni16BD" unicode="&#x16bd;" 
d="M12 51h8v-24h4v-8h-4v-24h-8v24h-4v8h4v24z" />
    <glyph glyph-name="uni16BE" unicode="&#x16be;" 
d="M4 35h4v-8h4v8v16h8v-16v-8h8v-8v-8h-4v8h-4v-24h-8v24h-8v16z" />
    <glyph glyph-name="uni16BF" unicode="&#x16bf;" 
d="M8 51h8v-24h8v-8h4v-8h-8v8h-4v-24h-8v24v32z" />
    <glyph glyph-name="uni16C0" unicode="&#x16c0;" 
d="M4 35h4v-8h4v8v16h8v-16v-8h8v-8v-8h-4v8h-4v-24h-8v24h-8v16z" />
    <glyph glyph-name="uni16C1" unicode="&#x16c1;" 
d="M12 51h8v-56h-8v56z" />
    <glyph glyph-name="uni16C2" unicode="&#x16c2;" 
d="M12 51h8v-24h4v-8h-4v-24h-8v24h-4v8h4v24z" />
    <glyph glyph-name="uni16C3" unicode="&#x16c3;" 
d="M16 27h8v-8h4v-8h-4v-8h-8v8h4v8h-4v8zM4 35h8v-8h-4v-8h4v-8h-8v8h-4v8h4v8z" />
    <glyph glyph-name="uni16C4" unicode="&#x16c4;" 
d="M12 51h8v-16h4v-8h4v-8h-4v8h-4v-8h4v-8h-4v-16h-8v16h-4v8h-4v8h4v-8h4v8h-4v8h4v16z" />
    <glyph glyph-name="uni16C5" unicode="&#x16c5;" 
d="M24 35h4v-8v-8h-8v-24h-8v24h-4v-8h-4v8v8h8v24h8v-24h4v8z" />
    <glyph glyph-name="uni16C6" unicode="&#x16c6;" 
d="M16 51h8v-32v-24h-8v24h-4v-8h-8v8h4v8h8v24z" />
    <glyph glyph-name="uni16C7" unicode="&#x16c7;" 
d="M4 11h4v-8h-4v8zM12 51h12v-8h4v-8h-4v8h-4v-32v-8v-8h-12v8h4v8v32v8z" />
    <glyph glyph-name="uni16C8" unicode="&#x16c8;" 
d="M20 51h8v-16h-4v-8h-12v-8h12v-8h4v-16h-8v16h-8v-16h-8v16v16v24h8v-16h8v16z" />
    <glyph glyph-name="uni16C9" unicode="&#x16c9;" 
d="M20 51h8v-16h-4v-8h-4v-32h-8v32h-8v8h-4v16h8v-16h4v16h4v-16h4v16z" />
    <glyph glyph-name="uni16CA" unicode="&#x16ca;" 
d="M12 51h12v-8h-8v-8h4v-8h4v-8h-4v-8h-4v-8h8v-8h-12v8h-4v8h4v8h4v8h-4v8h-4v8h4v8z" />
    <glyph glyph-name="uni16CB" unicode="&#x16cb;" 
d="M20 35h4v-8v-8v-24h-8v24h-4v-8h-4v8v32h8v-24h4v8z" />
    <glyph glyph-name="uni16CC" unicode="&#x16cc;" 
d="M12 51h8v-32h-8v32z" />
    <glyph glyph-name="uni16CD" unicode="&#x16cd;" 
d="M12 51h8v-24h4v-8h-16v8h4v24z" />
    <glyph glyph-name="uni16CE" unicode="&#x16ce;" 
d="M24 43h4v-8h-4v8zM4 43h4v-8h-4v8zM12 51h8v-8v-8h4v-8h-4v-8h-8v8h-4v8h4v8v8z" />
    <glyph glyph-name="uni16CF" unicode="&#x16cf;" 
d="M12 51h8v-8h4v-8h4v-8h-4v8h-4v-40h-8v40h-4v-8h-4v8h4v8h4v8z" />
    <glyph glyph-name="uni16D0" unicode="&#x16d0;" 
d="M16 51h8v-16v-40h-8v40h-4v-8h-8v8h4v8h8v8z" />
    <glyph glyph-name="uni16D1" unicode="&#x16d1;" 
d="M16 51h8v-16v-16h4v-8h-4v-16h-8v16h-4v8h4v16h-4v-8h-8v8h4v8h8v8z" />
    <glyph glyph-name="uni16D2" unicode="&#x16d2;" 
d="M4 51h16v-8h4v-8h-4v-8h4v-8h4v-8h-4v-8h-4v-8h-16v32v16v8zM20 11v8h-4v8h-4v-24h4v8h4zM16 35v8h-4v-8h4z" />
    <glyph glyph-name="uni16D3" unicode="&#x16d3;" 
d="M16 43h8v-8h-4v-8h4v-8h-4v8h-8v-8h8v-8h-8v-16h-8v16v16v24h8v-16h4v8z" />
    <glyph glyph-name="uni16D4" unicode="&#x16d4;" 
d="M12 19h4v-8h-4v8zM0 51h24v-8h4v-8h-4v-8h4v-8v-16h-4v-8h-24v32v16v8zM20 19v8h-12v-24h12v16zM16 35h4v8h-4v-8zM12 35v8h-4v-8h4z" />
    <glyph glyph-name="uni16D5" unicode="&#x16d5;" 
d="M20 51h8v-8h-4v-8v-8h-12v-8h8v-8h4v-8h4v-8h-8v8h-4v8h-4v-16h-8v16v16v24h8v-16h4v8h4v8z" />
    <glyph glyph-name="uni16D6" unicode="&#x16d6;" 
d="M24 51h4v-16v-8v-32h-8v32h-4v-8h-4v8h-4v-32h-8v32v24h4v-8h4v-8h12v8h4v8z" />
    <glyph glyph-name="uni16D7" unicode="&#x16d7;" 
d="M20 51h8v-8v-8v-8v-8v-24h-8v24h-8v-24h-8v24v16v16h8v-8h8v8zM20 27h4v8h-4v-8zM12 27v8h-4v-8h4z" />
    <glyph glyph-name="uni16D8" unicode="&#x16d8;" 
d="M24 51h4v-8v-8h-8v-40h-8v40h-8v16h4v-8h4v8h8v-8h4v8z" />
    <glyph glyph-name="uni16D9" unicode="&#x16d9;" 
d="M8 51h16v-8h-4v-48h-8v48h-4v8z" />
    <glyph glyph-name="uni16DA" unicode="&#x16da;" 
d="M8 51h12v-8h4v-8h4v-8h-8v8h-4v-40h-8v40v16z" />
    <glyph glyph-name="uni16DB" unicode="&#x16db;" 
d="M8 51h12v-8h4v-8h4v-8h-8v8h-4v-16h4v-8h-4v-16h-8v16h-4v8h4v16v16z" />
    <glyph glyph-name="uni16DC" unicode="&#x16dc;" 
d="M12 43h8v-8h4v-8h4v-8h-4v-8h-4v-8h-8v8h-4v8h-4v8h4v8h4v8zM20 19v8h-8v-8h8z" />
    <glyph glyph-name="uni16DD" unicode="&#x16dd;" 
d="M20 51h8v-16h-4v-8h4v-8h-4v-8h4v-16h-8v16h-8v-16h-8v16h4v8h-4v8h4v8h-4v16h8v-16h8v16zM20 19v8h-8v-8h8z" />
    <glyph glyph-name="uni16DE" unicode="&#x16de;" 
d="M24 51h4v-16v-8v-8v-8v-8v-8h-4v8h-4v8h-8v-8h-4v-8h-4v8v8v16v24h4v-8h4v-8h8v8h4v8zM20 19h4v8h-4v-8zM12 19v8h-4v-8h4z" />
    <glyph glyph-name="uni16DF" unicode="&#x16df;" 
d="M12 51h8v-8h4v-8h4v-8h-4v-8h-4v-8h4v-8h4v-8h-8v8h-8v-8h-8v8h4v8h4v8h-4v8h-4v8h4v8h4v8zM20 27v8h-8v-8h8z" />
    <glyph glyph-name="uni16E0" unicode="&#x16e0;" 
d="M24 51h4v-8v-8v-8h-4v8h-4v-40h-8v40h-4v-8h-4v8v16h4v-8h4v8h8v-8h4v8z" />
    <glyph glyph-name="uni16E1" unicode="&#x16e1;" 
d="M12 43h8v-8h-4v-8h-4v-8h4v-8h4v-8h-8v8h-4v8h-4v8h4v8h4v8z" />
    <glyph glyph-name="uni16E2" unicode="&#x16e2;" 
d="M24 11h4v-8v-8v-8h-4v8h-4v-8h-8v8v40h-4v-8h-4v8v16h4v-8h4v8h8v-8v-8v-32h4v8z" />
    <glyph glyph-name="uni16E3" unicode="&#x16e3;" 
d="M12 51h8v-32h4v-8h4v-16h-8v16h-4v-16h-4v16h-4v-16h-8v16h4v8h8v32z" />
    <glyph glyph-name="uni16E4" unicode="&#x16e4;" 
d="M20 51h8v-16h-4v-8h4v-8h-4v-8h4v-16h-8v16h-4v-16h-4v16h-4v-16h-8v16h4v8h-4v8h4v8h-4v16h8v-16h4v16h4v-16h4v16zM16 19h4v8h-4v-8zM12 19v8h-4v-8h4z" />
    <glyph glyph-name="uni16E5" unicode="&#x16e5;" 
d="M24 51h4v-16v-8v-8v-8v-8v-8h-4v8h-4v8h-8v-8h-4v-8h-4v8v8v16v24h4v-8h4v-8h8v8h4v8zM20 19v8h-8v-8h8z" />
    <glyph glyph-name="uni16E6" unicode="&#x16e6;" 
d="M0 51h12v-8h8v-8h8v-16v-8v-16h-8v16h-4v-16h-4v16h-4v-16h-8v16v24v16zM20 19v8h-4v8h-8v-16h12z" />
    <glyph glyph-name="uni16E7" unicode="&#x16e7;" 
d="M12 27h8v-32h-8v32z" />
    <glyph glyph-name="uni16E8" unicode="&#x16e8;" 
d="M24 19h4v-8h-4v8zM4 19h4v-8h-4v8zM12 51h8v-8h4v-8h4v-8h-4v8h-4v-16v-8h4v-8h-4v-8h-8v8h-4v8h4v8v16h-4v-8h-4v8h4v8h4v8z" />
    <glyph glyph-name="uni16E9" unicode="&#x16e9;" 
d="M8 51h16v-8v-8v-16v-24h-8v16h-8v8h-4v8h-4v8h4v8h4v8zM16 19v16v8h-4v-8h-4v-8h4v-8h4z" />
    <glyph glyph-name="uni16EA" unicode="&#x16ea;" 
d="M20 35h4v-8v-8v-8h4v-8h-4v-8h-8v8h-4v8h4v8h-8v-8h-4v8v16h-4v8h4v8h8v-8h4v-8h-4v-8h8v8z" />
    <glyph glyph-name="uni16EB" unicode="&#x16eb;" 
d="M12 27h8v-8h-8v8z" />
    <glyph glyph-name="uni16EC" unicode="&#x16ec;" 
d="M12 11h8v-8h-8v8zM12 35h8v-8h-8v8z" />
    <glyph glyph-name="uni16ED" unicode="&#x16ed;" 
d="M24 35h4v-8v-8v-8h-4v8h-4v-16h4v-8h-16v8h4v16h-4v-8h-4v8v16h4v-8h4v8v8h-4v8h16v-8h-4v-8v-8h4v8z" />
    <glyph glyph-name="uni16EE" unicode="&#x16ee;" 
d="M8 51h12v-8h4v-8h4v-8h-8v8h-4v-16v-24h-8v24h-4v-8h-4v8v8h8v8v16z" />
    <glyph glyph-name="uni16EF" unicode="&#x16ef;" 
d="M20 51h8v-16h-4v-8h-4v-8h4v-8h4v-16h-8v16h-4v-16h-4v16h-4v-16h-8v16h4v8h8v8h-8v8h-4v16h8v-16h4v16h4v-16h4v16z" />
    <glyph glyph-name="uni16F0" unicode="&#x16f0;" 
d="M12 51h4v-16h8v-8h4v-8h-4v-8h-8v-16h-4v16h-8v8h-4v8h4v8h8v16zM16 19h4v8h-4v-8zM12 19v8h-4v-8h4z" />
    <glyph glyph-name="uni16F1" unicode="&#x16f1;" 
d="M4 51h8v-24h12v-8v-8h4v-16h-8v16h-4v8h-4v-24h-8v24v32z" />
    <glyph glyph-name="uni16F2" unicode="&#x16f2;" 
d="M8 35h4v-8h4v8v16h8v-16v-8v-8v-8h-4v8h-4v-24h-8v24v16z" />
    <glyph glyph-name="uni16F3" unicode="&#x16f3;" 
d="M12 51h8v-8h4v-8h4v-8h-4v8h-4v-8h4v-8h-4v-24h-8v24h-4v8h-4v8h4v-8h4v8h-4v8h4v8z" />
    <glyph glyph-name="uni16F4" unicode="&#x16f4;" 
d="M20 35h8v-8h-4v-8v-24h-8v24h-4v-8h-8v8h4v32h8v-24h4v8z" />
    <glyph glyph-name="uni16F5" unicode="&#x16f5;" 
d="M12 51h8v-8h-4v-8h4v-8h-4v-8h4v-8h-4v-8h4v-8h-8v8h-4v8h4v8h-4v8h4v8h-4v8h4v8z" />
    <glyph glyph-name="uni16F6" unicode="&#x16f6;" 
d="M20 35h8v-8h-8v8zM4 51h8v-16h4v-8h4v-8h4v-8h4v-16h-8v16h-4v8h-4v-8h-8v8h8v8h-4v8h-4v16z" />
    <glyph glyph-name="uni16F7" unicode="&#x16f7;" 
d="M4 51h8v-16h12v-8h4v-32h-8v32h-8v-32h-8v32v24z" />
    <glyph glyph-name="uni16F8" unicode="&#x16f8;" 
d="M12 51h8v-32h4v-8h4v-16h-8v16h-8v-16h-8v16h4v8h4v32z" />
    <glyph glyph-name="uni1E00" unicode="&#x1e00;" 
d="M12 43h8v-4h4v-4h4v-12v-4v-20h-8v20h-8v-20h-8v20v16h4v4h4v4zM20 -9v4h4v-4h-4zM20 -9v-4h-8v4h-4v4h4v-4h8zM12 -5v4h8v-4h-8zM20 23v12h-8v-12h8z" />
    <glyph glyph-name="uni1E01" unicode="&#x1e01;" 
d="M8 27h16v-4h4v-8v-12v-4h-8v-4h4v-4h-4v4h-8v-4h-4v4h4v4h-4v4h-4v12h4v4h12v4h-12v4zM20 -9v-4h-8v4h8zM20 3v12h-8v-12h8z" />
    <glyph glyph-name="uni1E02" unicode="&#x1e02;" 
d="M4 39h20v-4h4v-8h-4v-4h-4v-4h4v-4h4v-12h-4v-4h-20v20v16v4zM12 51h8v-8h-8v8zM20 3v12h-4v4h-4v-16h8zM20 27v8h-8v-12h4v4h4z" />
    <glyph glyph-name="uni1E04" unicode="&#x1e04;" 
d="M12 -5h8v-8h-8v8zM4 43h20v-4h4v-12h-4v-4h-4v-4h4v-4h4v-12h-4v-4h-20v20v20v4zM20 3v12h-4v4h-4v-16h8zM20 27v12h-8v-16h4v4h4z" />
    <glyph glyph-name="uni1E05" unicode="&#x1e05;" 
d="M12 -5h8v-8h-8v8zM4 43h8v-16h12v-4h4v-20h-4v-4h-20v24v20zM20 3v20h-8v-20h8z" />
    <glyph glyph-name="uni1E06" unicode="&#x1e06;" 
d="M4 -5h24v-4h-24v4zM4 43h20v-4h4v-12h-4v-4h-4v-4h4v-4h4v-12h-4v-4h-20v20v20v4zM20 3v12h-4v4h-4v-16h8zM20 27v12h-8v-16h4v4h4z" />
    <glyph glyph-name="uni1E07" unicode="&#x1e07;" 
d="M4 -5h24v-4h-24v4zM4 43h8v-16h12v-4h4v-20h-4v-4h-20v24v20zM20 3v20h-8v-20h8z" />
    <glyph glyph-name="uni1E0A" unicode="&#x1e0a;" 
d="M4 39h16v-4h4v-4h4v-24h-4v-4h-4v-4h-16v36v4zM12 51h8v-8h-8v8zM20 7v24h-4v4h-4v-32h4v4h4z" />
    <glyph glyph-name="uni1E0C" unicode="&#x1e0c;" 
d="M12 -5h8v-8h-8v8zM4 43h16v-4h4v-4h4v-28h-4v-4h-4v-4h-16v40v4zM20 7v28h-4v4h-4v-36h4v4h4z" />
    <glyph glyph-name="uni1E0D" unicode="&#x1e0d;" 
d="M12 -5h8v-8h-8v8zM20 43h8v-20v-20v-4h-20v4h-4v20h4v4h12v16zM20 3v20h-8v-20h8z" />
    <glyph glyph-name="uni1E0E" unicode="&#x1e0e;" 
d="M4 -5h24v-4h-24v4zM4 43h16v-4h4v-4h4v-28h-4v-4h-4v-4h-16v40v4zM20 7v28h-4v4h-4v-36h4v4h4z" />
    <glyph glyph-name="uni1E0F" unicode="&#x1e0f;" 
d="M4 -5h24v-4h-24v4zM20 43h8v-20v-20v-4h-20v4h-4v20h4v4h12v16zM20 3v20h-8v-20h8z" />
    <glyph glyph-name="uni1E41" unicode="&#x1e41;" 
d="M16 27h8v-4h4v-4v-20h-8v20h-4v-16h-4v16h-4v-20h-8v20v8h8v-4h8v4zM12 43h8v-8h-8v8z" />
    <glyph glyph-name="uni1E42" unicode="&#x1e42;" 
d="M12 -5h8v-8h-8v8zM20 43h8v-12v-4v-28h-8v28h-4v-8h-4v8h-4v-28h-8v28v16h8v-4h4v-8h4v8h4v4z" />
    <glyph glyph-name="uni1E43" unicode="&#x1e43;" 
d="M12 -5h8v-8h-8v8zM16 27h8v-4h4v-4v-20h-8v20h-4v-16h-4v16h-4v-20h-8v20v8h8v-4h8v4z" />
    <glyph glyph-name="uni1E44" unicode="&#x1e44;" 
d="M0 43h8v-8h4v-8h4v-4h4v20h8v-20v-4v-20h-8v8h-4v8h-4v4h-4v-20h-8v20v24zM12 51h8v-8h-8v8z" />
    <glyph glyph-name="uni1E45" unicode="&#x1e45;" 
d="M4 27h20v-4h4v-24h-8v24h-8v-24h-8v24v4zM12 43h8v-8h-8v8z" />
    <glyph glyph-name="uni1E46" unicode="&#x1e46;" 
d="M12 -5h8v-8h-8v8zM20 43h8v-20v-4v-20h-8v8h-4v8h-4v4h-4v-20h-8v20v24h8v-8h4v-8h4v-4h4v20z" />
    <glyph glyph-name="uni1E47" unicode="&#x1e47;" 
d="M12 -5h8v-8h-8v8zM4 27h20v-4h4v-24h-8v24h-8v-24h-8v24v4z" />
    <glyph glyph-name="uni1E48" unicode="&#x1e48;" 
d="M4 -5h24v-4h-24v4zM20 43h8v-20v-4v-20h-8v8h-4v8h-4v4h-4v-20h-8v20v24h8v-8h4v-8h4v-4h4v20z" />
    <glyph glyph-name="uni1E49" unicode="&#x1e49;" 
d="M4 -5h24v-4h-24v4zM4 27h20v-4h4v-24h-8v24h-8v-24h-8v24v4z" />
    <glyph glyph-name="uni1E4A" unicode="&#x1e4a;" 
d="M20 -5h8v-4h-4v-4h-16v4h-4v4h8v-4h8v4zM20 43h8v-20v-4v-20h-8v8h-4v8h-4v4h-4v-20h-8v20v24h8v-8h4v-8h4v-4h4v20z" />
    <glyph glyph-name="uni1E4B" unicode="&#x1e4b;" 
d="M20 -5h8v-4h-4v-4h-16v4h-4v4h8v-4h8v4zM4 27h20v-4h4v-24h-8v24h-8v-24h-8v24v4z" />
    <glyph glyph-name="uni1E58" unicode="&#x1e58;" 
d="M4 39h20v-4h4v-12h-4v-4v-4h4v-16h-8v16h-4v4h-4v-20h-8v20v16v4zM12 51h8v-8h-8v8zM20 23v12h-8v-12h8z" />
    <glyph glyph-name="uni1E59" unicode="&#x1e59;" 
d="M4 27h20v-4h4v-8h-8v8h-8v-24h-8v24v4zM12 43h8v-8h-8v8z" />
    <glyph glyph-name="uni1E5A" unicode="&#x1e5a;" 
d="M12 -5h8v-8h-8v8zM4 43h20v-4h4v-16h-4v-4v-4h4v-16h-8v16h-4v4h-4v-20h-8v20v20v4zM20 23v16h-8v-16h8z" />
    <glyph glyph-name="uni1E5B" unicode="&#x1e5b;" 
d="M12 -5h8v-8h-8v8zM4 27h20v-4h4v-8h-8v8h-8v-24h-8v24v4z" />
    <glyph glyph-name="uni1E5E" unicode="&#x1e5e;" 
d="M4 -5h24v-4h-24v4zM4 43h20v-4h4v-16h-4v-4v-4h4v-16h-8v16h-4v4h-4v-20h-8v20v20v4zM20 23v16h-8v-16h8z" />
    <glyph glyph-name="uni2010" unicode="&#x2010;" 
d="M8 23h16v-4h-16v4z" />
    <glyph glyph-name="uni2011" unicode="&#x2011;" 
d="M8 23h16v-4h-16v4z" />
    <glyph glyph-name="figuredash" unicode="&#x2012;" 
d="M4 23h20v-4h-20v4z" />
    <glyph glyph-name="endash" unicode="&#x2013;" 
d="M0 23h28v-4h-28v4z" />
    <glyph glyph-name="emdash" unicode="&#x2014;" 
d="M0 23h32v-4h-32v4z" />
    <glyph glyph-name="uni2015" unicode="&#x2015;" 
d="M0 23h28v-4h-28v4z" />
    <glyph glyph-name="uni2016" unicode="&#x2016;" 
d="M16 51h8v-56h-8v56zM4 51h8v-56h-8v56z" />
    <glyph glyph-name="underscoredbl" unicode="&#x2017;" 
d="M0 -9h32v-4h-32v4zM0 -1h32v-4h-32v4z" />
    <glyph glyph-name="quoteleft" unicode="&#x2018;" 
d="M8 51h8v-4h4v-4h-8v4h-4v4z" />
    <glyph glyph-name="quoteright" unicode="&#x2019;" 
d="M16 51h8v-4h-4v-4h-8v4h4v4z" />
    <glyph glyph-name="quotedblleft" unicode="&#x201c;" 
d="M16 51h8v-4h4v-4h-8v4h-4v4zM0 51h8v-4h4v-4h-8v4h-4v4z" />
    <glyph glyph-name="quotedblright" unicode="&#x201d;" 
d="M20 51h8v-4h-4v-4h-8v4h4v4zM4 51h8v-4h-4v-4h-8v4h4v4z" />
    <glyph glyph-name="dagger" unicode="&#x2020;" 
d="M12 43h8v-12h8v-4h-8v-28h-8v28h-8v4h8v12z" />
    <glyph glyph-name="daggerdbl" unicode="&#x2021;" 
d="M12 43h8v-12h8v-4h-8v-12h8v-4h-8v-12h-8v12h-8v4h8v12h-8v4h8v12z" />
    <glyph glyph-name="bullet" unicode="&#x2022;" 
d="M12 35h8v-8h4v-16h-4v-8h-8v8h-4v16h4v8z" />
    <glyph glyph-name="onedotenleader" unicode="&#x2024;" 
d="M12 11h8v-12h-8v12z" />
    <glyph glyph-name="twodotenleader" unicode="&#x2025;" 
d="M20 11h8v-16h-8v16zM4 11h8v-16h-8v16z" />
    <glyph glyph-name="ellipsis" unicode="&#x2026;" 
d="M24 7h4v-8h-4v8zM12 7h4v-8h-4v8zM0 7h4v-8h-4v8z" />
    <glyph glyph-name="perthousand" unicode="&#x2030;" 
d="M24 11h8v-16h-8v16zM20 43h8v-8h-4v-8h-4v-8h-8v-8h8v-16h-8v16h-4v-16h-8v16h4v8h8v8h4v8h4v8zM0 43h8v-16h-8v16z" />
    <glyph glyph-name="uni2031" unicode="&#x2031;" 
d="M28 11h4v-16h-4v16zM20 11h4v-16h-4v16zM20 43h8v-8h-4v-8h-4v-8h-8v-8h4v-16h-4v16h-4v-16h-8v16h4v8h8v8h4v8h4v8zM0 43h8v-16h-8v16z" />
    <glyph glyph-name="exclamdbl" unicode="&#x203c;" 
d="M20 3h8v-8h-8v8zM4 3h8v-8h-8v8zM20 51h8v-40h-8v40zM4 51h8v-40h-8v40z" />
    <glyph glyph-name="uni2047" unicode="&#x2047;" 
d="M16 3h8v-8h-8v8zM0 3h8v-8h-8v8zM16 51h8v-8h4v-16h-4v-16h-8v16h4v16h-4v8zM0 51h8v-8h4v-16h-4v-16h-8v16h4v16h-4v8z" />
    <glyph glyph-name="uni2048" unicode="&#x2048;" 
d="M20 3h8v-8h-8v8zM0 3h8v-8h-8v8zM20 51h8v-24v-8v-8h-8v8v8v24zM0 51h12v-8h4v-16h-4v-8h-4v-8h-8v8h4v8h4v16h-8v8z" />
    <glyph glyph-name="uni2049" unicode="&#x2049;" 
d="M12 3h8v-8h-8v8zM0 3h8v-8h-8v8zM12 51h12v-8h4v-16h-4v-8h-4v-8h-8v8h4v8h4v16h-8v8zM0 51h8v-40h-8v40z" />
    <glyph glyph-name="uni2070" unicode="&#x2070;" 
d="M8 47h12v-4h4v-20h-4v-4h-12v4h-4v20h4v4zM16 23v20h-4v-20h4z" />
    <glyph glyph-name="uni2074" unicode="&#x2074;" 
d="M12 47h12v-8v-4h4v-4h-4v-12h-8v12h-12v8h4v4h4v4zM16 35v4h-4v-4h4z" />
    <glyph glyph-name="uni2075" unicode="&#x2075;" 
d="M4 27h8v-4h4v4v8h-12v8v4h20v-4h-12v-4h8v-4h4v-8v-4h-4v-4h-12v4h-4v4z" />
    <glyph glyph-name="uni2076" unicode="&#x2076;" 
d="M8 47h12v-4h-8v-8h8v-4h4v-8h-4v-4h-12v4h-4v8v12h4v4zM16 23v8h-4v-8h4z" />
    <glyph glyph-name="uni2077" unicode="&#x2077;" 
d="M4 47h20v-12h-4v-4h-4v-12h-8v12h4v4h4v8h-12v4z" />
    <glyph glyph-name="uni2078" unicode="&#x2078;" 
d="M8 47h12v-4h4v-8h-4v-4h4v-8h-4v-4h-12v4h-4v8h4v4h-4v8h4v4zM16 23v8h-4v-8h4zM16 35v8h-4v-8h4z" />
    <glyph glyph-name="uni2079" unicode="&#x2079;" 
d="M8 47h12v-4h4v-8v-12h-4v-4h-12v4h8v8h-8v4h-4v8h4v4zM16 35v8h-4v-8h4z" />
    <glyph glyph-name="uni207F" unicode="&#x207f;" 
d="M4 39h16v-4h4v-16h-8v16h-4v-16h-8v16v4z" />
    <glyph glyph-name="peseta" unicode="&#x20a7;" 
d="M0 47h24v-4h4v-8h-4v-4h4v-8h4v-4h-4v-12h4v-4h-8v4h-4v12h-4v4h4v4h4v4h-12v-24h4v-4h-16v4h4v24v12h-4v4zM20 35v8h-8v-8h8z" />
    <glyph glyph-name="Euro" unicode="&#x20ac;" 
d="M20 11h8v-8h-4v-4h-16v4h-4v12h-4v4h4v4h-4v4h4v12h4v4h16v-4h4v-8h-8v8h-8v-12h12v-4h-12v-4h8v-4h-8v-12h8v8z" />
    <glyph glyph-name="uni2117" unicode="&#x2117;" 
d="M8 35h12v-8h4v-8h-4v8h-8v-8h8v-8h-8v-8h-4v8v16v8zM4 51h24v-8h4v-8v-8v-16v-16h-4v16v16v8v8h-24v-48h-4v48h4v8zM28 -5v-8h-24v8h24z" />
    <glyph glyph-name="uni2120" unicode="&#x2120;" 
d="M24 47h4v-4v-8v-12v-4h-4v4v12h-4v-12v-4h-4v4v12v8v4h4v-4h4v4zM4 47h8v-4h-8v-8h-4v8h4v4zM8 23v-4h-8v4h8zM8 23v8h-4v4h4v-4h4v-8h-4z" />
    <glyph glyph-name="trademark" unicode="&#x2122;" 
d="M24 47h4v-4v-8v-16h-4v16h-4v-16h-4v16v8v4h4v-4h4v4zM0 47h12v-4h-4v-24h-4v24h-4v4z" />
    <glyph glyph-name="arrowleft" unicode="&#x2190;" 
d="M12 31h4v-8h16v-8h-16v-8h-4v4h-4v4h-4v8h4v4h4v4z" />
    <glyph glyph-name="arrowup" unicode="&#x2191;" 
d="M12 51h8v-4h4v-4h4v-4h-8v-52h-8v52h-8v4h4v4h4v4z" />
    <glyph glyph-name="arrowright" unicode="&#x2192;" 
d="M16 31h4v-4h4v-4h4v-8h-4v-4h-4v-4h-4v4v4h-16v8h16v8z" />
    <glyph glyph-name="arrowboth" unicode="&#x2194;" 
d="M20 31h4v-4h4v-4h4v-8h-4v-4h-4v-4h-4v4v4h-8v-8h-4v4h-4v4h-4v8h4v4h4v4h4v-8h8v8z" />
    <glyph glyph-name="uni2196" unicode="&#x2196;" 
d="M0 51h16v-8h-4v-8h4v-8h4v-8h4v-8h4v-8h-4v-8h-4v8h-4v8h-4v8h-4v8h-4v-8h-4v8v16v8z" />
    <glyph glyph-name="uni2197" unicode="&#x2197;" 
d="M16 51h16v-24v-8h-4v8h-4v-8h-4v-8h-4v-8h-4v-8h-4v8h-4v8h4v8h4v8h4v8h4v8h-4v8z" />
    <glyph glyph-name="uni2198" unicode="&#x2198;" 
d="M28 19h4v-8v-24h-16v8h4v8h-4v8h-4v8h-4v8h-4v8h4v8h4v-8h4v-8h4v-8h4v-8h4v8z" />
    <glyph glyph-name="uni2199" unicode="&#x2199;" 
d="M0 19h4v-8h4v8h4v8h4v8h4v8h4v-8h4v-8h-4v-8h-4v-8h-4v-8h-4v-8h4v-8h-16v16v16z" />
    <glyph glyph-name="uni21A5" unicode="&#x21a5;" 
d="M12 51h8v-4h4v-4h4v-4h-8v-40h8v-4h-4v-4h-4v-4h-8v4h-4v4h-4v4h8v40h-8v4h4v4h4v4z" />
    <glyph glyph-name="arrowupdnbse" unicode="&#x21a8;" 
d="M12 51h8v-4h4v-4h4v-4h-8v-36h8v-4h-4v-4h-4v-4h12v-4h-32v4h12v4h-4v4h-4v4h8v36h-8v4h4v4h4v4z" />
    <glyph glyph-name="uni21E6" unicode="&#x21e6;" 
d="M12 51h8v-16h12v-8v-24h-12v-16h-8v8h-4v8h-4v8h-4v16h4v8h4v8h4v8zM16 3v8h12v16h-12v8h-4v-8h-4v-16h4v-8h4z" />
    <glyph glyph-name="uni21E7" unicode="&#x21e7;" 
d="M12 51h8v-8h4v-8h4v-8h4v-16h-8v-16v-8h-16v24h-8v16h4v8h4v8h4v8zM20 11v8h4v8h-4v8h-8v-8h-4v-8h4v-24h8v16z" />
    <glyph glyph-name="uni21E8" unicode="&#x21e8;" 
d="M12 51h8v-8h4v-8h4v-8h4v-16h-4v-8h-4v-8h-4v-8h-8v8v8h-12v24v8h12v16zM24 11v16h-4v8h-4v-8h-12v-16h12v-8h4v8h4z" />
    <glyph glyph-name="uni21E9" unicode="&#x21e9;" 
d="M8 51h16v-8v-16h8v-8v-8h-4v-8h-4v-8h-4v-8h-8v8h-4v8h-4v8h-4v8v8h8v16v8zM24 11v8h-4v24h-8v-24h-4v-8h4v-8h8v8h4z" />
    <glyph glyph-name="minus" unicode="&#x2212;" 
d="M4 23h24v-4h-24v4z" />
    <glyph glyph-name="uni2218" unicode="&#x2218;" 
d="M8 35h16v-8h4v-16h-4v-8h-16v8h-4v16h4v8zM20 11v16h-8v-16h8z" />
    <glyph glyph-name="radical" unicode="&#x221a;" 
d="M0 19h8v-8h4v-4h4v12h4v20h4v8h8v-8h-4v-20h-4v-12h-4v-8h-8v4h-4v4h-4v4h-4v8z" />
    <glyph glyph-name="infinity" unicode="&#x221e;" 
d="M20 31h8v-4h4v-12h-4v-4h-12v4h-4v12h-4v-12h4v-4h-8v4h-4v12h4v4h12v-4h4v-12h4v12h-4v4z" />
    <glyph glyph-name="orthogonal" unicode="&#x221f;" 
d="M0 27h28v-20h-8v16h-20v4z" />
    <glyph glyph-name="intersection" unicode="&#x2229;" 
d="M8 39h16v-4h4v-32h-8v32h-8v-32h-8v32h4v4z" />
    <glyph glyph-name="approxequal" unicode="&#x2248;" 
d="M24 19h4v-4v-4h-4v-4h-12v4v4h-4v-4h-4v-4h-4v4v4h4v4h12v-4v-4h4v4h4v4zM24 35h4v-4v-4h-4v-4h-12v4v4h-4v-4h-4v-4h-4v4v4h4v4h12v-4v-4h4v4h4v4z" />
    <glyph glyph-name="equivalence" unicode="&#x2261;" 
d="M4 11h24v-4h-24v4zM4 23h24v-4h-24v4zM4 35h24v-4h-24v4z" />
    <glyph glyph-name="lessequal" unicode="&#x2264;" 
d="M4 3h24v-4h-24v4zM16 35h8v-4h-4v-4h-4v-4h-4v-4h4v-4h4v-4h4v-4h-8v4h-4v4h-4v4h-4v4h4v4h4v4h4v4z" />
    <glyph glyph-name="greaterequal" unicode="&#x2265;" 
d="M4 3h24v-4h-24v4zM8 35h8v-4h4v-4h4v-4h4v-4h-4v-4h-4v-4h-4v-4h-8v4h4v4h4v4h4v4h-4v4h-4v4h-4v4z" />
    <glyph glyph-name="dotmath" unicode="&#x22c5;" 
d="M12 35h8v-16h-8v16z" />
    <glyph glyph-name="integraltp" unicode="&#x2320;" 
d="M16 43h12v-4h4v-12h-8v12h-4v-52h-8v52h4v4z" />
    <glyph glyph-name="integralbt" unicode="&#x2321;" 
d="M0 15h8v-12h4v12v36h8v-36v-12h-4v-4h-12v4h-4v12z" />
    <glyph glyph-name="uni23EA" unicode="&#x23ea;" 
d="M24 35h4v-40h-4v8h-4v8h-4v8h4v8h4v8zM8 35h4v-40h-4v8h-4v8h-4v8h4v8h4v8z" />
    <glyph glyph-name="uni23EB" unicode="&#x23eb;" 
d="M12 19h4v-8h4v-8h4v-8h-20v8h4v8h4v8zM12 51h4v-8h4v-8h4v-8h-20v8h4v8h4v8z" />
    <glyph glyph-name="uni23EC" unicode="&#x23ec;" 
d="M16 35h4v-8h4v-8h4v-8h-4v-8h-4v-8h-4v8v8v24zM0 35h4v-8h4v-8h4v-8h-4v-8h-4v-8h-4v8v8v24z" />
    <glyph glyph-name="SF100000" unicode="&#x2500;" 
d="M0 23h32v-8h-32v8z" />
    <glyph glyph-name="uni2501" unicode="&#x2501;" 
d="M0 27h32v-16h-32v16z" />
    <glyph glyph-name="SF110000" unicode="&#x2502;" 
d="M12 51h8v-64h-8v64z" />
    <glyph glyph-name="uni2503" unicode="&#x2503;" 
d="M8 51h16v-64h-16v64z" />
    <glyph glyph-name="uni2504" unicode="&#x2504;" 
d="M24 23h8v-8h-8v8zM12 23h8v-8h-8v8zM0 23h8v-8h-8v8z" />
    <glyph glyph-name="uni2505" unicode="&#x2505;" 
d="M24 27h8v-16h-8v16zM12 27h8v-16h-8v16zM0 27h8v-16h-8v16z" />
    <glyph glyph-name="uni2506" unicode="&#x2506;" 
d="M12 -9h8v-4h-8v4zM12 3h8v-8h-8v8zM12 15h8v-8h-8v8zM12 27h8v-8h-8v8zM12 39h8v-8h-8v8zM12 51h8v-8h-8v8z" />
    <glyph glyph-name="uni2507" unicode="&#x2507;" 
d="M8 -5h16v-8h-16v8zM8 27h16v-24h-16v24zM8 51h16v-16h-16v16z" />
    <glyph glyph-name="uni2508" unicode="&#x2508;" 
d="M24 23h4v-8h-4v8zM16 23h4v-8h-4v8zM8 23h4v-8h-4v8zM0 23h4v-8h-4v8z" />
    <glyph glyph-name="uni2509" unicode="&#x2509;" 
d="M24 27h4v-16h-4v16zM16 27h4v-16h-4v16zM8 27h4v-16h-4v16zM0 27h4v-16h-4v16z" />
    <glyph glyph-name="uni250A" unicode="&#x250a;" 
d="M12 -5h8v-4h-8v4zM12 3h8v-4h-8v4zM12 11h8v-4h-8v4zM12 19h8v-4h-8v4zM12 27h8v-4h-8v4zM12 35h8v-4h-8v4zM12 43h8v-4h-8v4zM12 51h8v-4h-8v4z" />
    <glyph glyph-name="uni250B" unicode="&#x250b;" 
d="M8 -5h16v-4h-16v4zM8 3h16v-4h-16v4zM8 11h16v-4h-16v4zM8 19h16v-4h-16v4zM8 27h16v-4h-16v4zM8 35h16v-4h-16v4zM8 43h16v-4h-16v4zM8 51h16v-4h-16v4z" />
    <glyph glyph-name="SF010000" unicode="&#x250c;" 
d="M12 23h20v-8h-12v-28h-8v28v8z" />
    <glyph glyph-name="uni250D" unicode="&#x250d;" 
d="M16 27h16v-16h-12v-24h-8v24v8h4v8z" />
    <glyph glyph-name="uni250E" unicode="&#x250e;" 
d="M8 27h16v-4h8v-8h-8v-28h-16v28v12z" />
    <glyph glyph-name="uni250F" unicode="&#x250f;" 
d="M8 27h24v-16h-8v-24h-16v24v16z" />
    <glyph glyph-name="SF030000" unicode="&#x2510;" 
d="M0 23h20v-36h-8v28h-12v8z" />
    <glyph glyph-name="uni2511" unicode="&#x2511;" 
d="M0 27h20v-40h-8v24h-12v16z" />
    <glyph glyph-name="uni2512" unicode="&#x2512;" 
d="M8 27h16v-40h-16v28h-8v8h8v4z" />
    <glyph glyph-name="uni2513" unicode="&#x2513;" 
d="M0 27h24v-40h-16v24h-8v16z" />
    <glyph glyph-name="SF020000" unicode="&#x2514;" 
d="M12 51h8v-28h12v-8h-20v36z" />
    <glyph glyph-name="uni2515" unicode="&#x2515;" 
d="M12 51h8v-24h12v-16h-16v8h-4v32z" />
    <glyph glyph-name="uni2516" unicode="&#x2516;" 
d="M8 51h16v-28h8v-8h-20v4h-4v32z" />
    <glyph glyph-name="uni2517" unicode="&#x2517;" 
d="M8 51h16v-24h8v-16h-16v8h-8v32z" />
    <glyph glyph-name="SF040000" unicode="&#x2518;" 
d="M12 51h8v-36h-20v8h12v28z" />
    <glyph glyph-name="uni2519" unicode="&#x2519;" 
d="M12 51h8v-40h-20v16h12v24z" />
    <glyph glyph-name="uni251A" unicode="&#x251a;" 
d="M8 51h16v-32h-4v-4h-20v4v4h8v28z" />
    <glyph glyph-name="uni251B" unicode="&#x251b;" 
d="M8 51h16v-32h-4v-8h-20v8v8h8v24z" />
    <glyph glyph-name="SF080000" unicode="&#x251c;" 
d="M12 51h8v-28h12v-8h-12v-28h-8v28v36z" />
    <glyph glyph-name="uni251D" unicode="&#x251d;" 
d="M12 51h8v-24h12v-16h-12v-24h-8v24v40z" />
    <glyph glyph-name="uni251E" unicode="&#x251e;" 
d="M8 51h16v-28h8v-8h-12v-28h-8v28v4h-4v32z" />
    <glyph glyph-name="uni251F" unicode="&#x251f;" 
d="M12 51h8v-24h12v-16h-8v-24h-16v24v16h4v24z" />
    <glyph glyph-name="uni2520" unicode="&#x2520;" 
d="M8 51h16v-28h8v-8h-8v-28h-16v28v36z" />
    <glyph glyph-name="uni2521" unicode="&#x2521;" 
d="M8 51h16v-24h8v-16h-12v-24h-8v24v8h-4v32z" />
    <glyph glyph-name="uni2522" unicode="&#x2522;" 
d="M12 51h8v-24h4v-4h8v-8h-8v-28h-16v28v12h4v24z" />
    <glyph glyph-name="uni2523" unicode="&#x2523;" 
d="M8 51h16v-24h8v-16h-8v-24h-16v24v40z" />
    <glyph glyph-name="SF090000" unicode="&#x2524;" 
d="M12 51h8v-64h-8v28h-12v8h12v28z" />
    <glyph glyph-name="uni2525" unicode="&#x2525;" 
d="M12 51h8v-64h-8v24h-12v16h12v24z" />
    <glyph glyph-name="uni2526" unicode="&#x2526;" 
d="M8 51h16v-32h-4v-32h-8v28h-12v4v4h8v28z" />
    <glyph glyph-name="uni2527" unicode="&#x2527;" 
d="M12 51h8v-24h4v-40h-16v24h-8v16h12v24z" />
    <glyph glyph-name="uni2528" unicode="&#x2528;" 
d="M8 51h16v-64h-16v28h-8v8h8v28z" />
    <glyph glyph-name="uni2529" unicode="&#x2529;" 
d="M8 51h16v-32h-4v-32h-8v24h-12v8v8h8v24z" />
    <glyph glyph-name="uni252A" unicode="&#x252a;" 
d="M12 51h8v-24h4v-40h-16v28h-8v8h8v4h4v24z" />
    <glyph glyph-name="uni252B" unicode="&#x252b;" 
d="M8 51h16v-64h-16v24h-8v16h8v24z" />
    <glyph glyph-name="SF060000" unicode="&#x252c;" 
d="M0 23h32v-8h-12v-28h-8v28h-12v8z" />
    <glyph glyph-name="uni252D" unicode="&#x252d;" 
d="M0 27h20v-4h12v-8h-12v-28h-8v24h-12v4v12z" />
    <glyph glyph-name="uni252E" unicode="&#x252e;" 
d="M16 27h16v-16h-12v-24h-8v24v4h-12v8h16v4z" />
    <glyph glyph-name="uni252F" unicode="&#x252f;" 
d="M0 27h32v-16h-12v-24h-8v24h-12v16z" />
    <glyph glyph-name="uni2530" unicode="&#x2530;" 
d="M8 27h16v-4h8v-8h-8v-28h-16v28h-8v8h8v4z" />
    <glyph glyph-name="uni2531" unicode="&#x2531;" 
d="M0 27h24v-4h8v-8h-8v-28h-16v24h-8v4v12z" />
    <glyph glyph-name="uni2532" unicode="&#x2532;" 
d="M8 27h24v-16h-8v-24h-16v24v4h-8v8h8v4z" />
    <glyph glyph-name="uni2533" unicode="&#x2533;" 
d="M0 27h32v-16h-8v-24h-16v24h-8v16z" />
    <glyph glyph-name="SF070000" unicode="&#x2534;" 
d="M12 51h8v-28h12v-8h-32v8h12v28z" />
    <glyph glyph-name="uni2535" unicode="&#x2535;" 
d="M12 51h8v-28h12v-8h-12v-4h-20v4v12h12v24z" />
    <glyph glyph-name="uni2536" unicode="&#x2536;" 
d="M12 51h8v-24h12v-16h-16v4h-16v8h12v28z" />
    <glyph glyph-name="uni2537" unicode="&#x2537;" 
d="M12 51h8v-24h12v-16h-32v16h12v24z" />
    <glyph glyph-name="uni2538" unicode="&#x2538;" 
d="M8 51h16v-28h8v-8h-32v8h8v28z" />
    <glyph glyph-name="uni2539" unicode="&#x2539;" 
d="M8 51h16v-28h8v-8h-12v-4h-20v4v12h8v24z" />
    <glyph glyph-name="uni253A" unicode="&#x253a;" 
d="M8 51h16v-24h8v-16h-16v4h-16v8h8v28z" />
    <glyph glyph-name="uni253B" unicode="&#x253b;" 
d="M8 51h16v-24h8v-16h-32v16h8v24z" />
    <glyph glyph-name="SF050000" unicode="&#x253c;" 
d="M12 51h8v-28h12v-8h-12v-28h-8v28h-12v8h12v28z" />
    <glyph glyph-name="uni253D" unicode="&#x253d;" 
d="M12 51h8v-28h12v-8h-12v-28h-8v24h-12v4v12h12v24z" />
    <glyph glyph-name="uni253E" unicode="&#x253e;" 
d="M12 51h8v-24h12v-16h-12v-24h-8v24v4h-12v8h12v28z" />
    <glyph glyph-name="uni253F" unicode="&#x253f;" 
d="M12 51h8v-24h12v-16h-12v-24h-8v24h-12v16h12v24z" />
    <glyph glyph-name="uni2540" unicode="&#x2540;" 
d="M8 51h16v-28h8v-8h-12v-28h-8v28h-12v8h8v28z" />
    <glyph glyph-name="uni2541" unicode="&#x2541;" 
d="M12 51h8v-24h4v-4h8v-8h-8v-28h-16v28h-8v8h8v4h4v24z" />
    <glyph glyph-name="uni2542" unicode="&#x2542;" 
d="M8 51h16v-28h8v-8h-8v-28h-16v28h-8v8h8v28z" />
    <glyph glyph-name="uni2543" unicode="&#x2543;" 
d="M8 51h16v-28h8v-8h-12v-28h-8v24h-12v4v12h8v24z" />
    <glyph glyph-name="uni2544" unicode="&#x2544;" 
d="M8 51h16v-24h8v-16h-12v-24h-8v24v4h-12v8h8v28z" />
    <glyph glyph-name="uni2545" unicode="&#x2545;" 
d="M12 51h8v-24h4v-4h8v-8h-8v-28h-16v24h-8v4v12h12v24z" />
    <glyph glyph-name="uni2546" unicode="&#x2546;" 
d="M12 51h8v-24h12v-16h-8v-24h-16v24v4h-8v8h8v4h4v24z" />
    <glyph glyph-name="uni2547" unicode="&#x2547;" 
d="M8 51h16v-24h8v-16h-12v-24h-8v24h-12v16h8v24z" />
    <glyph glyph-name="uni2548" unicode="&#x2548;" 
d="M12 51h8v-24h12v-16h-8v-24h-16v24h-8v16h12v24z" />
    <glyph glyph-name="uni2549" unicode="&#x2549;" 
d="M8 51h16v-28h8v-8h-8v-28h-16v24h-8v4v12h8v24z" />
    <glyph glyph-name="uni254A" unicode="&#x254a;" 
d="M8 51h16v-24h8v-16h-8v-24h-16v24v4h-8v8h8v28z" />
    <glyph glyph-name="uni254B" unicode="&#x254b;" 
d="M8 51h16v-24h8v-16h-8v-24h-16v24h-8v16h8v24z" />
    <glyph glyph-name="uni254C" unicode="&#x254c;" 
d="M16 23h12v-8h-12v8zM0 23h12v-8h-12v8z" />
    <glyph glyph-name="uni254D" unicode="&#x254d;" 
d="M16 27h12v-16h-12v16zM0 27h12v-16h-12v16z" />
    <glyph glyph-name="uni254E" unicode="&#x254e;" 
d="M12 3h8v-12h-8v12zM12 19h8v-12h-8v12zM12 35h8v-12h-8v12zM12 51h8v-12h-8v12z" />
    <glyph glyph-name="uni254F" unicode="&#x254f;" 
d="M8 3h16v-12h-16v12zM8 19h16v-12h-16v12zM8 35h16v-12h-16v12zM8 51h16v-12h-16v12z" />
    <glyph glyph-name="SF430000" unicode="&#x2550;" 
d="M0 19h32v-4h-32v4zM0 27h32v-4h-32v4z" />
    <glyph glyph-name="SF240000" unicode="&#x2551;" 
d="M16 51h8v-64h-8v64zM4 51h8v-64h-8v64z" />
    <glyph glyph-name="SF510000" unicode="&#x2552;" 
d="M12 27h20v-4h-12v-4h12v-4h-12v-28h-8v28v8v4z" />
    <glyph glyph-name="SF520000" unicode="&#x2553;" 
d="M4 23h28v-8h-8v-28h-8v28h-4v-28h-8v28v8z" />
    <glyph glyph-name="SF390000" unicode="&#x2554;" 
d="M16 19h16v-4h-8v-28h-8v28v4zM4 27h28v-4h-20v-36h-8v36v4z" />
    <glyph glyph-name="SF220000" unicode="&#x2555;" 
d="M0 27h20v-40h-8v28h-12v4h12v4h-12v4z" />
    <glyph glyph-name="SF210000" unicode="&#x2556;" 
d="M0 23h24v-8v-28h-8v28h-4v-28h-8v28h-4v8z" />
    <glyph glyph-name="SF250000" unicode="&#x2557;" 
d="M0 19h12v-32h-8v28h-4v4zM0 27h24v-8v-32h-8v32v4h-16v4z" />
    <glyph glyph-name="SF500000" unicode="&#x2558;" 
d="M12 51h8v-24h12v-4h-12v-4h12v-4h-20v8v28z" />
    <glyph glyph-name="SF490000" unicode="&#x2559;" 
d="M16 51h8v-24h8v-8h-28v32h8v-24h4v24z" />
    <glyph glyph-name="SF380000" unicode="&#x255a;" 
d="M16 51h8v-24h8v-4h-16v28zM4 51h8v-32h20v-4h-28v36z" />
    <glyph glyph-name="SF280000" unicode="&#x255b;" 
d="M12 51h8v-36h-20v4h12v4h-12v4h12v24z" />
    <glyph glyph-name="SF270000" unicode="&#x255c;" 
d="M16 51h8v-24v-8h-24v8h4v24h8v-24h4v24z" />
    <glyph glyph-name="SF260000" unicode="&#x255d;" 
d="M16 51h8v-36h-24v4h16v32zM4 51h8v-28h-12v4h4v24z" />
    <glyph glyph-name="SF360000" unicode="&#x255e;" 
d="M12 51h8v-24h12v-4h-12v-4h12v-4h-12v-28h-8v28v8v28z" />
    <glyph glyph-name="SF370000" unicode="&#x255f;" 
d="M16 51h8v-28h8v-8h-8v-28h-8v28v36zM4 51h8v-64h-8v64z" />
    <glyph glyph-name="SF420000" unicode="&#x2560;" 
d="M16 19h16v-4h-8v-28h-8v28v4zM16 51h8v-24h8v-4h-16v28zM4 51h8v-64h-8v64z" />
    <glyph glyph-name="SF190000" unicode="&#x2561;" 
d="M12 51h8v-64h-8v28h-12v4h12v4h-12v4h12v24z" />
    <glyph glyph-name="SF200000" unicode="&#x2562;" 
d="M16 51h8v-64h-8v64zM4 51h8v-64h-8v28h-4v8h4v28z" />
    <glyph glyph-name="SF230000" unicode="&#x2563;" 
d="M0 19h12v-32h-8v28h-4v4zM16 51h8v-32v-32h-8v32v32zM4 51h8v-28h-12v4h4v24z" />
    <glyph glyph-name="SF470000" unicode="&#x2564;" 
d="M0 19h32v-4h-12v-28h-8v28h-12v4zM0 27h32v-4h-32v4z" />
    <glyph glyph-name="SF480000" unicode="&#x2565;" 
d="M0 23h32v-8h-8v-28h-8v28h-4v-28h-8v28h-4v8z" />
    <glyph glyph-name="SF410000" unicode="&#x2566;" 
d="M16 19h16v-4h-8v-28h-8v28v4zM0 19h12v-32h-8v28h-4v4zM0 27h32v-4h-32v4z" />
    <glyph glyph-name="SF450000" unicode="&#x2567;" 
d="M0 19h32v-4h-32v4zM12 51h8v-24h12v-4h-32v4h12v24z" />
    <glyph glyph-name="SF460000" unicode="&#x2568;" 
d="M12 51h8v-24h12v-12h-32v8h12v28z" />
    <glyph glyph-name="SF400000" unicode="&#x2569;" 
d="M0 19h32v-4h-32v4zM16 51h8v-24h8v-4h-16v28zM4 51h8v-28h-12v4h4v24z" />
    <glyph glyph-name="SF540000" unicode="&#x256a;" 
d="M12 51h8v-24h12v-4h-12v-4h12v-4h-12v-28h-8v28h-12v4h12v4h-12v4h12v24z" />
    <glyph glyph-name="SF530000" unicode="&#x256b;" 
d="M16 51h8v-28h8v-8h-8v-28h-8v28h-4v-28h-8v28h-4v8h4v28h8v-28h4v28z" />
    <glyph glyph-name="SF440000" unicode="&#x256c;" 
d="M16 19h16v-4h-8v-28h-8v28v4zM0 19h12v-32h-8v28h-4v4zM16 51h8v-24h8v-4h-16v28zM4 51h8v-28h-12v4h4v24z" />
    <glyph glyph-name="uni256D" unicode="&#x256d;" 
d="M20 23h12v-8h-8v-4h-4v-24h-8v24v4h4v4h4v4z" />
    <glyph glyph-name="uni256E" unicode="&#x256e;" 
d="M0 23h12v-4h4v-4h4v-28h-8v24h-4v4h-8v8z" />
    <glyph glyph-name="uni256F" unicode="&#x256f;" 
d="M12 51h8v-24h-4v-4h-4v-4h-12v4v4h8v4h4v20z" />
    <glyph glyph-name="uni2570" unicode="&#x2570;" 
d="M12 51h8v-20h4v-4h8v-8h-12v4h-4v4h-4v24z" />
    <glyph glyph-name="uni2571" unicode="&#x2571;" 
d="M24 51h8v-8h-4v-8h-4v-8h-4v-8h-4v-8h-4v-8h-4v-8h-4v-8h-4v8v8h4v8h4v8h4v8h4v8h4v8h4v8z" />
    <glyph glyph-name="uni2572" unicode="&#x2572;" 
d="M0 51h8v-8h4v-8h4v-8h4v-8h4v-8h4v-8h4v-16h-4v8h-4v8h-4v8h-4v8h-4v8h-4v8h-4v8h-4v8z" />
    <glyph glyph-name="uni2573" unicode="&#x2573;" 
d="M24 51h8v-8h-4v-8h-4v-8h-4v-8h4v-8h4v-8h4v-8v-8h-4v8h-4v8h-4v8h-8v-8h-4v-8h-4v-8h-4v8v8h4v8h4v8h4v8h-4v8h-4v8h-4v8h8v-8h4v-8h8v8h4v8z" />
    <glyph glyph-name="uni2574" unicode="&#x2574;" 
d="M0 23h20v-8h-20v8z" />
    <glyph glyph-name="uni2575" unicode="&#x2575;" 
d="M12 51h8v-32h-8v32z" />
    <glyph glyph-name="uni2576" unicode="&#x2576;" 
d="M12 23h20v-8h-20v8z" />
    <glyph glyph-name="uni2577" unicode="&#x2577;" 
d="M12 19h8v-32h-8v32z" />
    <glyph glyph-name="uni2578" unicode="&#x2578;" 
d="M0 27h20v-16h-20v16z" />
    <glyph glyph-name="uni2579" unicode="&#x2579;" 
d="M8 51h16v-32h-16v32z" />
    <glyph glyph-name="uni257A" unicode="&#x257a;" 
d="M16 27h16v-16h-16v16z" />
    <glyph glyph-name="uni257B" unicode="&#x257b;" 
d="M8 27h16v-40h-16v40z" />
    <glyph glyph-name="uni257C" unicode="&#x257c;" 
d="M16 27h16v-16h-16v4h-16v8h16v4z" />
    <glyph glyph-name="uni257D" unicode="&#x257d;" 
d="M12 51h8v-24h4v-40h-16v40h4v24z" />
    <glyph glyph-name="uni257E" unicode="&#x257e;" 
d="M0 27h20v-4h12v-8h-12v-4h-20v4v12z" />
    <glyph glyph-name="uni257F" unicode="&#x257f;" 
d="M8 51h16v-32h-4v-32h-8v32h-4v32z" />
    <glyph glyph-name="upblock" unicode="&#x2580;" 
d="M0 51h32v-32h-32v32z" />
    <glyph glyph-name="uni2581" unicode="&#x2581;" 
d="M0 -5h32v-8h-32v8z" />
    <glyph glyph-name="uni2582" unicode="&#x2582;" 
d="M0 3h32v-16h-32v16z" />
    <glyph glyph-name="uni2583" unicode="&#x2583;" 
d="M0 11h32v-24h-32v24z" />
    <glyph glyph-name="dnblock" unicode="&#x2584;" 
d="M0 19h32v-32h-32v32z" />
    <glyph glyph-name="uni2585" unicode="&#x2585;" 
d="M0 27h32v-40h-32v40z" />
    <glyph glyph-name="uni2586" unicode="&#x2586;" 
d="M0 35h32v-48h-32v48z" />
    <glyph glyph-name="uni2587" unicode="&#x2587;" 
d="M0 43h32v-56h-32v56z" />
    <glyph glyph-name="block" unicode="&#x2588;" 
d="M0 51h32v-64h-32v64z" />
    <glyph glyph-name="uni2589" unicode="&#x2589;" 
d="M0 51h28v-64h-28v64z" />
    <glyph glyph-name="uni258A" unicode="&#x258a;" 
d="M0 51h24v-64h-24v64z" />
    <glyph glyph-name="uni258B" unicode="&#x258b;" 
d="M0 51h20v-64h-20v64z" />
    <glyph glyph-name="lfblock" unicode="&#x258c;" 
d="M0 51h16v-64h-16v64z" />
    <glyph glyph-name="uni258D" unicode="&#x258d;" 
d="M0 51h12v-64h-12v64z" />
    <glyph glyph-name="uni258E" unicode="&#x258e;" 
d="M0 51h8v-64h-8v64z" />
    <glyph glyph-name="uni258F" unicode="&#x258f;" 
d="M0 51h4v-64h-4v64z" />
    <glyph glyph-name="rtblock" unicode="&#x2590;" 
d="M16 51h16v-64h-16v64z" />
    <glyph glyph-name="ltshade" unicode="&#x2591;" 
d="M16 -9h4v-4h-4v4zM0 -9h4v-4h-4v4zM24 -5h4v-4h-4v4zM8 -5h4v-4h-4v4zM16 -1h4v-4h-4v4zM0 -1h4v-4h-4v4zM24 3h4v-4h-4v4zM8 3h4v-4h-4v4zM16 7h4v-4h-4v4zM0 7h4v-4h-4v4zM24 11h4v-4h-4v4zM8 11h4v-4h-4v4zM16 15h4v-4h-4v4zM0 15h4v-4h-4v4zM24 19h4v-4h-4v4zM8 19h4
v-4h-4v4zM16 23h4v-4h-4v4zM0 23h4v-4h-4v4zM24 27h4v-4h-4v4zM8 27h4v-4h-4v4zM16 31h4v-4h-4v4zM0 31h4v-4h-4v4zM24 35h4v-4h-4v4zM8 35h4v-4h-4v4zM16 39h4v-4h-4v4zM0 39h4v-4h-4v4zM24 43h4v-4h-4v4zM8 43h4v-4h-4v4zM16 47h4v-4h-4v4zM0 47h4v-4h-4v4zM24 51h4v-4h-4
v4zM8 51h4v-4h-4v4z" />
    <glyph glyph-name="shade" unicode="&#x2592;" 
d="M24 51h4v-4h-4v4zM16 51h4v-4h-4v4zM8 51h4v-4h-4v4zM0 51h4v-4h-4v4zM28 -9h-4v4h4v-4zM28 -9h4v-4h-4v4zM24 -9v-4h-4v4h-4v4h4v-4h4zM16 -9v-4h-4v4h-4v4h4v-4h4zM8 -9v-4h-4v4h-4v4h4v-4h4zM28 -5v4h-4v4h4v-4h4v-4h-4zM20 -5v4h-4v4h4v-4h4v-4h-4zM12 -5v4h-4v4h4
v-4h4v-4h-4zM4 -5v4h-4v4h4v-4h4v-4h-4zM28 3v4h-4v4h4v-4h4v-4h-4zM20 3v4h-4v4h4v-4h4v-4h-4zM12 3v4h-4v4h4v-4h4v-4h-4zM4 3v4h-4v4h4v-4h4v-4h-4zM28 11v4h-4v4h4v-4h4v-4h-4zM20 11v4h-4v4h4v-4h4v-4h-4zM12 11v4h-4v4h4v-4h4v-4h-4zM4 11v4h-4v4h4v-4h4v-4h-4zM28 19
v4h-4v4h4v-4h4v-4h-4zM20 19v4h-4v4h4v-4h4v-4h-4zM12 19v4h-4v4h4v-4h4v-4h-4zM4 19v4h-4v4h4v-4h4v-4h-4zM28 27v4h-4v4h4v-4h4v-4h-4zM20 27v4h-4v4h4v-4h4v-4h-4zM12 27v4h-4v4h4v-4h4v-4h-4zM4 27v4h-4v4h4v-4h4v-4h-4zM28 35v4h-4v4h4v-4h4v-4h-4zM20 35v4h-4v4h4v-4
h4v-4h-4zM12 35v4h-4v4h4v-4h4v-4h-4zM4 35v4h-4v4h4v-4h4v-4h-4zM28 43v4h4v-4h-4zM20 43v4h4v-4h-4zM12 43v4h4v-4h-4zM4 43v4h4v-4h-4z" />
    <glyph glyph-name="dkshade" unicode="&#x2593;" 
d="M24 51h8v-4v-4v-4h-4v-4h4v-4v-4v-4h-4v-4h4v-4v-4v-4h-4v-4h4v-4v-4v-4h-4v-4h-12v4h-4v4h-4v-4h4v-4h-12v8h4v4h-4v4v8h4v4h-4v4v8h4v4h-4v4v8h4v4h-4v4h8v-4h4v4h8v-4h-4v-4h4v-4h4v4h-4v4h4v4zM24 -9v4h-4v-4h4zM20 -5v4h-4v-4h4zM24 -1v4h-4v-4h4zM12 -1v4h4v4h-4v4
h-4v-4h4v-4h-4v-4h4zM24 7v4h-4v-4h4zM20 11v4h-4v-4h4zM24 15v4h-4v-4h4zM12 15v4h4v4h-4v4h-4v-4h4v-4h-4v-4h4zM24 23v4h-4v-4h4zM20 27v4h-4v-4h4zM24 31v4h-4v-4h4zM12 31v4h4v4h-4v4h-4v-4h4v-4h-4v-4h4z" />
    <glyph glyph-name="uni2594" unicode="&#x2594;" 
d="M0 51h32v-8h-32v8z" />
    <glyph glyph-name="uni2595" unicode="&#x2595;" 
d="M28 51h4v-64h-4v64z" />
    <glyph glyph-name="uni2596" unicode="&#x2596;" 
d="M0 19h16v-32h-16v32z" />
    <glyph glyph-name="uni2597" unicode="&#x2597;" 
d="M16 19h16v-32h-16v32z" />
    <glyph glyph-name="uni2598" unicode="&#x2598;" 
d="M0 51h16v-32h-16v32z" />
    <glyph glyph-name="uni2599" unicode="&#x2599;" 
d="M0 51h16v-32h16v-32h-32v64z" />
    <glyph glyph-name="uni259A" unicode="&#x259a;" 
d="M0 51h16v-32h-16v32zM16 19h16v-32h-16v32z" />
    <glyph glyph-name="uni259B" unicode="&#x259b;" 
d="M0 51h32v-32h-16v-32h-16v32v32z" />
    <glyph glyph-name="uni259C" unicode="&#x259c;" 
d="M0 51h32v-64h-16v32h-16v32z" />
    <glyph glyph-name="uni259D" unicode="&#x259d;" 
d="M16 51h16v-32h-16v32z" />
    <glyph glyph-name="uni259E" unicode="&#x259e;" 
d="M16 51h16v-32h-16v-32h-16v32h16v32z" />
    <glyph glyph-name="uni259F" unicode="&#x259f;" 
d="M16 51h16v-64h-32v32h16v32z" />
    <glyph glyph-name="filledbox" unicode="&#x25a0;" 
d="M4 43h24v-48h-24v48z" />
    <glyph glyph-name="H22073" unicode="&#x25a1;" 
d="M4 43h24v-8v-32v-8h-24v40v8zM20 3v32h-8v-32h8z" />
    <glyph glyph-name="uni25A2" unicode="&#x25a2;" 
d="M4 51h20v-8h4v-40h-4v-8h-20v8h-4v40h4v8zM20 3v40h-12v-40h12z" />
    <glyph glyph-name="uni25A3" unicode="&#x25a3;" 
d="M8 35h12v-24h-12v24zM0 51h28v-8v-8v-32v-8h-28v48v8zM24 35v8h-20v-40h20v32z" />
    <glyph glyph-name="uni25A4" unicode="&#x25a4;" 
d="M0 -5h32v-4h-32v4zM0 3h32v-4h-32v4zM0 11h32v-4h-32v4zM0 19h32v-4h-32v4zM0 27h32v-4h-32v4zM0 35h32v-4h-32v4zM0 43h32v-4h-32v4zM0 51h32v-4h-32v4z" />
    <glyph glyph-name="uni25A5" unicode="&#x25a5;" 
d="M24 51h4v-64h-4v64zM16 51h4v-64h-4v64zM8 51h4v-64h-4v64zM0 51h4v-64h-4v64z" />
    <glyph glyph-name="uni25A6" unicode="&#x25a6;" 
d="M20 51h4v-4h8v-4h-8v-12h8v-4h-8v-12h8v-4h-8v-12h8v-4h-8v-8h-4v8h-12v-8h-4v8h-4v4h4v12h-4v4h4v12h-4v4h4v12h-4v4h4v4h4v-4h12v4zM20 -1v12h-12v-12h12zM20 15v12h-12v-12h12zM20 31v12h-12v-12h12z" />
    <glyph glyph-name="uni25A7" unicode="&#x25a7;" 
d="M0 19h4v-8h-4v8zM16 51h4v-8h-4v8zM0 51h4v-8h-4v8zM28 -5h-4v8h-4v8h-4v8h4v-8h4v-8h4v-8zM28 -5h4v-8h-4v8zM12 -5h-4v8h-4v8h4v-8h4v-8zM12 -5h4v-8h-4v8zM28 27h-4v8h-4v8h4v-8h4v-8zM28 27h4v-8h-4v8zM16 19h-4v8h-4v8h-4v8h4v-8h4v-8h4v-8z" />
    <glyph glyph-name="uni25A8" unicode="&#x25a8;" 
d="M28 19h4v-8h-4v-8h-4v-8h-4v-8h-4v8h4v8h4v8h4v8zM28 51h4v-8h-4v-8h-4v-8h-4v-8h-4v-8h-4v-8h-4v-8h-4v-8h-4v8h4v8h4v8h4v8h4v8h4v8h4v8h4v8zM12 51h4v-8h-4v-8h-4v-8h-4v-8h-4v8h4v8h4v8h4v8z" />
    <glyph glyph-name="uni25A9" unicode="&#x25a9;" 
d="M0 19h4v-8h-4v8zM24 51h4v-8h-4v8zM16 51h4v-8h-4v8zM8 51h4v-8h-4v8zM0 51h4v-8h-4v8zM28 -5h-4v8h4v-8zM28 -5h4v-8h-4v8zM16 -5v8h4v-8h-4zM16 -5v-8h-4v8h-4v8h4v-8h4zM20 3v8h-4v8h4v-8h4v8h4v-8h-4v-8h-4zM4 3v-8h-4v8h4zM4 3v8h4v8h4v-8h-4v-8h-4zM28 19v8h-4v8h4
v-8h4v-8h-4zM12 19v8h-4v8h4v-8h4v8h4v-8h-4v-8h-4zM20 35v8h4v-8h-4zM4 35v-8h-4v8h4zM4 35v8h4v-8h-4z" />
    <glyph glyph-name="H18543" unicode="&#x25aa;" 
d="M8 35h12v-24h-12v24z" />
    <glyph glyph-name="H18551" unicode="&#x25ab;" 
d="M8 35h12v-8v-8v-8h-12v16v8zM16 19v8h-4v-8h4z" />
    <glyph glyph-name="filledrect" unicode="&#x25ac;" 
d="M4 19h24v-24h-24v24z" />
    <glyph glyph-name="uni25AD" unicode="&#x25ad;" 
d="M4 19h24v-8v-8v-8h-24v16v8zM20 3v8h-8v-8h8z" />
    <glyph glyph-name="uni25AE" unicode="&#x25ae;" 
d="M8 51h16v-56h-16v56z" />
    <glyph glyph-name="uni25AF" unicode="&#x25af;" 
d="M8 51h16v-8v-40v-8h-16v48v8zM20 3v40h-8v-40h8z" />
    <glyph glyph-name="uni25B0" unicode="&#x25b0;" 
d="M8 19h24v-8h-4v-8h-4v-8h-24v8h4v8h4v8z" />
    <glyph glyph-name="uni25B1" unicode="&#x25b1;" 
d="M8 19h24v-8h-4v-8h-4v-8h-24v8h4v8h4v8zM20 3v8h-8v-8h8z" />
    <glyph glyph-name="triagup" unicode="&#x25b2;" 
d="M12 51h4v-16h4v-16h4v-16h4v-16h-28v16h4v16h4v16h4v16z" />
    <glyph glyph-name="uni25B3" unicode="&#x25b3;" 
d="M12 51h8v-16h4v-8h4v-16h4v-16v-8h-32v24h4v16h4v8h4v16zM24 -5v16h-4v16h-8v-16h-4v-16h16z" />
    <glyph glyph-name="uni25B4" unicode="&#x25b4;" 
d="M12 43h4v-16h4v-16h4v-16h-20v16h4v16h4v16z" />
    <glyph glyph-name="uni25B5" unicode="&#x25b5;" 
d="M12 43h4v-8h4v-4v-8h4v-4v-8h4v-4v-8v-4h-28v12v4h4v8v4h4v8v4h4v8zM24 -1v8h-4v12h-4v12h-4v-12h-4v-12h-4v-8h20z" />
    <glyph glyph-name="uni25B6" unicode="&#x25b6;" 
d="M0 51h4v-4h4v-4h4v-4h4v-4h4v-4h4v-4h4v-4h4v-4h-4v-4h-4v-4h-4v-4h-4v-4h-4v-4h-4v-4h-4v-4h-4v4v4v4v4v4v4v4v32z" />
    <glyph glyph-name="uni25B7" unicode="&#x25b7;" 
d="M0 51h4v-4h4v-4h4v-4h4v-4h4v-4h4v-4h4v-4h4v-4h-4v-4h-4v-4h-4v-4h-4v-4h-4v-4h-4v-4h-4v-4h-4v4v4v4v32v16zM16 11v4h4v4h4v4h-4v4h-4v4h-4v4h-4v-28h4v4h4z" />
    <glyph glyph-name="uni25B8" unicode="&#x25b8;" 
d="M4 35h4v-4h4v-4h4v-4h4v-4h4v-4h-4v-4h-4v-4h-4v-4h-4v-4h-4v4v4v4v4v20z" />
    <glyph glyph-name="uni25B9" unicode="&#x25b9;" 
d="M4 35h4v-4h4v-4h4v-4h-4v4h-4v-20h4v4h4v-4h-4v-4h-4v-4h-4v4v24v8zM16 11v4h4v-4h-4zM20 15v4h-4v4h4v-4h4v-4h-4z" />
    <glyph glyph-name="triagrt" unicode="&#x25ba;" 
d="M0 35h8v-4h8v-4h8v-4h8v-4h-8v-4h-8v-4h-8v-4h-8v4v4v4v16z" />
    <glyph glyph-name="uni25BB" unicode="&#x25bb;" 
d="M0 35h8v-4h8v-4h8v-4h8v-4h-8v-4h-8v-4h-8v-4h-8v4v16v8zM20 19v4h-8v4h-4v-12h4v4h8z" />
    <glyph glyph-name="triagdn" unicode="&#x25bc;" 
d="M0 51h28v-16h-4v-16h-4v-16h-4v-16h-4v16h-4v16h-4v16h-4v16z" />
    <glyph glyph-name="uni25BD" unicode="&#x25bd;" 
d="M0 51h32v-8v-16h-4v-16h-4v-8h-4v-16h-8v16h-4v8h-4v16h-4v16v8zM24 27v16h-16v-16h4v-16h8v16h4z" />
    <glyph glyph-name="uni25BE" unicode="&#x25be;" 
d="M4 43h20v-16h-4v-16h-4v-16h-4v16h-4v16h-4v16z" />
    <glyph glyph-name="uni25BF" unicode="&#x25bf;" 
d="M0 43h28v-4v-12h-4v-12h-4v-8v-4h-4v-8h-4v8h-4v12h-4v12h-4v12v4zM16 15v4h4v8v4h4v8h-20v-8h4v-12h4v-12h4v8z" />
    <glyph glyph-name="uni25C0" unicode="&#x25c0;" 
d="M28 51h4v-60h-4v4h-4v4h-4v4h-4v4h-4v4h-4v4h-4v4h-4v4h4v4h4v4h4v4h4v4h4v4h4v4h4v4z" />
    <glyph glyph-name="uni25C1" unicode="&#x25c1;" 
d="M28 51h4v-16v-4v-4v-4v-16v-16h-4v4h-4v4h-4v4h-4v4h-4v4h-4v4h-4v4h-4v4h4v4h4v4h4v4h4v4h4v4h4v4h4v4zM24 7v16v4v4v4h-4v-4h-4v-4h-4v-4h-4v-4h4v-4h4v-4h4v-4h4z" />
    <glyph glyph-name="uni25C2" unicode="&#x25c2;" 
d="M20 35h4v-36h-4v4h-4v4h-4v4h-4v4h-4v4h4v4h4v4h4v4h4v4z" />
    <glyph glyph-name="uni25C3" unicode="&#x25c3;" 
d="M20 35h4v-8v-4v-4v-12v-8h-4v4h-4v4h-4v4h-4v4h-4v4h4v-4h4v-4h4v-4h4v12v4v4h-4v-4h-4v-4h-4v4h4v4h4v4h4v4z" />
    <glyph glyph-name="triaglf" unicode="&#x25c4;" 
d="M24 35h8v-28h-8v4h-8v4h-8v4h-8v4h8v4h8v4h8v4z" />
    <glyph glyph-name="uni25C5" unicode="&#x25c5;" 
d="M24 35h8v-8v-4v-8v-8h-8v4h-8v4h-8v4h-8v4h8v4h8v4h8v4zM24 15v8v4h-4v-4h-8v-4h8v-4h4z" />
    <glyph glyph-name="uni25C6" unicode="&#x25c6;" 
d="M12 51h8v-8h4v-8h4v-8h4v-16h-4v-8h-4v-8h-4v-8h-8v8h-4v8h-4v8h-4v16h4v8h4v8h4v8z" />
    <glyph glyph-name="uni25C7" unicode="&#x25c7;" 
d="M12 51h8v-8h4v-8h4v-8h4v-16h-4v-8h-4v-8h-4v-8h-8v8h-4v8h-4v8h-4v16h4v8h4v8h4v8zM24 11v16h-4v8h-8v-8h-4v-16h4v-8h8v8h4z" />
    <glyph glyph-name="uni25C8" unicode="&#x25c8;" 
d="M12 51h8v-8h4v-8h4v-8h4v-16h-4v-8h-4v8h4v16h-4v-16h-4v-8h-8v8h-4v16h4v8h8v-8h4v8h-4v8h-8v-8h-4v-8h-4v-16h-4v16h4v8h4v8h4v8zM24 3v-8h-4v8h4zM20 -5v-8h-8v8h-4v8h-4v8h4v-8h4v-8h8z" />
    <glyph glyph-name="uni25C9" unicode="&#x25c9;" 
d="M12 27h8v-16h-8v16zM8 51h16v-8h4v-8h4v-8v-24h-4v-8h-4v-8h-16v8h-4v8h-4v32h4v8h4v8zM24 3v24v8h-4v8h-8v-8h-4v-32h4v-8h8v8h4z" />
    <glyph glyph-name="lozenge" unicode="&#x25ca;" 
d="M12 51h4v-8h4v-8h4v-8h4v-16h-4v-8h-4v-8h-4v-8h-4v8h-4v8h-4v8h-4v16h4v8h4v8h4v8zM20 11v16h-4v8h-4v-8h-4v-16h4v-8h4v8h4z" />
    <glyph glyph-name="circle" unicode="&#x25cb;" 
d="M8 43h16v-8h4v-8v-24h-4v-8h-16v8h-4v24v8h4v8zM20 3v8h4v16h-4v8h-8v-8h-4v-16h4v-8h8z" />
    <glyph glyph-name="uni25CC" unicode="&#x25cc;" 
d="M12 3h4v-8h-4v8zM20 11h4v-8h-4v8zM4 11h4v-8h-4v8zM24 27h4v-8h-4v8zM0 27h4v-8h-4v8zM20 43h4v-8h-4v8zM4 43h4v-8h-4v8zM12 51h4v-8h-4v8z" />
    <glyph glyph-name="uni25CD" unicode="&#x25cd;" 
d="M8 43h12v-8h4v-8h4v-16h-4v16h-4v-16h4v-8h-4v-8h-12v8h-4v8h-4v16h4v-16h4v16h-4v8h4v8zM16 3v24v8h-4v-8v-16v-8h4z" />
    <glyph glyph-name="uni25CE" unicode="&#x25ce;" 
d="M12 35h4v-8h4v-8h-4v8h-4v-8h-4v8h4v8zM8 51h12v-8h4v-8h4v-8v-16h-4v-8h-4v8h4v16v8h-4v8h-12v-8h-4v-24h-4v24h4v8h4v8zM16 19v-8h-4v8h4zM20 3v-8h-12v8h-4v8h4v-8h12z" />
    <glyph glyph-name="H18533" unicode="&#x25cf;" 
d="M8 43h16v-8h4v-32h-4v-8h-16v8h-4v32h4v8z" />
    <glyph glyph-name="uni25D0" unicode="&#x25d0;" 
d="M8 51h16v-8h4v-8h4v-32h-4v-8h-4v-8h-16v8h-4v8h-4v32h4v8h4v8zM24 3v32h-4v8h-4v-48h4v8h4z" />
    <glyph glyph-name="uni25D1" unicode="&#x25d1;" 
d="M8 51h16v-8h4v-8h4v-32h-4v-8h-4v-8h-16v8h-4v8h-4v32h4v8h4v8zM16 3v32v8h-4v-8h-4v-32h4v-8h4v8z" />
    <glyph glyph-name="uni25D2" unicode="&#x25d2;" 
d="M8 51h16v-8h4v-8h4v-16v-16h-4v-8h-4v-8h-16v8h-4v8h-4v32h4v8h4v8zM24 19v16h-4v8h-8v-8h-4v-16h16z" />
    <glyph glyph-name="uni25D3" unicode="&#x25d3;" 
d="M8 51h16v-8h4v-8h4v-16v-16h-4v-8h-4v-8h-16v8h-4v8h-4v16v16h4v8h4v8zM24 3v16h-16v-16h4v-8h8v8h4z" />
    <glyph glyph-name="uni25D4" unicode="&#x25d4;" 
d="M8 51h16v-8h4v-8h4v-32h-4v-8h-4v-8h-16v8h-4v8h-4v32h4v8h4v8zM24 3v16h-8v16v8h-4v-8h-4v-32h4v-8h8v8h4z" />
    <glyph glyph-name="uni25D5" unicode="&#x25d5;" 
d="M8 51h16v-8h4v-8h4v-16v-16h-4v-8h-4v-8h-16v8h-4v8h-4v32h4v8h4v8zM16 19v16v8h-4v-8h-4v-16h8z" />
    <glyph glyph-name="uni25D6" unicode="&#x25d6;" 
d="M24 47h8v-52h-8v4h-8v4h-4v8h-4v20h4v8h4v4h8v4z" />
    <glyph glyph-name="uni25D7" unicode="&#x25d7;" 
d="M0 47h8v-4h8v-4h4v-8h4v-20h-4v-8h-4v-4h-8v-4h-8v4v4v8v36z" />
    <glyph glyph-name="invbullet" unicode="&#x25d8;" 
d="M0 51h32v-16v-8v-24v-16h-32v40v8v16zM20 3v8h4v16h-4v8h-8v-8h-4v-16h4v-8h8z" />
    <glyph glyph-name="invcircle" unicode="&#x25d9;" 
d="M12 35h8v-8h4v-16h-4v-8h-8v8h-4v16h4v8zM0 51h32v-8v-8v-24v-16v-8h-32v48v8v8zM28 11v24h-4v8h-16v-8h-4v-32h4v-8h16v8h4v8z" />
    <glyph glyph-name="uni25DA" unicode="&#x25da;" 
d="M12 35h8v-8h4v-8h-16v8h4v8zM0 51h32v-8v-8v-16h-4v16h-4v8h-16v-8h-4v-16h-4v16v8v8z" />
    <glyph glyph-name="uni25DB" unicode="&#x25db;" 
d="M28 19h4v-8v-16v-8h-32v32h4v-16h4v-8h16v8h4v8v8zM8 19h16v-8h-4v-8h-8v8h-4v8z" />
    <glyph glyph-name="uni25DC" unicode="&#x25dc;" 
d="M8 51h12v-8h-8v-8h-4v-16h-8v16h4v8h4v8z" />
    <glyph glyph-name="uni25DD" unicode="&#x25dd;" 
d="M12 51h12v-8h4v-8h4v-16h-8v16h-4v8h-8v8z" />
    <glyph glyph-name="uni25DE" unicode="&#x25de;" 
d="M24 19h8v-16h-4v-8h-4v-8h-12v8h8v8h4v16z" />
    <glyph glyph-name="uni25DF" unicode="&#x25df;" 
d="M0 19h8v-16h4v-8h8v-8h-12v8h-4v8h-4v16z" />
    <glyph glyph-name="uni25E0" unicode="&#x25e0;" 
d="M8 51h16v-8h4v-8h4v-16h-8v16h-4v8h-8v-8h-4v-16h-8v16h4v8h4v8z" />
    <glyph glyph-name="uni25E1" unicode="&#x25e1;" 
d="M24 19h8v-16h-4v-8h-4v-8h-16v8h-4v8h-4v16h8v-16h4v-8h8v8h4v16z" />
    <glyph glyph-name="uni25E2" unicode="&#x25e2;" 
d="M28 51h4v-64h-32v8h4v8h4v8h4v8h4v8h4v8h4v8h4v8z" />
    <glyph glyph-name="uni25E3" unicode="&#x25e3;" 
d="M0 51h4v-8h4v-8h4v-8h4v-8h4v-8h4v-8h4v-8h4v-8h-32v64z" />
    <glyph glyph-name="uni25E4" unicode="&#x25e4;" 
d="M0 51h32v-8h-4v-8h-4v-8h-4v-8h-4v-8h-4v-8h-4v-8h-4v-8h-4v8v8v8v8v8v8v8v8z" />
    <glyph glyph-name="uni25E5" unicode="&#x25e5;" 
d="M0 51h32v-64h-4v8h-4v8h-4v8h-4v8h-4v8h-4v8h-4v8h-4v8z" />
    <glyph glyph-name="openbullet" unicode="&#x25e6;" 
d="M12 35h8v-8h4v-16h-4v16h-8v-16h-4v16h4v8zM20 11v-8h-8v8h8z" />
    <glyph glyph-name="uni25E7" unicode="&#x25e7;" 
d="M0 51h32v-8v-48v-8h-32v56v8zM24 -5v48h-8v-48h8z" />
    <glyph glyph-name="uni25E8" unicode="&#x25e8;" 
d="M0 51h32v-8v-48v-8h-32v56v8zM16 -5v48h-8v-48h8z" />
    <glyph glyph-name="uni25E9" unicode="&#x25e9;" 
d="M0 51h32v-24v-8v-8v-8v-8v-8h-32v16v8v8v8v24zM24 -5v8v8v8v8h-4v-8h-4v-8h-4v-8h-4v-8h16z" />
    <glyph glyph-name="uni25EA" unicode="&#x25ea;" 
d="M0 51h32v-8v-32v-24h-32v56v8zM12 11v8h4v8h4v8h4v8h-16v-32h4z" />
    <glyph glyph-name="uni25EB" unicode="&#x25eb;" 
d="M0 51h32v-8v-48v-8h-32v56v8zM20 -5h4v48h-4v-48zM12 -5v48h-4v-48h4z" />
    <glyph glyph-name="uni25EC" unicode="&#x25ec;" 
d="M12 19h8v-8v-8h-8v8v8zM12 51h8v-16h4v-8h4v-8v-8h4v-16v-8h-32v24h4v-16h24v16h-4v8v8h-4v8h-8v-8h-4v-16h-4v16h4v8h4v16z" />
    <glyph glyph-name="uni25ED" unicode="&#x25ed;" 
d="M12 51h8v-16h4v-8h4v-16h4v-16v-8h-32v24h4v16h4v8h4v16zM24 -5v16h-4v16h-4v-32h8z" />
    <glyph glyph-name="uni25EE" unicode="&#x25ee;" 
d="M12 51h8v-16h4v-8h4v-16h4v-16v-8h-32v24h4v16h4v8h4v16zM16 -5v16v16h-4v-16h-4v-16h8z" />
    <glyph glyph-name="uni25EF" unicode="&#x25ef;" 
d="M8 51h16v-8h4v-8h4v-32h-4v-8h-4v-8h-16v8h-4v8h-4v32h4v8h4v8zM24 3v32h-4v8h-8v-8h-4v-32h4v-8h8v8h4z" />
    <glyph glyph-name="uni25F0" unicode="&#x25f0;" 
d="M0 51h32v-8v-32v-16v-8h-32v24v32v8zM24 -5v16v32h-4v-24v-8h-12v-16h16zM12 19v24h-4v-24h4z" />
    <glyph glyph-name="uni25F1" unicode="&#x25f1;" 
d="M0 51h32v-8v-32v-16v-8h-32v24v32v8zM20 -5h4v16v32h-16v-24h12v-8v-16zM12 -5v16h-4v-16h4z" />
    <glyph glyph-name="uni25F2" unicode="&#x25f2;" 
d="M0 51h32v-8v-32v-16v-8h-32v56v8zM20 11v-16h4v16h-4zM12 11v8h12v24h-16v-48h4v16z" />
    <glyph glyph-name="uni25F3" unicode="&#x25f3;" 
d="M0 51h32v-8v-24v-24v-8h-32v56v8zM24 19v24h-4v-24h4zM24 -5v16h-12v32h-4v-48h16z" />
    <glyph glyph-name="uni25F4" unicode="&#x25f4;" 
d="M8 51h16v-8h4v-8h4v-24v-8h-4v-8h-4v-8h-16v8h-4v8h-4v8v24h4v8h4v8zM24 3v8v24h-4v-16v-8h-12v-8h4v-8h8v8h4zM12 19v16h-4v-16h4z" />
    <glyph glyph-name="uni25F5" unicode="&#x25f5;" 
d="M8 51h16v-8h4v-8h4v-16v-16h-4v-8h-4v-8h-16v8h-4v8h-4v16v16h4v8h4v8zM20 3h4v16v16h-4v8h-8v-8h-4v-8h12v-8v-16zM12 3v16h-4v-16h4z" />
    <glyph glyph-name="uni25F6" unicode="&#x25f6;" 
d="M8 51h16v-8h4v-8h4v-16v-16h-4v-8h-4v-8h-16v8h-4v8h-4v32h4v8h4v8zM20 19v-16h4v16h-4zM12 19v8h12v8h-4v8h-8v-8h-4v-32h4v16z" />
    <glyph glyph-name="uni25F7" unicode="&#x25f7;" 
d="M8 51h16v-8h4v-8h4v-16v-16h-4v-8h-4v-8h-16v8h-4v8h-4v32h4v8h4v8zM24 3v8h-12v24h-4v-32h4v-8h8v8h4zM24 19v16h-4v-16h4z" />
    <glyph glyph-name="uni25F8" unicode="&#x25f8;" 
d="M0 51h32v-8h-4v-8h-4v-8h-4v-8h-4v-8h-4v-8h-4v-8h-4v-8h-4v8v8v8v32v8zM16 27v8h4v8h-12v-24h4v8h4z" />
    <glyph glyph-name="uni25F9" unicode="&#x25f9;" 
d="M0 51h32v-8v-24v-32h-4v8h-4v8h-4v8h-4v8h-4v8h-4v8h-4v8h-4v8zM24 19v24h-12v-8h4v-8h4v-8h4z" />
    <glyph glyph-name="uni25FA" unicode="&#x25fa;" 
d="M28 51h4v-32v-8v-8v-8v-8h-32v8h4v8h4v8h4v8h4v8h4v8h4v8h4v8zM24 -5v8v8v8h-4v-8h-4v-8h-4v-8h12z" />
    <glyph glyph-name="uni25FB" unicode="&#x25fb;" 
d="M4 43h20v-8v-24v-8h-20v32v8zM16 11v24h-4v-24h4z" />
    <glyph glyph-name="uni25FC" unicode="&#x25fc;" 
d="M4 43h20v-40h-20v40z" />
    <glyph glyph-name="uni25FD" unicode="&#x25fd;" 
d="M8 35h16v-8v-16v-8h-16v24v8zM20 11v16h-8v-16h8z" />
    <glyph glyph-name="uni25FE" unicode="&#x25fe;" 
d="M8 35h16v-32h-16v32z" />
    <glyph glyph-name="uni25FF" unicode="&#x25ff;" 
d="M0 51h4v-8h4v-8h4v-8h4v-8h4v-8h4v-8h4v-8h4v-8h-32v32v32zM20 -5v8h-4v8h-4v8h-4v-24h12z" />
    <glyph glyph-name="uni2625" unicode="&#x2625;" 
d="M4 43h20v-4h4v-8h-4v-4h-4v-4h8v-4h-8v-20h-12v20h-8v4h8v4h-4v4h-4v8h4v4zM20 31v8h-12v-8h4v-4h4v4h4z" />
    <glyph glyph-name="uni2628" unicode="&#x2628;" 
d="M12 43h8v-8h4v-4h-4v-8h8v-4h-8v-20h-8v20h-8v4h8v8h-4v4h4v8z" />
    <glyph glyph-name="uni262F" unicode="&#x262f;" 
d="M8 23h8v-4h8v4h4v8h4v-8v-4v-4v-4h-4v-4h-4v-4h-16v4h-4v4h-4v4v16h4v-12h4v4zM8 39h16v-4h4v-4h-4v-4h-8v4h8v4h-16v-4h-4v4h4v4zM16 11v4h-8v-4h8z" />
    <glyph glyph-name="uni2630" unicode="&#x2630;" 
d="M0 3h28v-8h-28v8zM0 19h28v-8h-28v8zM0 35h28v-8h-28v8z" />
    <glyph glyph-name="uni2631" unicode="&#x2631;" 
d="M0 3h28v-8h-28v8zM0 19h28v-8h-28v8zM20 35h8v-8h-8v8zM0 35h8v-8h-8v8z" />
    <glyph glyph-name="uni2632" unicode="&#x2632;" 
d="M0 3h28v-8h-28v8zM20 19h8v-8h-8v8zM0 19h8v-8h-8v8zM0 35h28v-8h-28v8z" />
    <glyph glyph-name="uni2633" unicode="&#x2633;" 
d="M0 3h28v-8h-28v8zM20 19h8v-8h-8v8zM0 19h8v-8h-8v8zM20 35h8v-8h-8v8zM0 35h8v-8h-8v8z" />
    <glyph glyph-name="uni2634" unicode="&#x2634;" 
d="M20 3h8v-8h-8v8zM0 3h8v-8h-8v8zM0 19h28v-8h-28v8zM0 35h28v-8h-28v8z" />
    <glyph glyph-name="uni2635" unicode="&#x2635;" 
d="M20 3h8v-8h-8v8zM0 3h8v-8h-8v8zM0 19h28v-8h-28v8zM20 35h8v-8h-8v8zM0 35h8v-8h-8v8z" />
    <glyph glyph-name="uni2636" unicode="&#x2636;" 
d="M20 3h8v-8h-8v8zM0 3h8v-8h-8v8zM20 19h8v-8h-8v8zM0 19h8v-8h-8v8zM0 35h28v-8h-28v8z" />
    <glyph glyph-name="uni2637" unicode="&#x2637;" 
d="M20 3h8v-8h-8v8zM0 3h8v-8h-8v8zM20 19h8v-8h-8v8zM0 19h8v-8h-8v8zM20 35h8v-8h-8v8zM0 35h8v-8h-8v8z" />
    <glyph glyph-name="uni2639" unicode="&#x2639;" 
d="M12 19h8v-4h4v-4h-16v4h4v4zM20 31h4v-4h-4v4zM8 31h4v-4h-4v4zM8 43h16v-4h4v-4h4v-4v-12v-12h-4v-4h-4v4h4v12v12v4h-4v4h-16v-4h-4v-28h-4v28h4v4h4v4zM24 3v-4h-16v4h-4v4h4v-4h16z" />
    <glyph glyph-name="smileface" unicode="&#x263a;" 
d="M8 19h16v-4h-4v-4h-8v4h-4v4zM20 31h4v-4h-4v4zM8 31h4v-4h-4v4zM8 43h16v-4h4v-4h4v-4v-12v-4v-8h-4v-4h-4v4h4v8v4v12v4h-4v4h-16v-4h-4v-28h-4v28h4v4h4v4zM24 3v-4h-16v4h-4v4h4v-4h16z" />
    <glyph glyph-name="invsmileface" unicode="&#x263b;" 
d="M8 43h16v-4h4v-4h4v-4v-4v-8v-8v-4h-4v-4h-4v-4h-16v4h-4v4h-4v12v12v4h4v4h4v4zM20 11v4h4v4h-16v-4h4v-4h8zM20 27h4v4h-4v-4zM12 27v4h-4v-4h4z" />
    <glyph glyph-name="spade" unicode="&#x2660;" 
d="M12 39h4v-4h4v-4h4v-4h4v-12h-8v-8h4v-4h-20v4h4v8h-8v12h4v4h4v4h4v4z" />
    <glyph glyph-name="uni2661" unicode="&#x2661;" 
d="M16 39h8v-4h4v-4v-12h-4v-8h-4v-4h-4v-4h-4v4h-4v4h-4v8h-4v12v4h4v4h8v-4h4v4zM20 19v12h-12v-12h4v-8h4v8h4z" />
    <glyph glyph-name="uni2662" unicode="&#x2662;" 
d="M12 39h4v-4h4v-8h4v-4h4v-4h-4v-4h-4v-8h-4v-4h-4v4h-4v8h-4v4h-4v4h4v4h4v8h4v4zM20 19v4h-4v4h-4v-4h-4v-4h4v-4h4v4h4z" />
    <glyph glyph-name="club" unicode="&#x2663;" 
d="M12 39h4v-4h4v-8h4v-4h4v-8h-4v-4h-4v4h-4v-8h4v-4h-12v4h4v8h-4v-4h-4v4h-4v8h4v4h4v-4h4v4h-4v8h4v4zM16 23h4v4h-4v-4z" />
    <glyph glyph-name="uni2664" unicode="&#x2664;" 
d="M12 39h4v-4h4v-4h4v-4h4v-12h-8v-8h4v-4h-20v4h4v8h-8v12h4v4h4v4h4v4zM16 15v4h4v8h-4v4h-4v-4h-4v-8h4v-4h4z" />
    <glyph glyph-name="heart" unicode="&#x2665;" 
d="M16 39h8v-4h4v-16h-4v-8h-4v-4h-4v-4h-4v4h-4v4h-4v8h-4v16h4v4h8v-4h4v4z" />
    <glyph glyph-name="diamond" unicode="&#x2666;" 
d="M12 39h4v-4h4v-8h4v-4h4v-4h-4v-4h-4v-8h-4v-4h-4v4h-4v8h-4v4h-4v4h4v4h4v8h4v4z" />
    <glyph glyph-name="uni2667" unicode="&#x2667;" 
d="M8 39h12v-12h8v-12h-8v-8h4v-4h-20v4h4v8h-8v12h8v-8h4v-12h4v8v4h4v8h-12v12z" />
    <glyph glyph-name="uni2669" unicode="&#x2669;" 
d="M16 39h8v-32h-4v-4h-12v4h-4v4h4v4h8v24z" />
    <glyph glyph-name="musicalnote" unicode="&#x266a;" 
d="M12 39h8v-4h4v-4h4v-4h4v-4h-8v4h-4v-20h-4v-4h-12v4h-4v4h4v4h8v12v12z" />
    <glyph glyph-name="musicalnotedbl" unicode="&#x266b;" 
d="M4 39h28v-4v-28h-4v-4h-8v4v8h4v20h-12v-32h-4v-4h-8v4v8h4v24v4z" />
    <glyph glyph-name="uni266C" unicode="&#x266c;" 
d="M4 39h28v-4v-4v-4v-20h-4v-4h-8v4v8h4v12h-12v-24h-4v-4h-8v4v8h4v16v8v4zM24 31v4h-12v-4h12z" />
    <glyph glyph-name="uni268A" unicode="&#x268a;" 
d="M0 3h28v-8h-28v8z" />
    <glyph glyph-name="uni268B" unicode="&#x268b;" 
d="M20 3h8v-8h-8v8zM0 3h8v-8h-8v8z" />
    <glyph glyph-name="uni268C" unicode="&#x268c;" 
d="M0 3h28v-8h-28v8zM0 19h28v-8h-28v8z" />
    <glyph glyph-name="uni268D" unicode="&#x268d;" 
d="M0 3h28v-8h-28v8zM20 19h8v-8h-8v8zM0 19h8v-8h-8v8z" />
    <glyph glyph-name="uni268E" unicode="&#x268e;" 
d="M20 3h8v-8h-8v8zM0 3h8v-8h-8v8zM0 19h28v-8h-28v8z" />
    <glyph glyph-name="uni268F" unicode="&#x268f;" 
d="M20 3h8v-8h-8v8zM0 3h8v-8h-8v8zM20 19h8v-8h-8v8zM0 19h8v-8h-8v8z" />
    <glyph glyph-name="uni26AA" unicode="&#x26aa;" 
d="M8 35h16v-8h4v-24h-4v24h-16v-24h-4v24h4v8zM24 3v-8h-16v8h16z" />
    <glyph glyph-name="uni26AB" unicode="&#x26ab;" 
d="M8 35h16v-8h4v-24h-4v-8h-16v8h-4v24h4v8z" />
    <glyph glyph-name="uni26AC" unicode="&#x26ac;" 
d="M8 43h12v-8h4v-8v-8v-8h-4v-8h-12v8h-4v16v8h4v8zM16 19v8h-4v-8h4z" />
    <glyph glyph-name="uni2708" unicode="&#x2708;" 
d="M0 35h4v-8h8v8h-4v16h8v-8h4v-8h4v-8h8v-16h-8v-8h-4v-8h-4v-8h-8v8v8h4v8h-8v-8h-4v8v24z" />
    <glyph glyph-name="uni2734" unicode="&#x2734;" 
d="M24 51h4v-8h-4v-8h-4v8h4v8zM12 51h4v-16h4v-8h8v-8h-8v-8h4v-8h4v-8h-4v8h-4v8h-4v-8v-8h-4v8v8h-4v-8h-4v-8h-4v8h4v8h4v8h-8v8h8v8h-4v8h-4v8h4v-8h4v-8h4v16z" />
    <glyph glyph-name="uni2800" unicode="&#x2800;" 
d="M0 51z" />
    <glyph glyph-name="uni2801" unicode="&#x2801;" 
d="M0 51h16v-16h-16v16z" />
    <glyph glyph-name="uni2802" unicode="&#x2802;" 
d="M0 35h16v-16h-16v16z" />
    <glyph glyph-name="uni2803" unicode="&#x2803;" 
d="M0 51h16v-32h-16v32z" />
    <glyph glyph-name="uni2804" unicode="&#x2804;" 
d="M0 19h16v-16h-16v16z" />
    <glyph glyph-name="uni2805" unicode="&#x2805;" 
d="M0 19h16v-16h-16v16zM0 51h16v-16h-16v16z" />
    <glyph glyph-name="uni2806" unicode="&#x2806;" 
d="M0 35h16v-32h-16v32z" />
    <glyph glyph-name="uni2807" unicode="&#x2807;" 
d="M0 51h16v-48h-16v48z" />
    <glyph glyph-name="uni2808" unicode="&#x2808;" 
d="M16 51h16v-16h-16v16z" />
    <glyph glyph-name="uni2809" unicode="&#x2809;" 
d="M0 51h32v-16h-32v16z" />
    <glyph glyph-name="uni280A" unicode="&#x280a;" 
d="M16 51h16v-16h-16v-16h-16v16h16v16z" />
    <glyph glyph-name="uni280B" unicode="&#x280b;" 
d="M0 51h32v-16h-16v-16h-16v16v16z" />
    <glyph glyph-name="uni280C" unicode="&#x280c;" 
d="M0 19h16v-16h-16v16zM16 51h16v-16h-16v16z" />
    <glyph glyph-name="uni280D" unicode="&#x280d;" 
d="M0 19h16v-16h-16v16zM0 51h32v-16h-32v16z" />
    <glyph glyph-name="uni280E" unicode="&#x280e;" 
d="M16 51h16v-16h-16v-32h-16v32h16v16z" />
    <glyph glyph-name="uni280F" unicode="&#x280f;" 
d="M0 51h32v-16h-16v-32h-16v32v16z" />
    <glyph glyph-name="uni2810" unicode="&#x2810;" 
d="M16 35h16v-16h-16v16z" />
    <glyph glyph-name="uni2811" unicode="&#x2811;" 
d="M0 51h16v-16h-16v16zM16 35h16v-16h-16v16z" />
    <glyph glyph-name="uni2812" unicode="&#x2812;" 
d="M0 35h32v-16h-32v16z" />
    <glyph glyph-name="uni2813" unicode="&#x2813;" 
d="M0 51h16v-16h16v-16h-32v32z" />
    <glyph glyph-name="uni2814" unicode="&#x2814;" 
d="M16 35h16v-16h-16v-16h-16v16h16v16z" />
    <glyph glyph-name="uni2815" unicode="&#x2815;" 
d="M0 51h16v-16h-16v16zM16 19v-16h-16v16h16zM16 19v16h16v-16h-16z" />
    <glyph glyph-name="uni2816" unicode="&#x2816;" 
d="M0 35h32v-16h-16v-16h-16v16v16z" />
    <glyph glyph-name="uni2817" unicode="&#x2817;" 
d="M0 51h16v-16h16v-16h-16v-16h-16v16v32z" />
    <glyph glyph-name="uni2818" unicode="&#x2818;" 
d="M16 51h16v-32h-16v32z" />
    <glyph glyph-name="uni2819" unicode="&#x2819;" 
d="M0 51h32v-32h-16v16h-16v16z" />
    <glyph glyph-name="uni281A" unicode="&#x281a;" 
d="M16 51h16v-32h-32v16h16v16z" />
    <glyph glyph-name="uni281B" unicode="&#x281b;" 
d="M0 51h32v-32h-32v32z" />
    <glyph glyph-name="uni281C" unicode="&#x281c;" 
d="M16 51h16v-32h-16v-16h-16v16h16v32z" />
    <glyph glyph-name="uni281D" unicode="&#x281d;" 
d="M0 51h32v-32h-16v-16h-16v16h16v16h-16v16z" />
    <glyph glyph-name="uni281E" unicode="&#x281e;" 
d="M16 51h16v-32h-16v-16h-16v16v16h16v16z" />
    <glyph glyph-name="uni281F" unicode="&#x281f;" 
d="M0 51h32v-32h-16v-16h-16v16v32z" />
    <glyph glyph-name="uni2820" unicode="&#x2820;" 
d="M16 19h16v-16h-16v16z" />
    <glyph glyph-name="uni2821" unicode="&#x2821;" 
d="M16 19h16v-16h-16v16zM0 51h16v-16h-16v16z" />
    <glyph glyph-name="uni2822" unicode="&#x2822;" 
d="M0 35h16v-16h-16v16zM16 19h16v-16h-16v16z" />
    <glyph glyph-name="uni2823" unicode="&#x2823;" 
d="M0 51h16v-32h-16v32zM16 19h16v-16h-16v16z" />
    <glyph glyph-name="uni2824" unicode="&#x2824;" 
d="M0 19h32v-16h-32v16z" />
    <glyph glyph-name="uni2825" unicode="&#x2825;" 
d="M0 19h32v-16h-32v16zM0 51h16v-16h-16v16z" />
    <glyph glyph-name="uni2826" unicode="&#x2826;" 
d="M0 35h16v-16h16v-16h-32v32z" />
    <glyph glyph-name="uni2827" unicode="&#x2827;" 
d="M0 51h16v-32h16v-16h-32v48z" />
    <glyph glyph-name="uni2828" unicode="&#x2828;" 
d="M16 19h16v-16h-16v16zM16 51h16v-16h-16v16z" />
    <glyph glyph-name="uni2829" unicode="&#x2829;" 
d="M16 19h16v-16h-16v16zM0 51h32v-16h-32v16z" />
    <glyph glyph-name="uni282A" unicode="&#x282a;" 
d="M16 51h16v-16h-16v-16h-16v16h16v16zM16 19h16v-16h-16v16z" />
    <glyph glyph-name="uni282B" unicode="&#x282b;" 
d="M0 51h32v-16h-16v-16h-16v16v16zM16 19h16v-16h-16v16z" />
    <glyph glyph-name="uni282C" unicode="&#x282c;" 
d="M0 19h32v-16h-32v16zM16 51h16v-16h-16v16z" />
    <glyph glyph-name="uni282D" unicode="&#x282d;" 
d="M0 19h32v-16h-32v16zM0 51h32v-16h-32v16z" />
    <glyph glyph-name="uni282E" unicode="&#x282e;" 
d="M16 51h16v-16h-16v-16h16v-16h-32v32h16v16z" />
    <glyph glyph-name="uni282F" unicode="&#x282f;" 
d="M0 51h32v-16h-16v-16h16v-16h-32v32v16z" />
    <glyph glyph-name="uni2830" unicode="&#x2830;" 
d="M16 35h16v-32h-16v32z" />
    <glyph glyph-name="uni2831" unicode="&#x2831;" 
d="M0 51h16v-16h-16v16zM16 35h16v-32h-16v32z" />
    <glyph glyph-name="uni2832" unicode="&#x2832;" 
d="M0 35h32v-32h-16v16h-16v16z" />
    <glyph glyph-name="uni2833" unicode="&#x2833;" 
d="M0 51h16v-16h16v-32h-16v16h-16v32z" />
    <glyph glyph-name="uni2834" unicode="&#x2834;" 
d="M16 35h16v-32h-32v16h16v16z" />
    <glyph glyph-name="uni2835" unicode="&#x2835;" 
d="M0 51h16v-16h-16v16zM16 35h16v-32h-32v16h16v16z" />
    <glyph glyph-name="uni2836" unicode="&#x2836;" 
d="M0 35h32v-32h-32v32z" />
    <glyph glyph-name="uni2837" unicode="&#x2837;" 
d="M0 51h16v-16h16v-32h-32v48z" />
    <glyph glyph-name="uni2838" unicode="&#x2838;" 
d="M16 51h16v-48h-16v48z" />
    <glyph glyph-name="uni2839" unicode="&#x2839;" 
d="M0 51h32v-48h-16v32h-16v16z" />
    <glyph glyph-name="uni283A" unicode="&#x283a;" 
d="M16 51h16v-48h-16v16h-16v16h16v16z" />
    <glyph glyph-name="uni283B" unicode="&#x283b;" 
d="M0 51h32v-48h-16v16h-16v32z" />
    <glyph glyph-name="uni283C" unicode="&#x283c;" 
d="M16 51h16v-48h-32v16h16v32z" />
    <glyph glyph-name="uni283D" unicode="&#x283d;" 
d="M0 51h32v-48h-32v16h16v16h-16v16z" />
    <glyph glyph-name="uni283E" unicode="&#x283e;" 
d="M16 51h16v-48h-32v32h16v16z" />
    <glyph glyph-name="uni283F" unicode="&#x283f;" 
d="M0 51h32v-48h-32v48z" />
    <glyph glyph-name="uni2840" unicode="&#x2840;" 
d="M0 3h16v-16h-16v16z" />
    <glyph glyph-name="uni2841" unicode="&#x2841;" 
d="M0 3h16v-16h-16v16zM0 51h16v-16h-16v16z" />
    <glyph glyph-name="uni2842" unicode="&#x2842;" 
d="M0 3h16v-16h-16v16zM0 35h16v-16h-16v16z" />
    <glyph glyph-name="uni2843" unicode="&#x2843;" 
d="M0 3h16v-16h-16v16zM0 51h16v-32h-16v32z" />
    <glyph glyph-name="uni2844" unicode="&#x2844;" 
d="M0 19h16v-32h-16v32z" />
    <glyph glyph-name="uni2845" unicode="&#x2845;" 
d="M0 19h16v-32h-16v32zM0 51h16v-16h-16v16z" />
    <glyph glyph-name="uni2846" unicode="&#x2846;" 
d="M0 35h16v-48h-16v48z" />
    <glyph glyph-name="uni2847" unicode="&#x2847;" 
d="M0 51h16v-64h-16v64z" />
    <glyph glyph-name="uni2848" unicode="&#x2848;" 
d="M0 3h16v-16h-16v16zM16 51h16v-16h-16v16z" />
    <glyph glyph-name="uni2849" unicode="&#x2849;" 
d="M0 3h16v-16h-16v16zM0 51h32v-16h-32v16z" />
    <glyph glyph-name="uni284A" unicode="&#x284a;" 
d="M0 3h16v-16h-16v16zM16 51h16v-16h-16v-16h-16v16h16v16z" />
    <glyph glyph-name="uni284B" unicode="&#x284b;" 
d="M0 3h16v-16h-16v16zM0 51h32v-16h-16v-16h-16v16v16z" />
    <glyph glyph-name="uni284C" unicode="&#x284c;" 
d="M0 19h16v-32h-16v32zM16 51h16v-16h-16v16z" />
    <glyph glyph-name="uni284D" unicode="&#x284d;" 
d="M0 19h16v-32h-16v32zM0 51h32v-16h-32v16z" />
    <glyph glyph-name="uni284E" unicode="&#x284e;" 
d="M16 51h16v-16h-16v-48h-16v48h16v16z" />
    <glyph glyph-name="uni284F" unicode="&#x284f;" 
d="M0 51h32v-16h-16v-48h-16v48v16z" />
    <glyph glyph-name="uni2850" unicode="&#x2850;" 
d="M0 3h16v-16h-16v16zM16 35h16v-16h-16v16z" />
    <glyph glyph-name="uni2851" unicode="&#x2851;" 
d="M0 3h16v-16h-16v16zM0 51h16v-16h-16v16zM16 35h16v-16h-16v16z" />
    <glyph glyph-name="uni2852" unicode="&#x2852;" 
d="M0 3h16v-16h-16v16zM0 35h32v-16h-32v16z" />
    <glyph glyph-name="uni2853" unicode="&#x2853;" 
d="M0 3h16v-16h-16v16zM0 51h16v-16h16v-16h-32v32z" />
    <glyph glyph-name="uni2854" unicode="&#x2854;" 
d="M16 35h16v-16h-16v-32h-16v32h16v16z" />
    <glyph glyph-name="uni2855" unicode="&#x2855;" 
d="M0 51h16v-16h-16v16zM16 19v-32h-16v32h16zM16 19v16h16v-16h-16z" />
    <glyph glyph-name="uni2856" unicode="&#x2856;" 
d="M0 35h32v-16h-16v-32h-16v32v16z" />
    <glyph glyph-name="uni2857" unicode="&#x2857;" 
d="M0 51h16v-16h16v-16h-16v-32h-16v32v32z" />
    <glyph glyph-name="uni2858" unicode="&#x2858;" 
d="M0 3h16v-16h-16v16zM16 51h16v-32h-16v32z" />
    <glyph glyph-name="uni2859" unicode="&#x2859;" 
d="M0 3h16v-16h-16v16zM0 51h32v-32h-16v16h-16v16z" />
    <glyph glyph-name="uni285A" unicode="&#x285a;" 
d="M0 3h16v-16h-16v16zM16 51h16v-32h-32v16h16v16z" />
    <glyph glyph-name="uni285B" unicode="&#x285b;" 
d="M0 3h16v-16h-16v16zM0 51h32v-32h-32v32z" />
    <glyph glyph-name="uni285C" unicode="&#x285c;" 
d="M16 51h16v-32h-16v-32h-16v32h16v32z" />
    <glyph glyph-name="uni285D" unicode="&#x285d;" 
d="M0 51h32v-32h-16v-32h-16v32h16v16h-16v16z" />
    <glyph glyph-name="uni285E" unicode="&#x285e;" 
d="M16 51h16v-32h-16v-32h-16v32v16h16v16z" />
    <glyph glyph-name="uni285F" unicode="&#x285f;" 
d="M0 51h32v-32h-16v-32h-16v32v32z" />
    <glyph glyph-name="uni2860" unicode="&#x2860;" 
d="M16 19h16v-16h-16v-16h-16v16h16v16z" />
    <glyph glyph-name="uni2861" unicode="&#x2861;" 
d="M16 19h16v-16h-16v-16h-16v16h16v16zM0 51h16v-16h-16v16z" />
    <glyph glyph-name="uni2862" unicode="&#x2862;" 
d="M0 35h16v-16h-16v16zM16 3v-16h-16v16h16zM16 3v16h16v-16h-16z" />
    <glyph glyph-name="uni2863" unicode="&#x2863;" 
d="M0 51h16v-32h-16v32zM16 3v-16h-16v16h16zM16 3v16h16v-16h-16z" />
    <glyph glyph-name="uni2864" unicode="&#x2864;" 
d="M0 19h32v-16h-16v-16h-16v16v16z" />
    <glyph glyph-name="uni2865" unicode="&#x2865;" 
d="M0 19h32v-16h-16v-16h-16v16v16zM0 51h16v-16h-16v16z" />
    <glyph glyph-name="uni2866" unicode="&#x2866;" 
d="M0 35h16v-16h16v-16h-16v-16h-16v16v32z" />
    <glyph glyph-name="uni2867" unicode="&#x2867;" 
d="M0 51h16v-32h16v-16h-16v-16h-16v16v48z" />
    <glyph glyph-name="uni2868" unicode="&#x2868;" 
d="M16 19h16v-16h-16v-16h-16v16h16v16zM16 51h16v-16h-16v16z" />
    <glyph glyph-name="uni2869" unicode="&#x2869;" 
d="M16 19h16v-16h-16v-16h-16v16h16v16zM0 51h32v-16h-32v16z" />
    <glyph glyph-name="uni286A" unicode="&#x286a;" 
d="M16 51h16v-16h-16v-16h-16v16h16v16zM16 3v-16h-16v16h16zM16 3v16h16v-16h-16z" />
    <glyph glyph-name="uni286B" unicode="&#x286b;" 
d="M0 51h32v-16h-16v-16h-16v16v16zM16 3v-16h-16v16h16zM16 3v16h16v-16h-16z" />
    <glyph glyph-name="uni286C" unicode="&#x286c;" 
d="M0 19h32v-16h-16v-16h-16v16v16zM16 51h16v-16h-16v16z" />
    <glyph glyph-name="uni286D" unicode="&#x286d;" 
d="M0 19h32v-16h-16v-16h-16v16v16zM0 51h32v-16h-32v16z" />
    <glyph glyph-name="uni286E" unicode="&#x286e;" 
d="M16 51h16v-16h-16v-16h16v-16h-16v-16h-16v16v32h16v16z" />
    <glyph glyph-name="uni286F" unicode="&#x286f;" 
d="M0 51h32v-16h-16v-16h16v-16h-16v-16h-16v16v32v16z" />
    <glyph glyph-name="uni2870" unicode="&#x2870;" 
d="M16 35h16v-32h-16v-16h-16v16h16v32z" />
    <glyph glyph-name="uni2871" unicode="&#x2871;" 
d="M0 51h16v-16h-16v16zM16 3v-16h-16v16h16zM16 3v32h16v-32h-16z" />
    <glyph glyph-name="uni2872" unicode="&#x2872;" 
d="M0 35h32v-32h-16v-16h-16v16h16v16h-16v16z" />
    <glyph glyph-name="uni2873" unicode="&#x2873;" 
d="M0 51h16v-16h16v-32h-16v-16h-16v16h16v16h-16v32z" />
    <glyph glyph-name="uni2874" unicode="&#x2874;" 
d="M16 35h16v-32h-16v-16h-16v16v16h16v16z" />
    <glyph glyph-name="uni2875" unicode="&#x2875;" 
d="M0 51h16v-16h-16v16zM16 3v-16h-16v16v16h16v16h16v-32h-16z" />
    <glyph glyph-name="uni2876" unicode="&#x2876;" 
d="M0 35h32v-32h-16v-16h-16v16v32z" />
    <glyph glyph-name="uni2877" unicode="&#x2877;" 
d="M0 51h16v-16h16v-32h-16v-16h-16v16v48z" />
    <glyph glyph-name="uni2878" unicode="&#x2878;" 
d="M16 51h16v-48h-16v-16h-16v16h16v48z" />
    <glyph glyph-name="uni2879" unicode="&#x2879;" 
d="M0 51h32v-48h-16v-16h-16v16h16v32h-16v16z" />
    <glyph glyph-name="uni287A" unicode="&#x287a;" 
d="M16 51h16v-48h-16v-16h-16v16h16v16h-16v16h16v16z" />
    <glyph glyph-name="uni287B" unicode="&#x287b;" 
d="M0 51h32v-48h-16v-16h-16v16h16v16h-16v32z" />
    <glyph glyph-name="uni287C" unicode="&#x287c;" 
d="M16 51h16v-48h-16v-16h-16v16v16h16v32z" />
    <glyph glyph-name="uni287D" unicode="&#x287d;" 
d="M0 51h32v-48h-16v-16h-16v16v16h16v16h-16v16z" />
    <glyph glyph-name="uni287E" unicode="&#x287e;" 
d="M16 51h16v-48h-16v-16h-16v16v32h16v16z" />
    <glyph glyph-name="uni287F" unicode="&#x287f;" 
d="M0 51h32v-48h-16v-16h-16v16v48z" />
    <glyph glyph-name="uni2880" unicode="&#x2880;" 
d="M16 3h16v-16h-16v16z" />
    <glyph glyph-name="uni2881" unicode="&#x2881;" 
d="M16 3h16v-16h-16v16zM0 51h16v-16h-16v16z" />
    <glyph glyph-name="uni2882" unicode="&#x2882;" 
d="M16 3h16v-16h-16v16zM0 35h16v-16h-16v16z" />
    <glyph glyph-name="uni2883" unicode="&#x2883;" 
d="M16 3h16v-16h-16v16zM0 51h16v-32h-16v32z" />
    <glyph glyph-name="uni2884" unicode="&#x2884;" 
d="M0 19h16v-16h-16v16zM16 3h16v-16h-16v16z" />
    <glyph glyph-name="uni2885" unicode="&#x2885;" 
d="M0 19h16v-16h-16v16zM0 51h16v-16h-16v16zM16 3h16v-16h-16v16z" />
    <glyph glyph-name="uni2886" unicode="&#x2886;" 
d="M0 35h16v-32h-16v32zM16 3h16v-16h-16v16z" />
    <glyph glyph-name="uni2887" unicode="&#x2887;" 
d="M0 51h16v-48h-16v48zM16 3h16v-16h-16v16z" />
    <glyph glyph-name="uni2888" unicode="&#x2888;" 
d="M16 3h16v-16h-16v16zM16 51h16v-16h-16v16z" />
    <glyph glyph-name="uni2889" unicode="&#x2889;" 
d="M16 3h16v-16h-16v16zM0 51h32v-16h-32v16z" />
    <glyph glyph-name="uni288A" unicode="&#x288a;" 
d="M16 3h16v-16h-16v16zM16 51h16v-16h-16v-16h-16v16h16v16z" />
    <glyph glyph-name="uni288B" unicode="&#x288b;" 
d="M16 3h16v-16h-16v16zM0 51h32v-16h-16v-16h-16v16v16z" />
    <glyph glyph-name="uni288C" unicode="&#x288c;" 
d="M0 19h16v-16h-16v16zM16 51h16v-16h-16v16zM16 3h16v-16h-16v16z" />
    <glyph glyph-name="uni288D" unicode="&#x288d;" 
d="M0 19h16v-16h-16v16zM0 51h32v-16h-32v16zM16 3h16v-16h-16v16z" />
    <glyph glyph-name="uni288E" unicode="&#x288e;" 
d="M16 51h16v-16h-16v-32h-16v32h16v16zM16 3h16v-16h-16v16z" />
    <glyph glyph-name="uni288F" unicode="&#x288f;" 
d="M0 51h32v-16h-16v-32h-16v32v16zM16 3h16v-16h-16v16z" />
    <glyph glyph-name="uni2890" unicode="&#x2890;" 
d="M16 3h16v-16h-16v16zM16 35h16v-16h-16v16z" />
    <glyph glyph-name="uni2891" unicode="&#x2891;" 
d="M16 3h16v-16h-16v16zM0 51h16v-16h-16v16zM16 35h16v-16h-16v16z" />
    <glyph glyph-name="uni2892" unicode="&#x2892;" 
d="M16 3h16v-16h-16v16zM0 35h32v-16h-32v16z" />
    <glyph glyph-name="uni2893" unicode="&#x2893;" 
d="M16 3h16v-16h-16v16zM0 51h16v-16h16v-16h-32v32z" />
    <glyph glyph-name="uni2894" unicode="&#x2894;" 
d="M16 35h16v-16h-16v-16h-16v16h16v16zM16 3h16v-16h-16v16z" />
    <glyph glyph-name="uni2895" unicode="&#x2895;" 
d="M0 51h16v-16h-16v16zM16 3h-16v16h16v-16zM16 3h16v-16h-16v16zM16 19v16h16v-16h-16z" />
    <glyph glyph-name="uni2896" unicode="&#x2896;" 
d="M0 35h32v-16h-16v-16h-16v16v16zM16 3h16v-16h-16v16z" />
    <glyph glyph-name="uni2897" unicode="&#x2897;" 
d="M0 51h16v-16h16v-16h-16v-16h-16v16v32zM16 3h16v-16h-16v16z" />
    <glyph glyph-name="uni2898" unicode="&#x2898;" 
d="M16 3h16v-16h-16v16zM16 51h16v-32h-16v32z" />
    <glyph glyph-name="uni2899" unicode="&#x2899;" 
d="M16 3h16v-16h-16v16zM0 51h32v-32h-16v16h-16v16z" />
    <glyph glyph-name="uni289A" unicode="&#x289a;" 
d="M16 3h16v-16h-16v16zM16 51h16v-32h-32v16h16v16z" />
    <glyph glyph-name="uni289B" unicode="&#x289b;" 
d="M16 3h16v-16h-16v16zM0 51h32v-32h-32v32z" />
    <glyph glyph-name="uni289C" unicode="&#x289c;" 
d="M16 51h16v-32h-16v-16h-16v16h16v32zM16 3h16v-16h-16v16z" />
    <glyph glyph-name="uni289D" unicode="&#x289d;" 
d="M0 51h32v-32h-16v-16h-16v16h16v16h-16v16zM16 3h16v-16h-16v16z" />
    <glyph glyph-name="uni289E" unicode="&#x289e;" 
d="M16 51h16v-32h-16v-16h-16v16v16h16v16zM16 3h16v-16h-16v16z" />
    <glyph glyph-name="uni289F" unicode="&#x289f;" 
d="M0 51h32v-32h-16v-16h-16v16v32zM16 3h16v-16h-16v16z" />
    <glyph glyph-name="uni28A0" unicode="&#x28a0;" 
d="M16 19h16v-32h-16v32z" />
    <glyph glyph-name="uni28A1" unicode="&#x28a1;" 
d="M16 19h16v-32h-16v32zM0 51h16v-16h-16v16z" />
    <glyph glyph-name="uni28A2" unicode="&#x28a2;" 
d="M0 35h16v-16h-16v16zM16 19h16v-32h-16v32z" />
    <glyph glyph-name="uni28A3" unicode="&#x28a3;" 
d="M0 51h16v-32h-16v32zM16 19h16v-32h-16v32z" />
    <glyph glyph-name="uni28A4" unicode="&#x28a4;" 
d="M0 19h32v-32h-16v16h-16v16z" />
    <glyph glyph-name="uni28A5" unicode="&#x28a5;" 
d="M0 19h32v-32h-16v16h-16v16zM0 51h16v-16h-16v16z" />
    <glyph glyph-name="uni28A6" unicode="&#x28a6;" 
d="M0 35h16v-16h16v-32h-16v16h-16v32z" />
    <glyph glyph-name="uni28A7" unicode="&#x28a7;" 
d="M0 51h16v-32h16v-32h-16v16h-16v48z" />
    <glyph glyph-name="uni28A8" unicode="&#x28a8;" 
d="M16 19h16v-32h-16v32zM16 51h16v-16h-16v16z" />
    <glyph glyph-name="uni28A9" unicode="&#x28a9;" 
d="M16 19h16v-32h-16v32zM0 51h32v-16h-32v16z" />
    <glyph glyph-name="uni28AA" unicode="&#x28aa;" 
d="M16 51h16v-16h-16v-16h-16v16h16v16zM16 19h16v-32h-16v32z" />
    <glyph glyph-name="uni28AB" unicode="&#x28ab;" 
d="M0 51h32v-16h-16v-16h-16v16v16zM16 19h16v-32h-16v32z" />
    <glyph glyph-name="uni28AC" unicode="&#x28ac;" 
d="M0 19h32v-32h-16v16h-16v16zM16 51h16v-16h-16v16z" />
    <glyph glyph-name="uni28AD" unicode="&#x28ad;" 
d="M0 19h32v-32h-16v16h-16v16zM0 51h32v-16h-32v16z" />
    <glyph glyph-name="uni28AE" unicode="&#x28ae;" 
d="M16 51h16v-16h-16v-16h16v-32h-16v16h-16v32h16v16z" />
    <glyph glyph-name="uni28AF" unicode="&#x28af;" 
d="M0 51h32v-16h-16v-16h16v-32h-16v16h-16v32v16z" />
    <glyph glyph-name="uni28B0" unicode="&#x28b0;" 
d="M16 35h16v-48h-16v48z" />
    <glyph glyph-name="uni28B1" unicode="&#x28b1;" 
d="M0 51h16v-16h-16v16zM16 35h16v-48h-16v48z" />
    <glyph glyph-name="uni28B2" unicode="&#x28b2;" 
d="M0 35h32v-48h-16v32h-16v16z" />
    <glyph glyph-name="uni28B3" unicode="&#x28b3;" 
d="M0 51h16v-16h16v-48h-16v32h-16v32z" />
    <glyph glyph-name="uni28B4" unicode="&#x28b4;" 
d="M16 35h16v-48h-16v16h-16v16h16v16z" />
    <glyph glyph-name="uni28B5" unicode="&#x28b5;" 
d="M0 51h16v-16h-16v16zM16 35h16v-48h-16v16h-16v16h16v16z" />
    <glyph glyph-name="uni28B6" unicode="&#x28b6;" 
d="M0 35h32v-48h-16v16h-16v32z" />
    <glyph glyph-name="uni28B7" unicode="&#x28b7;" 
d="M0 51h16v-16h16v-48h-16v16h-16v48z" />
    <glyph glyph-name="uni28B8" unicode="&#x28b8;" 
d="M16 51h16v-64h-16v64z" />
    <glyph glyph-name="uni28B9" unicode="&#x28b9;" 
d="M0 51h32v-64h-16v48h-16v16z" />
    <glyph glyph-name="uni28BA" unicode="&#x28ba;" 
d="M16 51h16v-64h-16v32h-16v16h16v16z" />
    <glyph glyph-name="uni28BB" unicode="&#x28bb;" 
d="M0 51h32v-64h-16v32h-16v32z" />
    <glyph glyph-name="uni28BC" unicode="&#x28bc;" 
d="M16 51h16v-64h-16v16h-16v16h16v32z" />
    <glyph glyph-name="uni28BD" unicode="&#x28bd;" 
d="M0 51h32v-64h-16v16h-16v16h16v16h-16v16z" />
    <glyph glyph-name="uni28BE" unicode="&#x28be;" 
d="M16 51h16v-64h-16v16h-16v32h16v16z" />
    <glyph glyph-name="uni28BF" unicode="&#x28bf;" 
d="M0 51h32v-64h-16v16h-16v48z" />
    <glyph glyph-name="uni28C0" unicode="&#x28c0;" 
d="M0 3h32v-16h-32v16z" />
    <glyph glyph-name="uni28C1" unicode="&#x28c1;" 
d="M0 3h32v-16h-32v16zM0 51h16v-16h-16v16z" />
    <glyph glyph-name="uni28C2" unicode="&#x28c2;" 
d="M0 3h32v-16h-32v16zM0 35h16v-16h-16v16z" />
    <glyph glyph-name="uni28C3" unicode="&#x28c3;" 
d="M0 3h32v-16h-32v16zM0 51h16v-32h-16v32z" />
    <glyph glyph-name="uni28C4" unicode="&#x28c4;" 
d="M0 19h16v-16h16v-16h-32v32z" />
    <glyph glyph-name="uni28C5" unicode="&#x28c5;" 
d="M0 19h16v-16h16v-16h-32v32zM0 51h16v-16h-16v16z" />
    <glyph glyph-name="uni28C6" unicode="&#x28c6;" 
d="M0 35h16v-32h16v-16h-32v48z" />
    <glyph glyph-name="uni28C7" unicode="&#x28c7;" 
d="M0 51h16v-48h16v-16h-32v64z" />
    <glyph glyph-name="uni28C8" unicode="&#x28c8;" 
d="M0 3h32v-16h-32v16zM16 51h16v-16h-16v16z" />
    <glyph glyph-name="uni28C9" unicode="&#x28c9;" 
d="M0 3h32v-16h-32v16zM0 51h32v-16h-32v16z" />
    <glyph glyph-name="uni28CA" unicode="&#x28ca;" 
d="M0 3h32v-16h-32v16zM16 51h16v-16h-16v-16h-16v16h16v16z" />
    <glyph glyph-name="uni28CB" unicode="&#x28cb;" 
d="M0 3h32v-16h-32v16zM0 51h32v-16h-16v-16h-16v16v16z" />
    <glyph glyph-name="uni28CC" unicode="&#x28cc;" 
d="M0 19h16v-16h16v-16h-32v32zM16 51h16v-16h-16v16z" />
    <glyph glyph-name="uni28CD" unicode="&#x28cd;" 
d="M0 19h16v-16h16v-16h-32v32zM0 51h32v-16h-32v16z" />
    <glyph glyph-name="uni28CE" unicode="&#x28ce;" 
d="M16 51h16v-16h-16v-32h16v-16h-32v48h16v16z" />
    <glyph glyph-name="uni28CF" unicode="&#x28cf;" 
d="M0 51h32v-16h-16v-32h16v-16h-32v48v16z" />
    <glyph glyph-name="uni28D0" unicode="&#x28d0;" 
d="M0 3h32v-16h-32v16zM16 35h16v-16h-16v16z" />
    <glyph glyph-name="uni28D1" unicode="&#x28d1;" 
d="M0 3h32v-16h-32v16zM0 51h16v-16h-16v16zM16 35h16v-16h-16v16z" />
    <glyph glyph-name="uni28D2" unicode="&#x28d2;" 
d="M0 3h32v-16h-32v16zM0 35h32v-16h-32v16z" />
    <glyph glyph-name="uni28D3" unicode="&#x28d3;" 
d="M0 3h32v-16h-32v16zM0 51h16v-16h16v-16h-32v32z" />
    <glyph glyph-name="uni28D4" unicode="&#x28d4;" 
d="M16 35h16v-16h-16v-16h16v-16h-32v32h16v16z" />
    <glyph glyph-name="uni28D5" unicode="&#x28d5;" 
d="M0 51h16v-16h-16v16zM16 19v-16h16v-16h-32v32h16zM16 19v16h16v-16h-16z" />
    <glyph glyph-name="uni28D6" unicode="&#x28d6;" 
d="M0 35h32v-16h-16v-16h16v-16h-32v32v16z" />
    <glyph glyph-name="uni28D7" unicode="&#x28d7;" 
d="M0 51h16v-16h16v-16h-16v-16h16v-16h-32v32v32z" />
    <glyph glyph-name="uni28D8" unicode="&#x28d8;" 
d="M0 3h32v-16h-32v16zM16 51h16v-32h-16v32z" />
    </font>
</defs>
</svg>
